CommonSans-Black.ufo
<glyph name="exclam" format="2">
  <advance width="190"/>
  <unicode hex="0021"/>
  <outline>
    <component base="period" xOffset="-20"/>
    <contour>
      <point x="5" y="490" type="line"/>
      <point x="5" y="700" type="line"/>
      <point x="185" y="700" type="line"/>
      <point x="185" y="490" type="line"/>
      <point x="140" y="230" type="line"/>
      <point x="50" y="230" type="line"/>
    </contour>
  </outline>
</glyph>
<glyph name="numbersign" format="2">
  <advance width="579"/>
  <unicode hex="0023"/>
  <outline>
    <contour>
      <point x="24" y="172" type="line"/>
      <point x="24" y="252" type="line"/>
      <point x="119" y="252" type="line"/>
      <point x="157" y="420" type="line"/>
      <point x="61" y="420" type="line"/>
      <point x="61" y="500" type="line"/>
      <point x="174" y="500" type="line"/>
      <point x="214" y="700" type="line"/>
      <point x="301" y="700" type="line"/>
      <point x="259" y="500" type="line"/>
      <point x="365" y="500" type="line"/>
      <point x="406" y="700" type="line"/>
      <point x="493" y="700" type="line"/>
      <point x="451" y="500" type="line"/>
      <point x="552" y="500" type="line"/>
      <point x="552" y="420" type="line"/>
      <point x="435" y="420" type="line"/>
      <point x="400" y="252" type="line"/>
      <point x="515" y="252" type="line"/>
      <point x="515" y="172" type="line"/>
      <point x="384" y="172" type="line"/>
      <point x="348" y="0" type="line"/>
      <point x="257" y="0" type="line"/>
      <point x="295" y="172" type="line"/>
      <point x="192" y="172" type="line"/>
      <point x="156" y="0" type="line"/>
      <point x="65" y="0" type="line"/>
      <point x="103" y="172" type="line"/>
    </contour>
    <contour>
      <point x="208" y="252" type="line"/>
      <point x="311" y="252" type="line"/>
      <point x="348" y="420" type="line"/>
      <point x="243" y="420" type="line"/>
    </contour>
  </outline>
</glyph>
<glyph name="dollar" format="2">
  <advance width="582"/>
  <unicode hex="0024"/>
  <outline>
    <contour>
      <point x="265" y="-80" type="line"/>
      <point x="345" y="-80" type="line"/>
      <point x="345" y="780" type="line"/>
      <point x="265" y="780" type="line"/>
    </contour>
    <contour>
      <point x="552" y="191" type="curve" smooth="yes"/>
      <point x="552" y="293"/>
      <point x="479" y="350"/>
      <point x="383" y="378" type="curve" smooth="yes"/>
      <point x="233" y="421" type="line" smooth="yes"/>
      <point x="183" y="435"/>
      <point x="161" y="481"/>
      <point x="161" y="527" type="curve" smooth="yes"/>
      <point x="161" y="589"/>
      <point x="209" y="621"/>
      <point x="283" y="621" type="curve" smooth="yes"/>
      <point x="300" y="621" type="line"/>
      <point x="300" y="708" type="line"/>
      <point x="283" y="708" type="line" smooth="yes"/>
      <point x="157" y="708"/>
      <point x="71" y="629"/>
      <point x="71" y="516" type="curve" smooth="yes"/>
      <point x="71" y="420"/>
      <point x="123" y="358"/>
      <point x="228" y="328" type="curve" smooth="yes"/>
      <point x="374" y="287" type="line" smooth="yes"/>
      <point x="417" y="275"/>
      <point x="462" y="240"/>
      <point x="462" y="191" type="curve" smooth="yes"/>
      <point x="462" y="116"/>
      <point x="395" y="80"/>
      <point x="323" y="80" type="curve" smooth="yes"/>
      <point x="310" y="80" type="line"/>
      <point x="310" y="-11" type="line"/>
      <point x="323" y="-11" type="line" smooth="yes"/>
      <point x="456" y="-11"/>
      <point x="552" y="60"/>
    </contour>
    <contour>
      <point x="330" y="621" type="line"/>
      <point x="343" y="621" type="line" smooth="yes"/>
      <point x="417" y="621"/>
      <point x="461" y="588"/>
      <point x="461" y="522" type="curve"/>
      <point x="551" y="522" type="line"/>
      <point x="551" y="638"/>
      <point x="459" y="708"/>
      <point x="343" y="708" type="curve" smooth="yes"/>
      <point x="330" y="708" type="line"/>
    </contour>
    <contour>
      <point x="297" y="80" type="line"/>
      <point x="284" y="80" type="line" smooth="yes"/>
      <point x="217" y="80"/>
      <point x="150" y="110"/>
      <point x="150" y="194" type="curve"/>
      <point x="60" y="194" type="line"/>
      <point x="60" y="63"/>
      <point x="147" y="-11"/>
      <point x="284" y="-11" type="curve" smooth="yes"/>
      <point x="297" y="-11" type="line"/>
    </contour>
  </outline>
</glyph>
<glyph name="percent" format="2">
  <advance width="936"/>
  <unicode hex="0025"/>
  <outline>
    <contour>
      <point x="574" y="176" type="curve" smooth="yes"/>
      <point x="574" y="25"/>
      <point x="615" y="-47"/>
      <point x="740" y="-47" type="curve" smooth="yes"/>
      <point x="865" y="-47"/>
      <point x="906" y="25"/>
      <point x="906" y="176" type="curve" smooth="yes"/>
      <point x="906" y="327"/>
      <point x="864" y="399"/>
      <point x="740" y="399" type="curve" smooth="yes"/>
      <point x="615" y="399"/>
      <point x="574" y="327"/>
    </contour>
    <contour>
      <point x="704" y="176" type="curve" smooth="yes"/>
      <point x="704" y="215"/>
      <point x="704" y="243"/>
      <point x="740" y="243" type="curve" smooth="yes"/>
      <point x="776" y="243"/>
      <point x="776" y="215"/>
      <point x="776" y="176" type="curve" smooth="yes"/>
      <point x="776" y="139"/>
      <point x="774" y="109"/>
      <point x="740" y="109" type="curve" smooth="yes"/>
      <point x="704" y="109"/>
      <point x="704" y="137"/>
    </contour>
    <contour>
      <point x="30" y="508" type="curve" smooth="yes"/>
      <point x="30" y="357"/>
      <point x="71" y="285"/>
      <point x="196" y="285" type="curve" smooth="yes"/>
      <point x="321" y="285"/>
      <point x="362" y="357"/>
      <point x="362" y="508" type="curve" smooth="yes"/>
      <point x="362" y="659"/>
      <point x="320" y="731"/>
      <point x="196" y="731" type="curve" smooth="yes"/>
      <point x="71" y="731"/>
      <point x="30" y="659"/>
    </contour>
    <contour>
      <point x="160" y="508" type="curve" smooth="yes"/>
      <point x="160" y="547"/>
      <point x="160" y="575"/>
      <point x="196" y="575" type="curve" smooth="yes"/>
      <point x="232" y="575"/>
      <point x="232" y="547"/>
      <point x="232" y="508" type="curve" smooth="yes"/>
      <point x="232" y="471"/>
      <point x="230" y="441"/>
      <point x="196" y="441" type="curve" smooth="yes"/>
      <point x="160" y="441"/>
      <point x="160" y="469"/>
    </contour>
    <contour>
      <point x="134" y="0" type="line"/>
      <point x="344" y="0" type="line"/>
      <point x="810" y="700" type="line"/>
      <point x="600" y="700" type="line"/>
    </contour>
  </outline>
</glyph>
<glyph name="ampersand" format="2">
  <advance width="699"/>
  <unicode hex="0026"/>
  <outline>
    <contour>
      <point x="470" y="330" type="line"/>
      <point x="457" y="194"/>
      <point x="371" y="134"/>
      <point x="296" y="134" type="curve" smooth="yes"/>
      <point x="246" y="134"/>
      <point x="207" y="155"/>
      <point x="207" y="191" type="curve" smooth="yes"/>
      <point x="207" y="213"/>
      <point x="222" y="241"/>
      <point x="277" y="278" type="curve" smooth="yes"/>
      <point x="378" y="345" type="line" smooth="yes"/>
      <point x="447" y="391"/>
      <point x="530" y="462"/>
      <point x="530" y="535" type="curve" smooth="yes"/>
      <point x="530" y="622"/>
      <point x="446" y="696"/>
      <point x="303" y="696" type="curve" smooth="yes"/>
      <point x="139" y="696"/>
      <point x="80" y="622"/>
      <point x="80" y="540" type="curve" smooth="yes"/>
      <point x="80" y="486"/>
      <point x="101" y="447"/>
      <point x="149" y="392" type="curve" smooth="yes"/>
      <point x="496" y="0" type="line"/>
      <point x="709" y="0" type="line"/>
      <point x="321" y="437" type="line" smooth="yes"/>
      <point x="260" y="506"/>
      <point x="260" y="520"/>
      <point x="260" y="540" type="curve" smooth="yes"/>
      <point x="260" y="561"/>
      <point x="276" y="576"/>
      <point x="298" y="576" type="curve" smooth="yes"/>
      <point x="345" y="576"/>
      <point x="350" y="542"/>
      <point x="350" y="535" type="curve" smooth="yes"/>
      <point x="350" y="498"/>
      <point x="329" y="478"/>
      <point x="277" y="449" type="curve" smooth="yes"/>
      <point x="189" y="399" type="line" smooth="yes"/>
      <point x="69" y="331"/>
      <point x="27" y="264"/>
      <point x="27" y="183" type="curve" smooth="yes"/>
      <point x="27" y="50"/>
      <point x="122" y="-16"/>
      <point x="274" y="-16" type="curve" smooth="yes"/>
      <point x="492" y="-16"/>
      <point x="639" y="120"/>
      <point x="650" y="330" type="curve"/>
    </contour>
  </outline>
</glyph>
<glyph name="quotesingle" format="2">
  <advance width="180"/>
  <unicode hex="0027"/>
  <outline>
    <contour>
      <point x="0" y="580" type="line"/>
      <point x="0" y="690" type="line"/>
      <point x="180" y="690" type="line"/>
      <point x="180" y="580" type="line"/>
      <point x="170" y="450" type="line"/>
      <point x="10" y="450" type="line"/>
    </contour>
  </outline>
</glyph>
<glyph name="parenleft" format="2">
  <advance width="241"/>
  <unicode hex="0028"/>
  <outline>
    <contour>
      <point x="40" y="230" type="curve" smooth="yes"/>
      <point x="40" y="355"/>
      <point x="64" y="471"/>
      <point x="130" y="616" type="curve" smooth="yes"/>
      <point x="139" y="637"/>
      <point x="150" y="658"/>
      <point x="161" y="680" type="curve"/>
      <point x="201" y="680" type="line"/>
      <point x="194" y="661"/>
      <point x="187" y="642"/>
      <point x="181" y="623" type="curve" smooth="yes"/>
      <point x="138" y="491"/>
      <point x="120" y="359"/>
      <point x="120" y="230" type="curve" smooth="yes"/>
      <point x="120" y="89"/>
      <point x="151" y="-45"/>
      <point x="201" y="-180" type="curve"/>
      <point x="184" y="-180"/>
      <point x="167" y="-180"/>
      <point x="150" y="-180" type="curve"/>
      <point x="127" y="-125" type="line" smooth="yes"/>
      <point x="82" y="-14"/>
      <point x="40" y="109"/>
    </contour>
  </outline>
</glyph>
<glyph name="parenright" format="2">
  <advance width="340"/>
  <unicode hex="0029"/>
  <outline>
    <contour>
      <point x="39" y="-180" type="line"/>
      <point x="89" y="-45"/>
      <point x="120" y="89"/>
      <point x="120" y="230" type="curve" smooth="yes"/>
      <point x="120" y="359"/>
      <point x="102" y="491"/>
      <point x="59" y="623" type="curve" smooth="yes"/>
      <point x="53" y="642"/>
      <point x="46" y="661"/>
      <point x="39" y="680" type="curve"/>
      <point x="179" y="680" type="line"/>
      <point x="190" y="658"/>
      <point x="201" y="637"/>
      <point x="210" y="616" type="curve" smooth="yes"/>
      <point x="276" y="471"/>
      <point x="300" y="355"/>
      <point x="300" y="230" type="curve" smooth="yes"/>
      <point x="300" y="109"/>
      <point x="259" y="-14"/>
      <point x="213" y="-125" type="curve" smooth="yes"/>
      <point x="190" y="-180" type="line"/>
    </contour>
  </outline>
</glyph>
<glyph name="asterisk" format="2">
  <advance width="550"/>
  <unicode hex="002A"/>
  <outline>
    <contour>
      <point x="50" y="200" type="line"/>
      <point x="50" y="280" type="line"/>
      <point x="178" y="280" type="line"/>
      <point x="88" y="371" type="line"/>
      <point x="144" y="427" type="line"/>
      <point x="235" y="337" type="line"/>
      <point x="235" y="465" type="line"/>
      <point x="315" y="465" type="line"/>
      <point x="315" y="337" type="line"/>
      <point x="406" y="427" type="line"/>
      <point x="462" y="371" type="line"/>
      <point x="372" y="280" type="line"/>
      <point x="500" y="280" type="line"/>
      <point x="500" y="200" type="line"/>
      <point x="372" y="200" type="line"/>
      <point x="462" y="109" type="line"/>
      <point x="406" y="53" type="line"/>
      <point x="315" y="143" type="line"/>
      <point x="315" y="15" type="line"/>
      <point x="235" y="15" type="line"/>
      <point x="235" y="143" type="line"/>
      <point x="144" y="53" type="line"/>
      <point x="88" y="109" type="line"/>
      <point x="178" y="200" type="line"/>
    </contour>
  </outline>
</glyph>
<glyph name="plus" format="2">
  <advance width="512"/>
  <unicode hex="002B"/>
  <outline>
    <contour>
      <point x="40" y="235" type="line"/>
      <point x="472" y="235" type="line"/>
      <point x="472" y="375" type="line"/>
      <point x="40" y="375" type="line"/>
    </contour>
    <contour>
      <point x="186" y="89" type="line"/>
      <point x="326" y="89" type="line"/>
      <point x="326" y="521" type="line"/>
      <point x="186" y="521" type="line"/>
    </contour>
  </outline>
</glyph>
<glyph name="comma" format="2">
  <advance width="180"/>
  <unicode hex="002C"/>
  <outline>
    <contour>
      <point x="50" y="0" type="line"/>
      <point x="50" y="80" type="line"/>
      <point x="130" y="80" type="line"/>
      <point x="130" y="0" type="line"/>
      <point x="84" y="-130" type="line"/>
      <point x="50" y="-130" type="line"/>
      <point x="72" y="0" type="line"/>
    </contour>
  </outline>
</glyph>
<glyph name="hyphen" format="2">
  <advance width="442"/>
  <unicode hex="002D"/>
  <outline>
    <contour>
      <point x="40" y="163" type="line"/>
      <point x="40" y="323" type="line"/>
      <point x="402" y="323" type="line"/>
      <point x="402" y="163" type="line"/>
    </contour>
  </outline>
</glyph>
<glyph name="period" format="2">
  <advance width="240"/>
  <unicode hex="002E"/>
  <outline>
    <contour>
      <point x="40" y="0" type="line"/>
      <point x="40" y="160" type="line"/>
      <point x="200" y="160" type="line"/>
      <point x="200" y="0" type="line"/>
    </contour>
  </outline>
</glyph>
<glyph name="slash" format="2">
  <advance width="419"/>
  <unicode hex="002F"/>
  <outline>
    <contour>
      <point x="30" y="0" type="line"/>
      <point x="301" y="700" type="line"/>
      <point x="388" y="700" type="line"/>
      <point x="121" y="0" type="line"/>
    </contour>
  </outline>
</glyph>
<glyph name="zero" format="2">
  <advance width="540"/>
  <unicode hex="0030"/>
  <outline>
    <contour>
      <point x="40" y="350" type="curve" smooth="yes"/>
      <point x="40" y="560"/>
      <point x="80" y="710"/>
      <point x="270" y="710" type="curve" smooth="yes"/>
      <point x="460" y="710"/>
      <point x="500" y="560"/>
      <point x="500" y="350" type="curve" smooth="yes"/>
      <point x="500" y="140"/>
      <point x="460" y="-10"/>
      <point x="270" y="-10" type="curve" smooth="yes"/>
      <point x="80" y="-10"/>
      <point x="40" y="140"/>
    </contour>
    <contour>
      <point x="130" y="350" type="curve" smooth="yes"/>
      <point x="130" y="200"/>
      <point x="130" y="70"/>
      <point x="270" y="70" type="curve" smooth="yes"/>
      <point x="410" y="70"/>
      <point x="410" y="200"/>
      <point x="410" y="350" type="curve" smooth="yes"/>
      <point x="410" y="500"/>
      <point x="410" y="630"/>
      <point x="270" y="630" type="curve" smooth="yes"/>
      <point x="130" y="630"/>
      <point x="130" y="500"/>
    </contour>
  </outline>
</glyph>
<glyph name="one" format="2">
  <advance width="327"/>
  <unicode hex="0031"/>
  <outline>
    <contour>
      <point x="50" y="567" type="curve"/>
      <point x="50" y="634" type="line"/>
      <point x="156" y="634"/>
      <point x="210" y="666"/>
      <point x="248" y="700" type="curve"/>
      <point x="277" y="700" type="line"/>
      <point x="277" y="0" type="line"/>
      <point x="187" y="0" type="line"/>
      <point x="187" y="530" type="line" smooth="yes"/>
      <point x="187" y="550"/>
      <point x="187" y="569"/>
      <point x="187" y="589" type="curve"/>
      <point x="164" y="582"/>
      <point x="119" y="567"/>
    </contour>
  </outline>
</glyph>
<glyph name="two" format="2">
  <advance width="573"/>
  <unicode hex="0032"/>
  <outline>
    <contour>
      <point x="58" y="0" type="line"/>
      <point x="534" y="0" type="line"/>
      <point x="534" y="160" type="line"/>
      <point x="160" y="160" type="line"/>
      <point x="228" y="80" type="line"/>
      <point x="322" y="179"/>
      <point x="542" y="307"/>
      <point x="542" y="482" type="curve" smooth="yes"/>
      <point x="542" y="611"/>
      <point x="440" y="696"/>
      <point x="289" y="696" type="curve" smooth="yes"/>
      <point x="136" y="696"/>
      <point x="36" y="605"/>
      <point x="36" y="467" type="curve"/>
      <point x="216" y="467" type="line"/>
      <point x="218" y="513"/>
      <point x="246" y="546"/>
      <point x="290" y="546" type="curve" smooth="yes"/>
      <point x="326" y="546"/>
      <point x="362" y="525"/>
      <point x="362" y="476" type="curve" smooth="yes"/>
      <point x="362" y="374"/>
      <point x="152" y="243"/>
      <point x="58" y="135" type="curve"/>
    </contour>
  </outline>
</glyph>
<glyph name="three" format="2">
  <advance width="594"/>
  <unicode hex="0033"/>
  <outline>
    <contour>
      <point x="34" y="180" type="line"/>
      <point x="34" y="63"/>
      <point x="154" y="-16"/>
      <point x="300" y="-16" type="curve" smooth="yes"/>
      <point x="435" y="-16"/>
      <point x="564" y="49"/>
      <point x="564" y="189" type="curve" smooth="yes"/>
      <point x="564" y="295"/>
      <point x="510" y="349"/>
      <point x="406" y="378" type="curve"/>
      <point x="434" y="336" type="line"/>
      <point x="514" y="366"/>
      <point x="544" y="428"/>
      <point x="544" y="501" type="curve" smooth="yes"/>
      <point x="544" y="621"/>
      <point x="445" y="696"/>
      <point x="296" y="696" type="curve" smooth="yes"/>
      <point x="144" y="696"/>
      <point x="34" y="615"/>
      <point x="34" y="491" type="curve"/>
      <point x="214" y="491" type="line"/>
      <point x="214" y="518"/>
      <point x="233" y="546"/>
      <point x="287" y="546" type="curve" smooth="yes"/>
      <point x="333" y="546"/>
      <point x="364" y="526"/>
      <point x="364" y="481" type="curve" smooth="yes"/>
      <point x="364" y="454"/>
      <point x="352" y="412"/>
      <point x="256" y="412" type="curve" smooth="yes"/>
      <point x="223" y="412" type="line"/>
      <point x="223" y="262" type="line"/>
      <point x="286" y="262" type="line" smooth="yes"/>
      <point x="367" y="262"/>
      <point x="384" y="231"/>
      <point x="384" y="197" type="curve" smooth="yes"/>
      <point x="384" y="157"/>
      <point x="345" y="134"/>
      <point x="297" y="134" type="curve" smooth="yes"/>
      <point x="247" y="134"/>
      <point x="214" y="158"/>
      <point x="214" y="180" type="curve"/>
    </contour>
  </outline>
</glyph>
<glyph name="four" format="2">
  <advance width="521"/>
  <unicode hex="0034"/>
  <guideline x="360" y="620" angle="239.059"/>
  <outline>
    <contour>
      <point x="50" y="173" type="line"/>
      <point x="50" y="253" type="line"/>
      <point x="318" y="700" type="line"/>
      <point x="460" y="700" type="line"/>
      <point x="460" y="0" type="line"/>
      <point x="370" y="0" type="line"/>
      <point x="370" y="669" type="line"/>
      <point x="389" y="669" type="line"/>
      <point x="105" y="195" type="line"/>
      <point x="105" y="253" type="line"/>
      <point x="520" y="253" type="line"/>
      <point x="520" y="173" type="line"/>
    </contour>
  </outline>
</glyph>
<glyph name="five" format="2">
  <advance width="593"/>
  <unicode hex="0035"/>
  <outline>
    <contour>
      <point x="53" y="212" type="line"/>
      <point x="69" y="47"/>
      <point x="183" y="-16"/>
      <point x="311" y="-16" type="curve" smooth="yes"/>
      <point x="458" y="-16"/>
      <point x="563" y="82"/>
      <point x="563" y="229" type="curve" smooth="yes"/>
      <point x="563" y="372"/>
      <point x="468" y="466"/>
      <point x="325" y="466" type="curve" smooth="yes"/>
      <point x="240" y="466"/>
      <point x="167" y="426"/>
      <point x="129" y="351" type="curve"/>
      <point x="236" y="351" type="line"/>
      <point x="236" y="545" type="line"/>
      <point x="221" y="530" type="line"/>
      <point x="502" y="530" type="line"/>
      <point x="502" y="680" type="line"/>
      <point x="56" y="680" type="line"/>
      <point x="56" y="271" type="line"/>
      <point x="235" y="271" type="line"/>
      <point x="245" y="290"/>
      <point x="267" y="306"/>
      <point x="301" y="306" type="curve" smooth="yes"/>
      <point x="348" y="306"/>
      <point x="379" y="274"/>
      <point x="379" y="225" type="curve" smooth="yes"/>
      <point x="379" y="170"/>
      <point x="348" y="134"/>
      <point x="302" y="134" type="curve" smooth="yes"/>
      <point x="257" y="134"/>
      <point x="233" y="158"/>
      <point x="223" y="212" type="curve"/>
    </contour>
  </outline>
</glyph>
<glyph name="six" format="2">
  <advance width="528"/>
  <unicode hex="0036"/>
  <outline>
    <contour>
      <point x="262" y="70" type="curve" smooth="yes"/>
      <point x="356" y="70"/>
      <point x="400" y="144"/>
      <point x="400" y="230" type="curve" smooth="yes"/>
      <point x="400" y="354"/>
      <point x="319" y="380"/>
      <point x="271" y="380" type="curve" smooth="yes"/>
      <point x="207" y="380"/>
      <point x="123" y="352"/>
      <point x="123" y="232" type="curve" smooth="yes"/>
      <point x="123" y="146"/>
      <point x="159" y="70"/>
    </contour>
    <contour>
      <point x="36" y="276" type="curve" smooth="yes"/>
      <point x="36" y="515"/>
      <point x="86" y="710"/>
      <point x="266" y="710" type="curve" smooth="yes"/>
      <point x="377" y="710"/>
      <point x="437" y="658"/>
      <point x="467" y="573" type="curve"/>
      <point x="376" y="573" type="line"/>
      <point x="356" y="609"/>
      <point x="342" y="630"/>
      <point x="264" y="630" type="curve" smooth="yes"/>
      <point x="174" y="630"/>
      <point x="139" y="563"/>
      <point x="123" y="363" type="curve"/>
      <point x="126" y="363" type="line"/>
      <point x="152" y="416"/>
      <point x="205" y="453"/>
      <point x="275" y="453" type="curve" smooth="yes"/>
      <point x="393" y="453"/>
      <point x="489" y="372"/>
      <point x="489" y="223" type="curve" smooth="yes"/>
      <point x="489" y="81"/>
      <point x="395" y="-10"/>
      <point x="266" y="-10" type="curve" smooth="yes"/>
      <point x="118" y="-10"/>
      <point x="36" y="93"/>
    </contour>
  </outline>
</glyph>
<glyph name="seven" format="2">
  <advance width="481"/>
  <unicode hex="0037"/>
  <outline>
    <contour>
      <point x="10" y="520" type="line"/>
      <point x="471" y="520" type="line"/>
      <point x="471" y="680" type="line"/>
      <point x="10" y="680" type="line"/>
    </contour>
    <contour>
      <point x="91" y="0" type="curve"/>
      <point x="271" y="0" type="line"/>
      <point x="271" y="233"/>
      <point x="350" y="355"/>
      <point x="471" y="520" type="curve"/>
      <point x="471" y="543" type="line"/>
      <point x="308" y="543" type="line"/>
      <point x="218" y="469"/>
      <point x="91" y="304"/>
    </contour>
  </outline>
</glyph>
<glyph name="eight" format="2">
  <advance width="604"/>
  <unicode hex="0038"/>
  <outline>
    <contour>
      <point x="30" y="184" type="curve" smooth="yes"/>
      <point x="30" y="65"/>
      <point x="139" y="-16"/>
      <point x="300" y="-16" type="curve" smooth="yes"/>
      <point x="464" y="-16"/>
      <point x="574" y="64"/>
      <point x="574" y="184" type="curve" smooth="yes"/>
      <point x="574" y="278"/>
      <point x="533" y="328"/>
      <point x="475" y="356" type="curve"/>
      <point x="474" y="344" type="line"/>
      <point x="533" y="367"/>
      <point x="561" y="416"/>
      <point x="561" y="495" type="curve" smooth="yes"/>
      <point x="561" y="613"/>
      <point x="457" y="696"/>
      <point x="300" y="696" type="curve" smooth="yes"/>
      <point x="144" y="696"/>
      <point x="40" y="613"/>
      <point x="40" y="495" type="curve" smooth="yes"/>
      <point x="40" y="417"/>
      <point x="65" y="368"/>
      <point x="117" y="343" type="curve"/>
      <point x="117" y="358" type="line"/>
      <point x="60" y="320"/>
      <point x="30" y="278"/>
    </contour>
    <contour>
      <point x="210" y="202" type="curve" smooth="yes"/>
      <point x="210" y="244"/>
      <point x="245" y="276"/>
      <point x="298" y="276" type="curve" smooth="yes"/>
      <point x="363" y="276"/>
      <point x="394" y="248"/>
      <point x="394" y="202" type="curve" smooth="yes"/>
      <point x="394" y="161"/>
      <point x="368" y="134"/>
      <point x="298" y="134" type="curve" smooth="yes"/>
      <point x="236" y="134"/>
      <point x="210" y="161"/>
    </contour>
    <contour>
      <point x="220" y="483" type="curve" smooth="yes"/>
      <point x="220" y="525"/>
      <point x="254" y="546"/>
      <point x="300" y="546" type="curve" smooth="yes"/>
      <point x="351" y="546"/>
      <point x="381" y="525"/>
      <point x="381" y="483" type="curve" smooth="yes"/>
      <point x="381" y="441"/>
      <point x="339" y="426"/>
      <point x="300" y="426" type="curve" smooth="yes"/>
      <point x="259" y="426"/>
      <point x="220" y="441"/>
    </contour>
  </outline>
</glyph>
<glyph name="nine" format="2">
  <advance width="528"/>
  <unicode hex="0039"/>
  <outline>
    <contour>
      <point x="277" y="566" type="curve" smooth="yes"/>
      <point x="238" y="566"/>
      <point x="216" y="521"/>
      <point x="216" y="470" type="curve" smooth="yes"/>
      <point x="216" y="441"/>
      <point x="239" y="397"/>
      <point x="270" y="397" type="curve" smooth="yes"/>
      <point x="305" y="397"/>
      <point x="339" y="415"/>
      <point x="339" y="468" type="curve" smooth="yes"/>
      <point x="339" y="524"/>
      <point x="319" y="566"/>
    </contour>
    <contour>
      <point x="519" y="424" type="curve" smooth="yes"/>
      <point x="519" y="122"/>
      <point x="437" y="-16"/>
      <point x="270" y="-16" type="curve" smooth="yes"/>
      <point x="140" y="-16"/>
      <point x="79" y="69"/>
      <point x="61" y="177" type="curve"/>
      <point x="231" y="177" type="line"/>
      <point x="236" y="151"/>
      <point x="260" y="134"/>
      <point x="274" y="134" type="curve" smooth="yes"/>
      <point x="312" y="134"/>
      <point x="327" y="182"/>
      <point x="335" y="299" type="curve"/>
      <point x="332" y="299" type="line"/>
      <point x="307" y="264"/>
      <point x="266" y="247"/>
      <point x="210" y="247" type="curve" smooth="yes"/>
      <point x="115" y="247"/>
      <point x="36" y="328"/>
      <point x="36" y="477" type="curve" smooth="yes"/>
      <point x="36" y="619"/>
      <point x="140" y="716"/>
      <point x="274" y="716" type="curve" smooth="yes"/>
      <point x="417" y="716"/>
      <point x="519" y="607"/>
    </contour>
  </outline>
</glyph>
<glyph name="colon" format="2">
  <advance width="180"/>
  <unicode hex="003A"/>
  <outline>
    <component base="period"/>
    <contour>
      <point x="50" y="370" type="line"/>
      <point x="50" y="450" type="line"/>
      <point x="130" y="450" type="line"/>
      <point x="130" y="370" type="line"/>
    </contour>
  </outline>
</glyph>
<glyph name="semicolon" format="2">
  <advance width="220"/>
  <unicode hex="003B"/>
  <outline>
    <contour>
      <point x="30" y="-110" type="line"/>
      <point x="144" y="-110" type="line"/>
      <point x="190" y="20" type="line"/>
      <point x="190" y="180" type="line"/>
      <point x="30" y="180" type="line"/>
      <point x="30" y="20" type="line"/>
      <point x="52" y="20" type="line"/>
    </contour>
    <contour>
      <point x="30" y="370" type="line"/>
      <point x="190" y="370" type="line"/>
      <point x="190" y="530" type="line"/>
      <point x="30" y="530" type="line"/>
    </contour>
  </outline>
</glyph>
<glyph name="less" format="2">
  <advance width="514"/>
  <unicode hex="003C"/>
  <outline>
    <contour>
      <point x="34" y="240" type="line"/>
      <point x="466" y="40" type="line"/>
      <point x="466" y="200" type="line"/>
      <point x="97" y="371" type="line"/>
      <point x="97" y="241" type="line"/>
      <point x="466" y="410" type="line"/>
      <point x="466" y="570" type="line"/>
      <point x="34" y="370" type="line"/>
    </contour>
  </outline>
</glyph>
<glyph name="equal" format="2">
  <advance width="450"/>
  <unicode hex="003D"/>
  <outline>
    <contour>
      <point x="50" y="130" type="line"/>
      <point x="50" y="195" type="line"/>
      <point x="400" y="195" type="line"/>
      <point x="400" y="130" type="line"/>
    </contour>
    <contour>
      <point x="50" y="285" type="line"/>
      <point x="50" y="350" type="line"/>
      <point x="400" y="350" type="line"/>
      <point x="400" y="285" type="line"/>
    </contour>
  </outline>
</glyph>
<glyph name="greater" format="2">
  <advance width="514"/>
  <unicode hex="003E"/>
  <outline>
    <contour>
      <point x="34" y="70" type="line"/>
      <point x="34" y="212" type="line"/>
      <point x="403" y="381" type="line"/>
      <point x="403" y="291" type="line"/>
      <point x="34" y="460" type="line"/>
      <point x="34" y="600" type="line"/>
      <point x="468" y="400" type="line"/>
      <point x="468" y="270" type="line"/>
    </contour>
  </outline>
</glyph>
<glyph name="question" format="2">
  <advance width="557"/>
  <unicode hex="003F"/>
  <outline>
    <contour>
      <point x="40" y="480" type="curve"/>
      <point x="224" y="480" type="line"/>
      <point x="229.355" y="530.34"/>
      <point x="245.364" y="550"/>
      <point x="281" y="550" type="curve" smooth="yes"/>
      <point x="310" y="550"/>
      <point x="333" y="527"/>
      <point x="333" y="498" type="curve" smooth="yes"/>
      <point x="333" y="399"/>
      <point x="181" y="419.679"/>
      <point x="181" y="245.679" type="curve" smooth="yes"/>
      <point x="181" y="210" type="line"/>
      <point x="365" y="210" type="line"/>
      <point x="365" y="264.263" type="line" smooth="yes"/>
      <point x="365" y="345.573"/>
      <point x="517" y="380"/>
      <point x="517" y="509" type="curve" smooth="yes"/>
      <point x="517" y="638.712"/>
      <point x="432.011" y="710"/>
      <point x="277.37" y="710" type="curve" smooth="yes"/>
      <point x="136.742" y="710"/>
      <point x="40" y="616.262"/>
    </contour>
    <contour>
      <point x="181" y="0" type="line"/>
      <point x="365" y="0" type="line"/>
      <point x="365" y="160" type="line"/>
      <point x="181" y="160" type="line"/>
    </contour>
  </outline>
  <guideline angle="90" x="181" y="0"/>
  <guideline angle="90" x="341" y="0"/>
</glyph>
<glyph name="at" format="2">
  <advance width="1020"/>
  <unicode hex="0040"/>
  <outline>
    <contour>
      <point x="396" y="289" type="curve" smooth="yes"/>
      <point x="396" y="266"/>
      <point x="401" y="244"/>
      <point x="412" y="235" type="curve" smooth="yes"/>
      <point x="425" y="224"/>
      <point x="442" y="219"/>
      <point x="459" y="219" type="curve" smooth="yes"/>
      <point x="498" y="219"/>
      <point x="538" y="242"/>
      <point x="545" y="261" type="curve" smooth="yes"/>
      <point x="573" y="339" type="line" smooth="yes"/>
      <point x="578" y="353"/>
      <point x="581" y="366"/>
      <point x="581" y="378" type="curve" smooth="yes"/>
      <point x="581" y="411"/>
      <point x="561" y="436"/>
      <point x="515" y="436" type="curve" smooth="yes"/>
      <point x="472" y="436"/>
      <point x="439" y="408"/>
      <point x="408" y="349" type="curve" smooth="yes"/>
      <point x="400" y="334"/>
      <point x="396" y="311"/>
    </contour>
    <contour>
      <point x="181" y="312" type="curve" smooth="yes"/>
      <point x="181" y="543"/>
      <point x="360" y="648"/>
      <point x="508" y="648" type="curve" smooth="yes"/>
      <point x="651" y="648"/>
      <point x="839" y="579"/>
      <point x="839" y="367" type="curve" smooth="yes"/>
      <point x="839" y="248"/>
      <point x="773" y="175"/>
      <point x="697" y="143" type="curve" smooth="yes"/>
      <point x="673" y="133"/>
      <point x="650" y="128"/>
      <point x="631" y="128" type="curve" smooth="yes"/>
      <point x="581" y="128"/>
      <point x="548" y="158"/>
      <point x="548" y="203" type="curve" smooth="yes"/>
      <point x="548" y="207"/>
      <point x="549" y="211"/>
      <point x="549" y="216" type="curve"/>
      <point x="522" y="191"/>
      <point x="469" y="158"/>
      <point x="420" y="158" type="curve" smooth="yes"/>
      <point x="393" y="158"/>
      <point x="367" y="168"/>
      <point x="348" y="195" type="curve" smooth="yes"/>
      <point x="332" y="217"/>
      <point x="325" y="246"/>
      <point x="325" y="276" type="curve" smooth="yes"/>
      <point x="325" y="302"/>
      <point x="331" y="330"/>
      <point x="340" y="355" type="curve" smooth="yes"/>
      <point x="371" y="439"/>
      <point x="439" y="491"/>
      <point x="522" y="491" type="curve" smooth="yes"/>
      <point x="575" y="491"/>
      <point x="602" y="458"/>
      <point x="602" y="426" type="curve" smooth="yes"/>
      <point x="602" y="421" type="line"/>
      <point x="617" y="465" type="line"/>
      <point x="677" y="465" type="line"/>
      <point x="612" y="283" type="line" smooth="yes"/>
      <point x="606" y="265"/>
      <point x="600" y="243"/>
      <point x="600" y="224" type="curve" smooth="yes"/>
      <point x="600" y="199"/>
      <point x="610" y="179"/>
      <point x="643" y="179" type="curve" smooth="yes"/>
      <point x="660" y="179"/>
      <point x="681" y="185"/>
      <point x="699" y="193" type="curve" smooth="yes"/>
      <point x="756" y="216"/>
      <point x="775" y="304"/>
      <point x="775" y="366" type="curve" smooth="yes"/>
      <point x="775" y="546"/>
      <point x="594" y="580"/>
      <point x="508" y="580" type="curve" smooth="yes"/>
      <point x="404" y="580"/>
      <point x="253" y="502"/>
      <point x="253" y="313" type="curve" smooth="yes"/>
      <point x="253" y="173"/>
      <point x="357" y="57"/>
      <point x="514" y="57" type="curve" smooth="yes"/>
      <point x="566" y="57"/>
      <point x="609" y="68"/>
      <point x="663" y="96" type="curve"/>
      <point x="663" y="44" type="line"/>
      <point x="614" y="15"/>
      <point x="554" y="-2"/>
      <point x="485" y="-2" type="curve" smooth="yes"/>
      <point x="313" y="-2"/>
      <point x="181" y="136"/>
    </contour>
  </outline>
</glyph>
<glyph name="A" format="2">
  <advance width="650"/>
  <unicode hex="0041"/>
  <anchor x="325" y="740" name="top"/>
  <outline>
    <contour>
      <point x="160" y="295" type="line"/>
      <point x="493" y="295" type="line"/>
      <point x="493" y="115" type="line"/>
      <point x="160" y="115" type="line"/>
    </contour>
    <contour>
      <point x="190" y="0" type="line"/>
      <point x="10" y="0" type="line"/>
      <point x="218" y="680" type="line"/>
      <point x="430" y="680" type="line"/>
      <point x="640" y="0" type="line"/>
      <point x="460" y="0" type="line"/>
      <point x="266" y="634" type="line"/>
      <point x="384" y="634" type="line"/>
    </contour>
  </outline>
  <guideline angle="287" x="266" y="634"/>
  <guideline angle="90" x="325" y="0"/>
  <guideline angle="73" x="10" y="0"/>
  <guideline angle="253" x="384" y="634"/>
  <guideline angle="287" x="430" y="680"/>
</glyph>
<glyph name="B" format="2">
  <advance width="570"/>
  <unicode hex="0042"/>
  <outline>
    <contour>
      <point x="50" y="0" type="line"/>
      <point x="230" y="0" type="line"/>
      <point x="230" y="680" type="line"/>
      <point x="50" y="680" type="line"/>
    </contour>
    <contour>
      <point x="120" y="0" type="line"/>
      <point x="325" y="0" type="line" smooth="yes"/>
      <point x="465" y="0"/>
      <point x="540" y="67"/>
      <point x="540" y="193" type="curve" smooth="yes"/>
      <point x="540" y="295"/>
      <point x="487" y="358"/>
      <point x="386" y="376" type="curve"/>
      <point x="436" y="327" type="line"/>
      <point x="436" y="396" type="line"/>
      <point x="386" y="349" type="line"/>
      <point x="479" y="370"/>
      <point x="520" y="442"/>
      <point x="520" y="500" type="curve" smooth="yes"/>
      <point x="520" y="625"/>
      <point x="450" y="680"/>
      <point x="287" y="680" type="curve" smooth="yes"/>
      <point x="120" y="680" type="line"/>
      <point x="120" y="520" type="line"/>
      <point x="299" y="520" type="line" smooth="yes"/>
      <point x="332" y="520"/>
      <point x="340" y="495"/>
      <point x="340" y="474" type="curve" smooth="yes"/>
      <point x="340" y="447"/>
      <point x="322" y="427"/>
      <point x="299" y="427" type="curve" smooth="yes"/>
      <point x="120" y="427" type="line"/>
      <point x="120" y="267" type="line"/>
      <point x="286" y="267" type="line" smooth="yes"/>
      <point x="336" y="267"/>
      <point x="360" y="251"/>
      <point x="360" y="215" type="curve" smooth="yes"/>
      <point x="360" y="181"/>
      <point x="331" y="160"/>
      <point x="286" y="160" type="curve" smooth="yes"/>
      <point x="120" y="160" type="line"/>
    </contour>
  </outline>
</glyph>
<glyph name="C" format="2">
  <advance width="674"/>
  <unicode hex="0043"/>
  <anchor x="340" y="740" name="top"/>
  <anchor x="340" y="-60" name="bottom"/>
  <anchor x="315" y="0" name="b.cedilla"/>
  <outline>
    <contour>
      <point x="30" y="340" type="curve" smooth="yes"/>
      <point x="30" y="123"/>
      <point x="155" y="-16"/>
      <point x="352" y="-16" type="curve" smooth="yes"/>
      <point x="509" y="-16"/>
      <point x="623" y="75"/>
      <point x="644" y="218" type="curve"/>
      <point x="469" y="218" type="line"/>
      <point x="454" y="176"/>
      <point x="403" y="144"/>
      <point x="352" y="144" type="curve" smooth="yes"/>
      <point x="268" y="144"/>
      <point x="214" y="221"/>
      <point x="214" y="340" type="curve" smooth="yes"/>
      <point x="214" y="459"/>
      <point x="268" y="536"/>
      <point x="352" y="536" type="curve" smooth="yes"/>
      <point x="413" y="536"/>
      <point x="459" y="502"/>
      <point x="469" y="450" type="curve"/>
      <point x="644" y="450" type="line"/>
      <point x="624" y="595"/>
      <point x="504" y="696"/>
      <point x="352" y="696" type="curve" smooth="yes"/>
      <point x="155" y="696"/>
      <point x="30" y="557"/>
    </contour>
  </outline>
  <guideline angle="90" name="h_1" x="340" y="0"/>
</glyph>
<glyph name="D" format="2">
  <advance width="640"/>
  <unicode hex="0044"/>
  <anchor x="291" y="740" name="top"/>
  <anchor x="291" y="-50" name="bottom"/>
  <anchor x="257" y="0" name="b.cedilla"/>
  <outline>
    <contour>
      <point x="50" y="0" type="line"/>
      <point x="230" y="0" type="line"/>
      <point x="230" y="680" type="line"/>
      <point x="50" y="680" type="line"/>
    </contour>
    <contour>
      <point x="140" y="0" type="line"/>
      <point x="308" y="0" type="line" smooth="yes"/>
      <point x="499" y="0"/>
      <point x="610" y="113"/>
      <point x="610" y="340" type="curve" smooth="yes"/>
      <point x="610" y="564"/>
      <point x="498" y="680"/>
      <point x="308" y="680" type="curve" smooth="yes"/>
      <point x="140" y="680" type="line"/>
      <point x="140" y="520" type="line"/>
      <point x="308" y="520" type="line" smooth="yes"/>
      <point x="377" y="520"/>
      <point x="430" y="483"/>
      <point x="430" y="340" type="curve" smooth="yes"/>
      <point x="430" y="233"/>
      <point x="375" y="160"/>
      <point x="308" y="160" type="curve" smooth="yes"/>
      <point x="140" y="160" type="line"/>
    </contour>
  </outline>
  <guideline angle="90" name="h_1" x="291" y="0"/>
</glyph>
<glyph name="E" format="2">
  <advance width="510"/>
  <unicode hex="0045"/>
  <anchor x="255" y="740" name="top"/>
  <outline>
    <component base="I"/>
    <contour>
      <point x="110" y="150" type="line"/>
      <point x="460" y="150" type="line"/>
      <point x="460" y="0" type="line"/>
      <point x="110" y="0" type="line"/>
    </contour>
    <contour>
      <point x="110" y="680" type="line"/>
      <point x="460" y="680" type="line"/>
      <point x="460" y="530" type="line"/>
      <point x="110" y="530" type="line"/>
    </contour>
    <contour>
      <point x="110" y="420" type="line"/>
      <point x="420" y="420" type="line"/>
      <point x="420" y="270" type="line"/>
      <point x="110" y="270" type="line"/>
    </contour>
  </outline>
</glyph>
<glyph name="F" format="2">
  <advance width="510"/>
  <unicode hex="0046"/>
  <outline>
    <contour>
      <point x="50" y="0" type="line"/>
      <point x="230" y="0" type="line"/>
      <point x="230" y="680" type="line"/>
      <point x="50" y="680" type="line"/>
    </contour>
    <contour>
      <point x="110" y="520" type="line"/>
      <point x="460" y="520" type="line"/>
      <point x="460" y="680" type="line"/>
      <point x="110" y="680" type="line"/>
    </contour>
    <contour>
      <point x="110" y="265" type="line"/>
      <point x="420" y="265" type="line"/>
      <point x="420" y="425" type="line"/>
      <point x="110" y="425" type="line"/>
    </contour>
  </outline>
</glyph>
<glyph name="G" format="2">
  <advance width="651"/>
  <unicode hex="0047"/>
  <anchor x="322" y="740" name="top"/>
  <anchor x="322" y="-40" name="bottom"/>
  <outline>
    <contour>
      <point x="30" y="342" type="curve" smooth="yes"/>
      <point x="30" y="126"/>
      <point x="149" y="-16"/>
      <point x="324" y="-16" type="curve" smooth="yes"/>
      <point x="406" y="-16"/>
      <point x="468" y="15"/>
      <point x="499" y="74" type="curve"/>
      <point x="448" y="60" type="line"/>
      <point x="491" y="0" type="line"/>
      <point x="611" y="0" type="line"/>
      <point x="611" y="370" type="line"/>
      <point x="351" y="370" type="line"/>
      <point x="351" y="210" type="line"/>
      <point x="431" y="210" type="line"/>
      <point x="431" y="137" type="line"/>
      <point x="485" y="137" type="line"/>
      <point x="485" y="235" type="line"/>
      <point x="465" y="235" type="line"/>
      <point x="454" y="179"/>
      <point x="425" y="144"/>
      <point x="364" y="144" type="curve" smooth="yes"/>
      <point x="272" y="144"/>
      <point x="214" y="222"/>
      <point x="214" y="346" type="curve" smooth="yes"/>
      <point x="214" y="459"/>
      <point x="258" y="536"/>
      <point x="329" y="536" type="curve" smooth="yes"/>
      <point x="372" y="536"/>
      <point x="404" y="508"/>
      <point x="415" y="450" type="curve"/>
      <point x="599" y="450" type="line"/>
      <point x="578" y="600"/>
      <point x="482" y="696"/>
      <point x="330" y="696" type="curve" smooth="yes"/>
      <point x="146" y="696"/>
      <point x="30" y="558"/>
    </contour>
  </outline>
  <guideline angle="90" name="h_1" x="322" y="0"/>
</glyph>
<glyph name="H" format="2">
  <advance width="660"/>
  <unicode hex="0048"/>
  <anchor x="330" y="755" name="top"/>
  <outline>
    <component base="I"/>
    <component base="I" xOffset="380"/>
    <contour>
      <point x="501" y="417" type="line"/>
      <point x="501" y="257" type="line"/>
      <point x="109" y="257" type="line"/>
      <point x="109" y="417" type="line"/>
    </contour>
  </outline>
</glyph>
<glyph name="I" format="2">
  <advance width="280"/>
  <unicode hex="0049"/>
  <anchor x="140" y="740" name="top"/>
  <anchor x="140" y="-40" name="bottom"/>
  <outline>
    <contour>
      <point x="50" y="0" type="line"/>
      <point x="230" y="0" type="line"/>
      <point x="230" y="680" type="line"/>
      <point x="50" y="680" type="line"/>
    </contour>
  </outline>
  <guideline angle="90" x="140" y="0"/>
</glyph>
<glyph name="J" format="2">
  <advance width="378"/>
  <unicode hex="004A"/>
  <outline>
    <contour>
      <point x="50" y="0" type="line"/>
      <point x="103" y="0" type="line" smooth="yes"/>
      <point x="251" y="0"/>
      <point x="328" y="84"/>
      <point x="328" y="244" type="curve" smooth="yes"/>
      <point x="328" y="680" type="line"/>
      <point x="148" y="680" type="line"/>
      <point x="148" y="240" type="line" smooth="yes"/>
      <point x="148" y="176"/>
      <point x="116" y="160"/>
      <point x="76" y="160" type="curve" smooth="yes"/>
      <point x="50" y="160" type="line"/>
    </contour>
  </outline>
</glyph>
<glyph name="K" format="2">
  <advance width="710"/>
  <unicode hex="004B"/>
  <outline>
    <component base="I"/>
    <contour>
      <point x="206" y="107" type="line"/>
      <point x="206" y="365" type="line"/>
      <point x="457" y="680" type="line"/>
      <point x="665" y="680" type="line" name="n05"/>
      <point x="433" y="390" type="line"/>
      <point x="700" y="0" type="line"/>
      <point x="480" y="0" type="line" name="n02"/>
      <point x="318" y="246" type="line"/>
    </contour>
  </outline>
  <guideline angle="303.523" x="271" y="317"/>
  <guideline angle="90" x="206" y="0"/>
  <guideline angle="124.439" x="700" y="0"/>
  <guideline angle="231.451" x="664" y="680"/>
</glyph>
<glyph name="L" format="2">
  <advance width="510"/>
  <unicode hex="004C"/>
  <anchor x="95" y="740" name="top"/>
  <outline>
    <component base="I"/>
    <contour>
      <point x="190" y="160" type="line"/>
      <point x="500" y="160" type="line"/>
      <point x="500" y="0" type="line"/>
      <point x="190" y="0" type="line"/>
    </contour>
  </outline>
</glyph>
<glyph name="M" format="2">
  <advance width="890"/>
  <unicode hex="004D"/>
  <anchor x="445" y="740" name="top"/>
  <anchor x="445" y="-40" name="bottom"/>
  <outline>
    <contour>
      <point x="50" y="0" type="line"/>
      <point x="230" y="0" type="line"/>
      <point x="230" y="680" type="line"/>
      <point x="50" y="680" type="line"/>
    </contour>
    <contour>
      <point x="70" y="680" type="line"/>
      <point x="338" y="0" type="line"/>
      <point x="494" y="0" type="line"/>
      <point x="494" y="30"/>
      <point x="437" y="239"/>
      <point x="396" y="335" type="curve" smooth="yes"/>
      <point x="250" y="680" type="line"/>
    </contour>
    <contour>
      <point x="396" y="0" type="curve"/>
      <point x="550" y="0" type="line"/>
      <point x="820" y="680" type="line"/>
      <point x="640" y="680" type="line"/>
      <point x="494" y="335" type="line" smooth="yes"/>
      <point x="453" y="239"/>
      <point x="396" y="30"/>
    </contour>
    <contour>
      <point x="660" y="0" type="line"/>
      <point x="840" y="0" type="line"/>
      <point x="840" y="680" type="line"/>
      <point x="660" y="680" type="line"/>
    </contour>
  </outline>
  <guideline angle="90" x="445" y="0"/>
  <guideline angle="90" name="h_1" x="445" y="0"/>
  <guideline angle="0" x="0" y="335"/>
  <guideline angle="67.0625" x="494" y="335"/>
  <guideline angle="111.51" x="338" y="0"/>
  <guideline angle="248.344" x="820" y="680"/>
</glyph>
<glyph name="N" format="2">
  <advance width="714"/>
  <unicode hex="004E"/>
  <outline>
    <contour>
      <point x="50" y="0" type="line"/>
      <point x="230" y="0" type="line"/>
      <point x="230" y="320" type="line" smooth="yes"/>
      <point x="230" y="341"/>
      <point x="230" y="369"/>
      <point x="226" y="400" type="curve"/>
      <point x="220" y="400" type="line"/>
      <point x="464" y="0" type="line"/>
      <point x="664" y="0" type="line"/>
      <point x="664" y="680" type="line"/>
      <point x="484" y="680" type="line"/>
      <point x="484" y="360" type="line" smooth="yes"/>
      <point x="484" y="339"/>
      <point x="484" y="311"/>
      <point x="488" y="280" type="curve"/>
      <point x="494" y="280" type="line"/>
      <point x="250" y="680" type="line"/>
      <point x="50" y="680" type="line"/>
    </contour>
  </outline>
</glyph>
<glyph name="O" format="2">
  <advance width="704"/>
  <unicode hex="004F"/>
  <anchor x="354" y="740" name="top"/>
  <anchor x="352" y="-40" name="bottom"/>
  <anchor x="492" y="0" name="b.ogonek"/>
  <outline>
    <contour>
      <point x="30" y="340" type="curve" smooth="yes"/>
      <point x="30" y="123"/>
      <point x="155" y="-16"/>
      <point x="352" y="-16" type="curve" smooth="yes"/>
      <point x="549" y="-16"/>
      <point x="674" y="123"/>
      <point x="674" y="340" type="curve" smooth="yes"/>
      <point x="674" y="557"/>
      <point x="549" y="696"/>
      <point x="352" y="696" type="curve" smooth="yes"/>
      <point x="155" y="696"/>
      <point x="30" y="557"/>
    </contour>
    <contour>
      <point x="214" y="340" type="curve" smooth="yes"/>
      <point x="214" y="459"/>
      <point x="268" y="536"/>
      <point x="352" y="536" type="curve" smooth="yes"/>
      <point x="436" y="536"/>
      <point x="490" y="459"/>
      <point x="490" y="340" type="curve" smooth="yes"/>
      <point x="490" y="221"/>
      <point x="436" y="144"/>
      <point x="352" y="144" type="curve" smooth="yes"/>
      <point x="268" y="144"/>
      <point x="214" y="221"/>
    </contour>
  </outline>
  <guideline angle="0" x="0" y="740"/>
  <guideline angle="90" x="352" y="0"/>
  <guideline angle="0" x="0" y="340"/>
  <guideline angle="90" x="30" y="0"/>
  <guideline angle="90" x="674" y="0"/>
</glyph>
<glyph name="P" format="2">
  <advance width="560"/>
  <unicode hex="0050"/>
  <anchor x="245" y="-40" name="bottom"/>
  <anchor x="245" y="740" name="top"/>
  <outline>
    <contour>
      <point x="50" y="0" type="line"/>
      <point x="230" y="0" type="line"/>
      <point x="230" y="680" type="line"/>
      <point x="50" y="680" type="line"/>
    </contour>
    <contour>
      <point x="220" y="220" type="line"/>
      <point x="290" y="220" type="line" smooth="yes"/>
      <point x="430" y="220"/>
      <point x="530" y="297"/>
      <point x="530" y="457" type="curve" smooth="yes"/>
      <point x="530" y="617"/>
      <point x="430" y="680"/>
      <point x="290" y="680" type="curve" smooth="yes"/>
      <point x="220" y="680" type="line"/>
      <point x="220" y="520" type="line"/>
      <point x="290" y="520" type="line" smooth="yes"/>
      <point x="330" y="520"/>
      <point x="370" y="501"/>
      <point x="370" y="457" type="curve" smooth="yes"/>
      <point x="370" y="397"/>
      <point x="330" y="380"/>
      <point x="290" y="380" type="curve" smooth="yes"/>
      <point x="220" y="380" type="line"/>
    </contour>
  </outline>
  <guideline angle="90" name="h_1" x="245" y="0"/>
</glyph>
<glyph name="Q" format="2">
  <advance width="696"/>
  <unicode hex="0051"/>
  <outline>
    <component base="O"/>
    <contour>
      <point x="443" y="31" type="line"/>
      <point x="555" y="-81" type="line"/>
      <point x="662" y="23" type="line"/>
      <point x="551" y="134" type="line"/>
    </contour>
    <contour>
      <point x="364" y="110" type="line"/>
      <point x="426" y="48" type="line"/>
      <point x="536" y="149" type="line"/>
      <point x="479" y="206" type="line"/>
    </contour>
  </outline>
  <guideline angle="135" x="595" y="90"/>
  <guideline angle="315" x="433" y="41"/>
  <guideline angle="135" x="662" y="23"/>
  <guideline angle="315" x="443" y="31"/>
</glyph>
<glyph name="R" format="2">
  <advance width="560"/>
  <unicode hex="0052"/>
  <outline>
    <contour>
      <point x="50" y="0" type="line"/>
      <point x="230" y="0" type="line"/>
      <point x="230" y="680" type="line"/>
      <point x="50" y="680" type="line"/>
    </contour>
    <contour>
      <point x="120" y="220" type="line"/>
      <point x="290" y="220" type="line" smooth="yes"/>
      <point x="430" y="220"/>
      <point x="530" y="297"/>
      <point x="530" y="457" type="curve" smooth="yes"/>
      <point x="530" y="617"/>
      <point x="430" y="680"/>
      <point x="290" y="680" type="curve" smooth="yes"/>
      <point x="120" y="680" type="line"/>
      <point x="120" y="520" type="line"/>
      <point x="290" y="520" type="line" smooth="yes"/>
      <point x="330" y="520"/>
      <point x="370" y="501"/>
      <point x="370" y="457" type="curve" smooth="yes"/>
      <point x="370" y="397"/>
      <point x="330" y="380"/>
      <point x="290" y="380" type="curve" smooth="yes"/>
      <point x="120" y="380" type="line"/>
    </contour>
    <contour>
      <point x="219" y="300" type="line"/>
      <point x="340" y="0" type="line"/>
      <point x="530" y="0" type="line"/>
      <point x="393" y="300" type="line"/>
    </contour>
  </outline>
</glyph>
<glyph name="S" format="2">
  <advance width="581"/>
  <unicode hex="0053"/>
  <anchor x="289" y="740" name="top"/>
  <outline>
    <contour>
      <point x="30" y="223" type="curve"/>
      <point x="220" y="223" type="line"/>
      <point x="220" y="183"/>
      <point x="243" y="150"/>
      <point x="290" y="150" type="curve" smooth="yes"/>
      <point x="340" y="150"/>
      <point x="361" y="170"/>
      <point x="361" y="194" type="curve" smooth="yes"/>
      <point x="361" y="222"/>
      <point x="347" y="243"/>
      <point x="325" y="255" type="curve" smooth="yes"/>
      <point x="138" y="358" type="line" smooth="yes"/>
      <point x="84" y="388"/>
      <point x="48" y="430"/>
      <point x="48" y="492" type="curve" smooth="yes"/>
      <point x="48" y="612"/>
      <point x="139" y="690"/>
      <point x="298" y="690" type="curve" smooth="yes"/>
      <point x="442" y="690"/>
      <point x="549" y="590"/>
      <point x="549" y="481" type="curve"/>
      <point x="359" y="481" type="line"/>
      <point x="359" y="506"/>
      <point x="341" y="530"/>
      <point x="289" y="530" type="curve" smooth="yes"/>
      <point x="253" y="530"/>
      <point x="238" y="522"/>
      <point x="238" y="493" type="curve" smooth="yes"/>
      <point x="238" y="479"/>
      <point x="245" y="470"/>
      <point x="273" y="455" type="curve" smooth="yes"/>
      <point x="448" y="360" type="line" smooth="yes"/>
      <point x="515" y="324"/>
      <point x="551" y="274"/>
      <point x="551" y="191" type="curve" smooth="yes"/>
      <point x="551" y="69"/>
      <point x="458" y="-10"/>
      <point x="283" y="-10" type="curve" smooth="yes"/>
      <point x="135" y="-10"/>
      <point x="30" y="91"/>
    </contour>
  </outline>
  <guideline angle="90" x="270" y="0"/>
</glyph>
<glyph name="T" format="2">
  <advance width="480"/>
  <unicode hex="0054"/>
  <anchor x="240" y="740" name="top"/>
  <anchor x="240" y="-50" name="bottom"/>
  <outline>
    <contour>
      <point x="10" y="520" type="line"/>
      <point x="470" y="520" type="line"/>
      <point x="470" y="680" type="line"/>
      <point x="10" y="680" type="line"/>
    </contour>
    <contour>
      <point x="150" y="0" type="line"/>
      <point x="330" y="0" type="line"/>
      <point x="330" y="680" type="line"/>
      <point x="150" y="680" type="line"/>
    </contour>
  </outline>
  <guideline angle="90" name="h_1" x="240" y="0"/>
  <guideline angle="0" x="0" y="520"/>
</glyph>
<glyph name="U" format="2">
  <advance width="640"/>
  <unicode hex="0055"/>
  <anchor x="320" y="740" name="top"/>
  <outline>
    <contour>
      <point x="50" y="270" type="curve" smooth="yes"/>
      <point x="50" y="680" type="line"/>
      <point x="230" y="680" type="line"/>
      <point x="230" y="310" type="line" smooth="yes"/>
      <point x="230" y="211"/>
      <point x="250" y="160"/>
      <point x="320" y="160" type="curve" smooth="yes"/>
      <point x="390" y="160"/>
      <point x="410" y="211"/>
      <point x="410" y="310" type="curve" smooth="yes"/>
      <point x="410" y="680" type="line"/>
      <point x="590" y="680" type="line"/>
      <point x="590" y="270" type="line" smooth="yes"/>
      <point x="590" y="86"/>
      <point x="490" y="-10"/>
      <point x="320" y="-10" type="curve" smooth="yes"/>
      <point x="150" y="-10"/>
      <point x="50" y="86"/>
    </contour>
  </outline>
  <guideline angle="90" x="320" y="0"/>
</glyph>
<glyph name="V" format="2">
  <advance width="650"/>
  <unicode hex="0056"/>
  <outline>
    <contour>
      <point x="10" y="680" type="line"/>
      <point x="190" y="680" type="line"/>
      <point x="296" y="335" type="line" smooth="yes"/>
      <point x="327" y="235"/>
      <point x="354" y="30"/>
      <point x="354" y="0" type="curve"/>
      <point x="218" y="0" type="line"/>
    </contour>
    <contour>
      <point x="460" y="680" type="line"/>
      <point x="640" y="680" type="line"/>
      <point x="430" y="0" type="line"/>
      <point x="296" y="0" type="line"/>
      <point x="296" y="30"/>
      <point x="323" y="235"/>
      <point x="354" y="335" type="curve" smooth="yes"/>
    </contour>
  </outline>
  <guideline angle="90" x="325" y="0"/>
  <guideline angle="0" x="0" y="335"/>
</glyph>
<glyph name="W" format="2">
  <advance width="1100"/>
  <unicode hex="0057"/>
  <anchor x="549" y="740" name="top"/>
  <anchor x="549" y="-40" name="bottom"/>
  <outline>
    <contour>
      <point x="10" y="680" type="line"/>
      <point x="218" y="0" type="line"/>
      <point x="354" y="0" type="line"/>
      <point x="354" y="30"/>
      <point x="327" y="235"/>
      <point x="296" y="335" type="curve" smooth="yes"/>
      <point x="190" y="680" type="line"/>
    </contour>
    <contour>
      <point x="296" y="0" type="curve"/>
      <point x="430" y="0" type="line"/>
      <point x="640" y="680" type="line"/>
      <point x="460" y="680" type="line"/>
      <point x="354" y="335" type="line" smooth="yes"/>
      <point x="323" y="235"/>
      <point x="296" y="30"/>
    </contour>
    <contour>
      <point x="460" y="680" type="line"/>
      <point x="668" y="0" type="line"/>
      <point x="804" y="0" type="line"/>
      <point x="804" y="30"/>
      <point x="777" y="235"/>
      <point x="746" y="335" type="curve" smooth="yes"/>
      <point x="640" y="680" type="line"/>
    </contour>
    <contour>
      <point x="746" y="0" type="curve"/>
      <point x="880" y="0" type="line"/>
      <point x="1090" y="680" type="line"/>
      <point x="910" y="680" type="line"/>
      <point x="804" y="335" type="line" smooth="yes"/>
      <point x="773" y="235"/>
      <point x="746" y="30"/>
    </contour>
  </outline>
  <guideline angle="90" name="h_1" x="549" y="0"/>
</glyph>
<glyph name="X" format="2">
  <advance width="652"/>
  <unicode hex="0058"/>
  <outline>
    <contour>
      <point x="235" y="680" type="line"/>
      <point x="20" y="680" type="line"/>
      <point x="220" y="324" type="line"/>
      <point x="321" y="187" type="line"/>
      <point x="417" y="0" type="line"/>
      <point x="634" y="0" type="line"/>
      <point x="445" y="342" type="line"/>
      <point x="349" y="473" type="line"/>
    </contour>
    <contour>
      <point x="242" y="396" type="line"/>
      <point x="10" y="0" type="line"/>
      <point x="224" y="0" type="line"/>
      <point x="350" y="241" type="line"/>
    </contour>
    <contour>
      <point x="412" y="286" type="line"/>
      <point x="642" y="680" type="line"/>
      <point x="430" y="680" type="line"/>
      <point x="305" y="446" type="line"/>
    </contour>
  </outline>
  <guideline angle="59.6" x="633" y="680"/>
  <guideline angle="120.403" x="409" y="0"/>
  <guideline angle="120.403" x="624" y="0"/>
  <guideline angle="59.6" x="419" y="680"/>
</glyph>
<glyph name="Y" format="2">
  <advance width="594"/>
  <unicode hex="0059"/>
  <outline>
    <contour>
      <point x="-5" y="680" type="line"/>
      <point x="180" y="680" type="line"/>
      <point x="296" y="418" type="line"/>
      <point x="298" y="418" type="line"/>
      <point x="419" y="680" type="line"/>
      <point x="599" y="680" type="line"/>
      <point x="387" y="210" type="line"/>
      <point x="387" y="0" type="line"/>
      <point x="207" y="0" type="line"/>
      <point x="207" y="210" type="line"/>
    </contour>
  </outline>
  <guideline angle="90" x="297" y="0"/>
  <guideline angle="0" x="0" y="680"/>
</glyph>
<glyph name="Z" format="2">
  <advance width="615"/>
  <unicode hex="005A"/>
  <anchor x="320" y="740" name="top"/>
  <anchor x="320" y="-40" name="bottom"/>
  <outline>
    <contour>
      <point x="50" y="0" type="line"/>
      <point x="590" y="0" type="line"/>
      <point x="590" y="160" type="line"/>
      <point x="260" y="160" type="line"/>
      <point x="260" y="70" type="line"/>
      <point x="586" y="600" type="line"/>
      <point x="586" y="680" type="line"/>
      <point x="70" y="680" type="line"/>
      <point x="70" y="520" type="line"/>
      <point x="376" y="520" type="line"/>
      <point x="376" y="610" type="line"/>
      <point x="50" y="80" type="line"/>
    </contour>
  </outline>
  <guideline angle="58.4046" x="50" y="80"/>
  <guideline angle="58.4046" x="266" y="80"/>
  <guideline angle="90" name="h_1" x="320" y="0"/>
</glyph>
<glyph name="bracketleft" format="2">
  <advance width="360"/>
  <unicode hex="005B"/>
  <outline>
    <contour>
      <point x="70" y="780" type="line"/>
      <point x="290" y="780" type="line"/>
      <point x="290" y="720" type="line"/>
      <point x="150" y="720" type="line"/>
      <point x="150" y="-21" type="line"/>
      <point x="290" y="-21" type="line"/>
      <point x="290" y="-81" type="line"/>
      <point x="70" y="-81" type="line"/>
    </contour>
  </outline>
</glyph>
<glyph name="backslash" format="2">
  <advance width="558"/>
  <unicode hex="005C"/>
  <outline>
    <contour>
      <point x="30" y="700" type="line"/>
      <point x="117" y="700" type="line"/>
      <point x="528" y="0" type="line"/>
      <point x="437" y="0" type="line"/>
    </contour>
  </outline>
</glyph>
<glyph name="bracketright" format="2">
  <advance width="470"/>
  <unicode hex="005D"/>
  <outline>
    <contour>
      <point x="70" y="79" type="line"/>
      <point x="210" y="79" type="line"/>
      <point x="210" y="620" type="line"/>
      <point x="70" y="620" type="line"/>
      <point x="70" y="780" type="line"/>
      <point x="400" y="780" type="line"/>
      <point x="400" y="-81" type="line"/>
      <point x="70" y="-81" type="line"/>
    </contour>
  </outline>
</glyph>
<glyph name="asciicircum" format="2">
  <advance width="402"/>
  <unicode hex="005E"/>
  <outline>
    <contour>
      <point x="41" y="400" type="line"/>
      <point x="161" y="680" type="line"/>
      <point x="241" y="680" type="line"/>
      <point x="361" y="400" type="line"/>
      <point x="287" y="400" type="line"/>
      <point x="197" y="628" type="line"/>
      <point x="205" y="628" type="line"/>
      <point x="115" y="400" type="line"/>
    </contour>
  </outline>
</glyph>
<glyph name="grave" format="2">
  <advance width="336"/>
  <unicode hex="0060"/>
  <outline>
    <contour>
      <point x="40" y="700" type="line"/>
      <point x="226" y="700" type="line"/>
      <point x="296" y="490" type="line"/>
      <point x="146" y="490" type="line"/>
    </contour>
  </outline>
</glyph>
<glyph name="a" format="2">
  <advance width="493"/>
  <unicode hex="0061"/>
  <anchor x="240" y="540" name="top"/>
  <outline>
    <contour>
      <point x="342" y="60" type="line"/>
      <point x="362" y="0" type="line"/>
      <point x="422" y="0" type="line"/>
      <point x="422" y="319" type="line" smooth="yes"/>
      <point x="422" y="416"/>
      <point x="358" y="470"/>
      <point x="243" y="470" type="curve" smooth="yes"/>
      <point x="148" y="470"/>
      <point x="77" y="412"/>
      <point x="70" y="330" type="curve"/>
      <point x="150" y="330" type="line"/>
      <point x="154" y="378"/>
      <point x="187" y="405"/>
      <point x="242" y="405" type="curve" smooth="yes"/>
      <point x="298" y="405"/>
      <point x="342" y="372"/>
      <point x="342" y="330" type="curve" smooth="yes"/>
    </contour>
    <contour>
      <point x="350" y="126" type="line"/>
      <point x="317" y="85"/>
      <point x="261" y="60"/>
      <point x="204" y="60" type="curve" smooth="yes"/>
      <point x="155" y="60"/>
      <point x="125" y="83"/>
      <point x="125" y="121" type="curve" smooth="yes"/>
      <point x="125" y="173"/>
      <point x="180" y="213"/>
      <point x="275" y="228" type="curve" smooth="yes"/>
      <point x="357" y="241" type="line"/>
      <point x="357" y="289" type="line"/>
      <point x="271" y="281" type="line" smooth="yes"/>
      <point x="126" y="268"/>
      <point x="45" y="210"/>
      <point x="45" y="123" type="curve" smooth="yes"/>
      <point x="45" y="44"/>
      <point x="101" y="-10"/>
      <point x="182" y="-10" type="curve" smooth="yes"/>
      <point x="250" y="-10"/>
      <point x="311" y="16"/>
      <point x="350" y="61" type="curve"/>
    </contour>
  </outline>
</glyph>
<glyph name="b" format="2">
  <advance width="639"/>
  <unicode hex="0062"/>
  <outline>
    <contour>
      <point x="39" y="0" type="line"/>
      <point x="39" y="700" type="line"/>
      <point x="215" y="700" type="line"/>
      <point x="215" y="62" type="line"/>
      <point x="185" y="0" type="line"/>
    </contour>
    <contour>
      <point x="201" y="41" type="curve"/>
      <point x="201" y="435" type="line"/>
      <point x="229" y="463"/>
      <point x="274" y="477"/>
      <point x="320" y="477" type="curve" smooth="yes"/>
      <point x="445" y="477"/>
      <point x="546" y="384"/>
      <point x="546" y="231" type="curve" smooth="yes"/>
      <point x="546" y="78"/>
      <point x="462" y="-16"/>
      <point x="336" y="-16" type="curve" smooth="yes"/>
      <point x="284" y="-16"/>
      <point x="219" y="12"/>
    </contour>
    <contour>
      <point x="215" y="226" type="line" smooth="yes"/>
      <point x="215" y="168"/>
      <point x="243" y="134"/>
      <point x="289" y="134" type="curve" smooth="yes"/>
      <point x="342" y="134"/>
      <point x="366" y="183"/>
      <point x="366" y="231" type="curve" smooth="yes"/>
      <point x="366" y="279"/>
      <point x="349" y="327"/>
      <point x="289" y="327" type="curve" smooth="yes"/>
      <point x="250" y="327"/>
      <point x="215" y="295"/>
      <point x="215" y="232" type="curve" smooth="yes"/>
    </contour>
  </outline>
</glyph>
<glyph name="c" format="2">
  <advance width="495"/>
  <unicode hex="0063"/>
  <anchor x="256" y="530" name="top"/>
  <anchor x="256" y="-40" name="bottom"/>
  <anchor x="228" y="0" name="b.cedilla"/>
  <outline>
    <contour>
      <point x="30" y="230" type="curve" smooth="yes"/>
      <point x="30" y="79"/>
      <point x="118" y="-16"/>
      <point x="256" y="-16" type="curve" smooth="yes"/>
      <point x="374" y="-16"/>
      <point x="465" y="71"/>
      <point x="465" y="185" type="curve"/>
      <point x="305" y="185" type="line"/>
      <point x="305" y="162"/>
      <point x="283" y="140"/>
      <point x="260" y="140" type="curve" smooth="yes"/>
      <point x="227" y="140"/>
      <point x="210" y="170"/>
      <point x="210" y="230" type="curve" smooth="yes"/>
      <point x="210" y="286"/>
      <point x="230" y="320"/>
      <point x="262" y="320" type="curve" smooth="yes"/>
      <point x="286" y="320"/>
      <point x="305" y="305"/>
      <point x="305" y="285" type="curve"/>
      <point x="465" y="285" type="line"/>
      <point x="465" y="397"/>
      <point x="379" y="476"/>
      <point x="256" y="476" type="curve" smooth="yes"/>
      <point x="120" y="476"/>
      <point x="30" y="378"/>
    </contour>
  </outline>
  <guideline angle="90" name="h_1" x="256" y="0"/>
</glyph>
<glyph name="d" format="2">
  <advance width="555"/>
  <unicode hex="0064"/>
  <outline>
    <contour>
      <point x="195" y="240" type="curve" smooth="yes"/>
      <point x="195" y="195"/>
      <point x="215" y="134"/>
      <point x="259" y="134" type="curve" smooth="yes"/>
      <point x="291" y="134"/>
      <point x="317" y="171"/>
      <point x="317" y="198" type="curve" smooth="yes"/>
      <point x="317" y="282" type="line" smooth="yes"/>
      <point x="317" y="318"/>
      <point x="303" y="341"/>
      <point x="261" y="341" type="curve" smooth="yes"/>
      <point x="207" y="341"/>
      <point x="195" y="298"/>
    </contour>
    <contour>
      <point x="15" y="230" type="curve" smooth="yes"/>
      <point x="15" y="355"/>
      <point x="75" y="476"/>
      <point x="205" y="476" type="curve" smooth="yes"/>
      <point x="263" y="476"/>
      <point x="309" y="457"/>
      <point x="331" y="421" type="curve"/>
      <point x="317" y="420" type="line"/>
      <point x="317" y="700" type="line"/>
      <point x="493" y="700" type="line"/>
      <point x="493" y="0" type="line"/>
      <point x="327" y="0" type="line"/>
      <point x="317" y="66" type="line"/>
      <point x="322" y="66" type="line"/>
      <point x="306" y="26"/>
      <point x="261" y="-16"/>
      <point x="206" y="-16" type="curve" smooth="yes"/>
      <point x="35" y="-16"/>
      <point x="15" y="144"/>
    </contour>
  </outline>
</glyph>
<glyph name="e" format="2">
  <advance width="458"/>
  <unicode hex="0065"/>
  <anchor x="230" y="520" name="top"/>
  <outline>
    <contour>
      <point x="20" y="240" type="curve" smooth="yes"/>
      <point x="20" y="360"/>
      <point x="89" y="470"/>
      <point x="229" y="470" type="curve" smooth="yes"/>
      <point x="369" y="470"/>
      <point x="438" y="360"/>
      <point x="438" y="240" type="curve" smooth="yes"/>
      <point x="438" y="210" type="line"/>
      <point x="104" y="210" type="line"/>
      <point x="104" y="140"/>
      <point x="149" y="58"/>
      <point x="229" y="58" type="curve" smooth="yes"/>
      <point x="299" y="58"/>
      <point x="335" y="98"/>
      <point x="345" y="142" type="curve"/>
      <point x="428" y="142" type="line"/>
      <point x="413" y="73"/>
      <point x="379" y="-10"/>
      <point x="229" y="-10" type="curve" smooth="yes"/>
      <point x="79" y="-10"/>
      <point x="20" y="120"/>
    </contour>
    <contour>
      <point x="109" y="278" type="curve"/>
      <point x="349" y="278" type="line"/>
      <point x="349" y="278"/>
      <point x="341" y="402"/>
      <point x="229" y="402" type="curve" smooth="yes"/>
      <point x="117" y="402"/>
      <point x="109" y="278"/>
    </contour>
  </outline>
</glyph>
<glyph name="f" format="2">
  <advance width="402"/>
  <unicode hex="0066"/>
  <anchor x="240" y="-40" name="bottom"/>
  <anchor x="233" y="740" name="top"/>
  <outline>
    <contour>
      <point x="110" y="0" type="line"/>
      <point x="286" y="0" type="line"/>
      <point x="286" y="501" type="line" smooth="yes"/>
      <point x="286" y="543"/>
      <point x="308" y="564"/>
      <point x="349" y="564" type="curve" smooth="yes"/>
      <point x="382" y="564" type="line"/>
      <point x="382" y="700" type="line"/>
      <point x="314" y="700" type="line" smooth="yes"/>
      <point x="173" y="700"/>
      <point x="110" y="629"/>
      <point x="110" y="517" type="curve" smooth="yes"/>
    </contour>
    <contour>
      <point x="35" y="324" type="line"/>
      <point x="370" y="324" type="line"/>
      <point x="370" y="460" type="line"/>
      <point x="35" y="460" type="line"/>
    </contour>
  </outline>
  <guideline angle="90" name="h_1" x="233" y="0"/>
</glyph>
<glyph name="g" format="2">
  <advance width="532"/>
  <unicode hex="0067"/>
  <anchor x="241" y="520" name="top"/>
  <outline>
    <contour>
      <point x="21" y="-30" type="curve"/>
      <point x="197" y="-30" type="line"/>
      <point x="208" y="-64"/>
      <point x="230" y="-80"/>
      <point x="257" y="-80" type="curve" smooth="yes"/>
      <point x="299" y="-80"/>
      <point x="317" y="-62"/>
      <point x="317" y="-6" type="curve" smooth="yes"/>
      <point x="317" y="50" type="line"/>
      <point x="493" y="50" type="line"/>
      <point x="493" y="27" type="line" smooth="yes"/>
      <point x="493" y="-146"/>
      <point x="362" y="-200"/>
      <point x="244" y="-200" type="curve" smooth="yes"/>
      <point x="125" y="-200"/>
      <point x="41" y="-136"/>
    </contour>
    <contour>
      <point x="195" y="240" type="curve" smooth="yes"/>
      <point x="195" y="195"/>
      <point x="215" y="150"/>
      <point x="259" y="150" type="curve" smooth="yes"/>
      <point x="291" y="150"/>
      <point x="317" y="171"/>
      <point x="317" y="198" type="curve" smooth="yes"/>
      <point x="317" y="282" type="line" smooth="yes"/>
      <point x="317" y="318"/>
      <point x="303" y="341"/>
      <point x="261" y="341" type="curve" smooth="yes"/>
      <point x="207" y="341"/>
      <point x="195" y="298"/>
    </contour>
    <contour>
      <point x="15" y="230" type="curve" smooth="yes"/>
      <point x="15" y="355"/>
      <point x="75" y="476"/>
      <point x="205" y="476" type="curve" smooth="yes"/>
      <point x="263" y="476"/>
      <point x="309" y="457"/>
      <point x="331" y="421" type="curve"/>
      <point x="324" y="420" type="line"/>
      <point x="337" y="459" type="line"/>
      <point x="493" y="459" type="line"/>
      <point x="493" y="50" type="line"/>
      <point x="317" y="50" type="line"/>
      <point x="317" y="66" type="line"/>
      <point x="322" y="66" type="line"/>
      <point x="306" y="26"/>
      <point x="261" y="0"/>
      <point x="206" y="0" type="curve" smooth="yes"/>
      <point x="35" y="0"/>
      <point x="15" y="144"/>
    </contour>
  </outline>
</glyph>
<glyph name="h" format="2">
  <advance width="614"/>
  <unicode hex="0068"/>
  <outline>
    <component base="l"/>
    <contour>
      <point x="392" y="470" type="curve" smooth="yes"/>
      <point x="493" y="470"/>
      <point x="543" y="413"/>
      <point x="543" y="295" type="curve" smooth="yes"/>
      <point x="543" y="0" type="line"/>
      <point x="367" y="0" type="line"/>
      <point x="367" y="255" type="line" smooth="yes"/>
      <point x="367" y="299"/>
      <point x="358" y="365"/>
      <point x="310" y="365" type="curve" smooth="yes"/>
      <point x="254" y="365"/>
      <point x="228" y="310"/>
      <point x="228" y="210" type="curve"/>
      <point x="189" y="210" type="line"/>
      <point x="189" y="351" type="line"/>
      <point x="233" y="351" type="line"/>
      <point x="208" y="338" type="line"/>
      <point x="244" y="394"/>
      <point x="295" y="470"/>
    </contour>
  </outline>
</glyph>
<glyph name="k" format="2">
  <advance width="422"/>
  <unicode hex="006B"/>
  <outline>
    <contour>
      <point x="45" y="0" type="line"/>
      <point x="45" y="233"/>
      <point x="45" y="467"/>
      <point x="45" y="700" type="curve"/>
      <point x="125" y="700" type="line"/>
      <point x="125" y="290" type="line"/>
      <point x="157" y="300" type="line"/>
      <point x="282" y="460" type="line"/>
      <point x="382" y="460" type="line"/>
      <point x="229" y="266" type="line"/>
      <point x="402" y="0" type="line"/>
      <point x="302" y="0" type="line"/>
      <point x="157" y="220" type="line"/>
      <point x="125" y="210" type="line"/>
      <point x="125" y="0" type="line"/>
    </contour>
  </outline>
</glyph>
<glyph name="l" format="2">
  <advance width="276"/>
  <unicode hex="006C"/>
  <outline>
    <contour>
      <point x="50" y="0" type="line"/>
      <point x="50" y="700" type="line"/>
      <point x="226" y="700" type="line"/>
      <point x="226" y="0" type="line"/>
    </contour>
  </outline>
</glyph>
<glyph name="m" format="2">
  <advance width="776"/>
  <unicode hex="006D"/>
  <outline>
    <contour>
      <point x="576" y="470" type="curve" smooth="yes"/>
      <point x="720" y="470"/>
      <point x="726" y="362"/>
      <point x="726" y="295" type="curve" smooth="yes"/>
      <point x="726" y="0" type="line"/>
      <point x="646" y="0" type="line"/>
      <point x="646" y="295" type="line" smooth="yes"/>
      <point x="646" y="339"/>
      <point x="637" y="405"/>
      <point x="554" y="405" type="curve" smooth="yes"/>
      <point x="500" y="405"/>
      <point x="417" y="350"/>
      <point x="417" y="250" type="curve"/>
      <point x="378" y="250" type="line"/>
      <point x="378" y="351" type="line"/>
      <point x="422" y="351" type="line"/>
      <point x="397" y="338" type="line"/>
      <point x="432" y="394"/>
      <point x="482" y="470"/>
    </contour>
    <contour>
      <point x="278" y="470" type="curve" smooth="yes"/>
      <point x="422" y="470"/>
      <point x="428" y="362"/>
      <point x="428" y="295" type="curve" smooth="yes"/>
      <point x="428" y="0" type="line"/>
      <point x="348" y="0" type="line"/>
      <point x="348" y="295" type="line" smooth="yes"/>
      <point x="348" y="339"/>
      <point x="339" y="405"/>
      <point x="256" y="405" type="curve" smooth="yes"/>
      <point x="202" y="405"/>
      <point x="119" y="350"/>
      <point x="119" y="250" type="curve"/>
      <point x="80" y="250" type="line"/>
      <point x="80" y="351" type="line"/>
      <point x="124" y="351" type="line"/>
      <point x="99" y="338" type="line"/>
      <point x="134" y="394"/>
      <point x="184" y="470"/>
    </contour>
    <contour>
      <point x="50" y="0" type="line"/>
      <point x="50" y="460" type="line"/>
      <point x="110" y="460" type="line"/>
      <point x="130" y="360" type="line"/>
      <point x="130" y="0" type="line"/>
    </contour>
  </outline>
</glyph>
<glyph name="n" format="2">
  <advance width="588"/>
  <unicode hex="006E"/>
  <anchor x="244" y="520" name="top"/>
  <outline>
    <contour>
      <point x="50" y="0" type="line"/>
      <point x="50" y="460" type="line"/>
      <point x="210" y="460" type="line"/>
      <point x="230" y="360" type="line"/>
      <point x="230" y="0" type="line"/>
    </contour>
    <contour>
      <point x="383" y="470" type="curve" smooth="yes"/>
      <point x="532" y="470"/>
      <point x="538" y="362"/>
      <point x="538" y="295" type="curve" smooth="yes"/>
      <point x="538" y="0" type="line"/>
      <point x="358" y="0" type="line"/>
      <point x="358" y="255" type="line" smooth="yes"/>
      <point x="358" y="299"/>
      <point x="349" y="365"/>
      <point x="301" y="365" type="curve" smooth="yes"/>
      <point x="245" y="365"/>
      <point x="219" y="310"/>
      <point x="219" y="210" type="curve"/>
      <point x="180" y="210" type="line"/>
      <point x="180" y="351" type="line"/>
      <point x="224" y="351" type="line"/>
      <point x="199" y="338" type="line"/>
      <point x="235" y="394"/>
      <point x="286" y="470"/>
    </contour>
  </outline>
</glyph>
<glyph name="o" format="2">
  <advance width="480"/>
  <unicode hex="006F"/>
  <anchor x="240" y="520" name="top"/>
  <outline>
    <contour>
      <point x="240" y="-10" type="line"/>
      <point x="118" y="-10"/>
      <point x="35" y="88"/>
      <point x="35" y="230" type="curve" smooth="yes"/>
      <point x="35" y="371"/>
      <point x="120" y="470"/>
      <point x="240" y="470" type="curve"/>
      <point x="240" y="405" type="line"/>
      <point x="169" y="405"/>
      <point x="115" y="357"/>
      <point x="115" y="230" type="curve" smooth="yes"/>
      <point x="115" y="109"/>
      <point x="170" y="55"/>
      <point x="240" y="55" type="curve"/>
    </contour>
    <contour>
      <point x="240" y="470" type="line"/>
      <point x="362" y="470"/>
      <point x="445" y="372"/>
      <point x="445" y="230" type="curve" smooth="yes"/>
      <point x="445" y="89"/>
      <point x="360" y="-10"/>
      <point x="240" y="-10" type="curve"/>
      <point x="240" y="55" type="line"/>
      <point x="311" y="55"/>
      <point x="365" y="103"/>
      <point x="365" y="230" type="curve" smooth="yes"/>
      <point x="365" y="351"/>
      <point x="310" y="405"/>
      <point x="240" y="405" type="curve"/>
    </contour>
  </outline>
</glyph>
<glyph name="p" format="2">
  <advance width="521"/>
  <unicode hex="0070"/>
  <outline>
    <contour>
      <point x="138" y="119" type="curve"/>
      <point x="138" y="350" type="line"/>
      <point x="166" y="423"/>
      <point x="231" y="470"/>
      <point x="305" y="470" type="curve" smooth="yes"/>
      <point x="438" y="470"/>
      <point x="501" y="353"/>
      <point x="501" y="240" type="curve" smooth="yes"/>
      <point x="501" y="87"/>
      <point x="420" y="-11"/>
      <point x="295" y="-11" type="curve" smooth="yes"/>
      <point x="241" y="-11"/>
      <point x="165" y="36"/>
    </contour>
    <contour>
      <point x="155" y="256" type="curve" smooth="yes"/>
      <point x="155" y="173"/>
      <point x="159" y="54"/>
      <point x="281" y="54" type="curve" smooth="yes"/>
      <point x="388" y="54"/>
      <point x="421" y="143"/>
      <point x="421" y="240" type="curve" smooth="yes"/>
      <point x="421" y="347"/>
      <point x="368" y="404"/>
      <point x="286" y="404" type="curve" smooth="yes"/>
      <point x="225" y="404"/>
      <point x="155" y="371"/>
    </contour>
    <contour>
      <point x="75" y="-200" type="line"/>
      <point x="75" y="459" type="line"/>
      <point x="135" y="459" type="line"/>
      <point x="155" y="349" type="line"/>
      <point x="155" y="-200" type="line"/>
    </contour>
  </outline>
</glyph>
<glyph name="q" format="2">
  <advance width="491"/>
  <unicode hex="0071"/>
  <outline>
    <contour>
      <point x="317" y="-200" type="line"/>
      <point x="317" y="50" type="line"/>
      <point x="493" y="50" type="line"/>
      <point x="493" y="-200" type="line"/>
    </contour>
    <contour>
      <point x="195" y="240" type="curve" smooth="yes"/>
      <point x="195" y="195"/>
      <point x="215" y="150"/>
      <point x="259" y="150" type="curve" smooth="yes"/>
      <point x="291" y="150"/>
      <point x="317" y="171"/>
      <point x="317" y="198" type="curve" smooth="yes"/>
      <point x="317" y="282" type="line" smooth="yes"/>
      <point x="317" y="318"/>
      <point x="303" y="341"/>
      <point x="261" y="341" type="curve" smooth="yes"/>
      <point x="207" y="341"/>
      <point x="195" y="298"/>
    </contour>
    <contour>
      <point x="15" y="230" type="curve" smooth="yes"/>
      <point x="15" y="355"/>
      <point x="75" y="476"/>
      <point x="205" y="476" type="curve" smooth="yes"/>
      <point x="263" y="476"/>
      <point x="309" y="457"/>
      <point x="331" y="421" type="curve"/>
      <point x="324" y="420" type="line"/>
      <point x="337" y="459" type="line"/>
      <point x="493" y="459" type="line"/>
      <point x="493" y="50" type="line"/>
      <point x="317" y="50" type="line"/>
      <point x="317" y="66" type="line"/>
      <point x="322" y="66" type="line"/>
      <point x="306" y="26"/>
      <point x="261" y="0"/>
      <point x="206" y="0" type="curve" smooth="yes"/>
      <point x="35" y="0"/>
      <point x="15" y="144"/>
    </contour>
  </outline>
</glyph>
<glyph name="r" format="2">
  <advance width="370"/>
  <unicode hex="0072"/>
  <outline>
    <contour>
      <point x="45" y="0" type="line"/>
      <point x="225" y="0" type="line"/>
      <point x="225" y="251" type="line"/>
      <point x="241" y="305"/>
      <point x="279" y="334"/>
      <point x="333" y="334" type="curve" smooth="yes"/>
      <point x="364" y="334"/>
      <point x="401" y="324"/>
      <point x="429" y="309" type="curve"/>
      <point x="429" y="459" type="line"/>
      <point x="414" y="468"/>
      <point x="392" y="473"/>
      <point x="371" y="473" type="curve" smooth="yes"/>
      <point x="309" y="473"/>
      <point x="252" y="430"/>
      <point x="225" y="362" type="curve"/>
      <point x="221" y="362" type="line"/>
      <point x="205" y="460" type="line"/>
      <point x="45" y="460" type="line"/>
    </contour>
  </outline>
</glyph>
<glyph name="s" format="2">
  <advance width="442"/>
  <unicode hex="0073"/>
  <anchor x="205" y="530" name="top"/>
  <anchor x="205" y="-40" name="bottom"/>
  <anchor x="213" y="-0" name="b.cedilla"/>
  <outline>
    <contour>
      <point x="30" y="144" type="line"/>
      <point x="30" y="44"/>
      <point x="102" y="-16"/>
      <point x="222" y="-16" type="curve" smooth="yes"/>
      <point x="346" y="-16"/>
      <point x="412" y="39"/>
      <point x="412" y="142" type="curve" smooth="yes"/>
      <point x="412" y="314"/>
      <point x="186" y="267"/>
      <point x="186" y="318" type="curve" smooth="yes"/>
      <point x="186" y="332"/>
      <point x="195" y="340"/>
      <point x="213" y="340" type="curve" smooth="yes"/>
      <point x="231" y="340"/>
      <point x="243" y="331"/>
      <point x="246" y="316" type="curve"/>
      <point x="402" y="316" type="line"/>
      <point x="402" y="419"/>
      <point x="332" y="476"/>
      <point x="205" y="476" type="curve" smooth="yes"/>
      <point x="96" y="476"/>
      <point x="30" y="418"/>
      <point x="30" y="323" type="curve" smooth="yes"/>
      <point x="30" y="156"/>
      <point x="256" y="200"/>
      <point x="256" y="142" type="curve" smooth="yes"/>
      <point x="256" y="127"/>
      <point x="246" y="120"/>
      <point x="222" y="120" type="curve" smooth="yes"/>
      <point x="202" y="120"/>
      <point x="188" y="129"/>
      <point x="186" y="144" type="curve"/>
    </contour>
  </outline>
  <guideline angle="90" name="h_1" x="205" y="0"/>
</glyph>
<glyph name="t" format="2">
  <advance width="418"/>
  <unicode hex="0074"/>
  <anchor x="240" y="-40" name="bottom"/>
  <anchor x="198" y="660" name="top"/>
  <anchor x="396" y="700" name="t.quoteright"/>
  <outline>
    <contour>
      <point x="30" y="324" type="line"/>
      <point x="365" y="324" type="line"/>
      <point x="365" y="460" type="line"/>
      <point x="114" y="460" type="line"/>
      <point x="30" y="440" type="line"/>
    </contour>
    <contour>
      <point x="105" y="180" type="line" smooth="yes"/>
      <point x="105" y="46"/>
      <point x="169" y="-10"/>
      <point x="321" y="-10" type="curve" smooth="yes"/>
      <point x="376" y="-10" type="line"/>
      <point x="376" y="126" type="line"/>
      <point x="362" y="126" type="line" smooth="yes"/>
      <point x="304" y="126"/>
      <point x="281" y="149"/>
      <point x="281" y="206" type="curve" smooth="yes"/>
      <point x="281" y="610" type="line"/>
      <point x="125" y="610" type="line"/>
      <point x="112" y="443" type="line"/>
      <point x="105" y="443" type="line"/>
    </contour>
  </outline>
  <guideline angle="90" name="h_1" x="153" y="0"/>
</glyph>
<glyph name="u" format="2">
  <advance width="571"/>
  <unicode hex="0075"/>
  <anchor x="286" y="540" name="top"/>
  <anchor x="286" y="-40" name="bottom"/>
  <anchor x="286" y="540" name="t.ring"/>
  <outline>
    <contour>
      <point x="40" y="165" type="line" smooth="yes"/>
      <point x="40" y="47"/>
      <point x="90" y="-16"/>
      <point x="191" y="-16" type="curve" smooth="yes"/>
      <point x="265" y="-16"/>
      <point x="339" y="15"/>
      <point x="375" y="74" type="curve"/>
      <point x="360" y="74" type="line"/>
      <point x="360" y="61" type="line"/>
      <point x="394" y="61" type="line"/>
      <point x="394" y="231" type="line"/>
      <point x="355" y="231" type="line"/>
      <point x="355" y="182"/>
      <point x="329" y="129"/>
      <point x="273" y="129" type="curve" smooth="yes"/>
      <point x="225" y="129"/>
      <point x="216" y="161"/>
      <point x="216" y="205" type="curve" smooth="yes"/>
      <point x="216" y="460" type="line"/>
      <point x="40" y="460" type="line"/>
    </contour>
    <contour>
      <point x="355" y="48" type="line"/>
      <point x="358" y="48" type="line"/>
      <point x="375" y="0" type="line"/>
      <point x="531" y="0" type="line"/>
      <point x="531" y="460" type="line"/>
      <point x="355" y="460" type="line"/>
    </contour>
  </outline>
  <guideline angle="90" name="h_1" x="286" y="0"/>
</glyph>
<glyph name="v" format="2">
  <advance width="563"/>
  <unicode hex="0076"/>
  <anchor x="281" y="530" name="top"/>
  <anchor x="281" y="-40" name="bottom"/>
  <outline>
    <contour>
      <point x="158" y="0" type="line"/>
      <point x="399" y="0" type="line"/>
      <point x="553" y="460" type="line"/>
      <point x="367" y="460" type="line"/>
      <point x="238" y="54" type="line"/>
      <point x="325" y="54" type="line"/>
      <point x="195" y="460" type="line"/>
      <point x="10" y="460" type="line"/>
    </contour>
  </outline>
  <guideline angle="90" name="h_1" x="281" y="0"/>
</glyph>
<glyph name="w" format="2">
  <advance width="724"/>
  <unicode hex="0077"/>
  <outline>
    <contour>
      <point x="-5" y="460" type="line"/>
      <point x="175" y="460" type="line"/>
      <point x="217" y="292" type="line"/>
      <point x="258" y="53" type="line"/>
      <point x="202" y="53" type="line"/>
      <point x="247" y="292" type="line"/>
      <point x="292" y="460" type="line"/>
      <point x="432" y="460" type="line"/>
      <point x="476" y="287" type="line"/>
      <point x="515" y="53" type="line"/>
      <point x="459" y="53" type="line"/>
      <point x="502" y="287" type="line"/>
      <point x="549" y="460" type="line"/>
      <point x="729" y="460" type="line"/>
      <point x="593" y="0" type="line"/>
      <point x="403" y="0" type="line"/>
      <point x="366" y="141" type="line"/>
      <point x="337" y="329" type="line"/>
      <point x="383" y="329" type="line"/>
      <point x="348" y="141" type="line"/>
      <point x="306" y="0" type="line"/>
      <point x="116" y="0" type="line"/>
    </contour>
  </outline>
</glyph>
<glyph name="x" format="2">
  <advance width="523"/>
  <unicode hex="0078"/>
  <outline>
    <contour>
      <point x="0" y="0" type="line"/>
      <point x="174" y="259" type="line"/>
      <point x="237" y="342" type="line"/>
      <point x="306" y="460" type="line"/>
      <point x="506" y="460" type="line"/>
      <point x="343" y="215" type="line"/>
      <point x="277" y="123" type="line"/>
      <point x="200" y="0" type="line"/>
    </contour>
    <contour>
      <point x="316" y="0" type="line"/>
      <point x="241" y="123" type="line"/>
      <point x="174" y="213" type="line"/>
      <point x="10" y="460" type="line"/>
      <point x="210" y="460" type="line"/>
      <point x="279" y="342" type="line"/>
      <point x="343" y="259" type="line"/>
      <point x="516" y="0" type="line"/>
    </contour>
  </outline>
  <guideline angle="0" x="0" y="342"/>
  <guideline angle="0" x="0" y="123"/>
  <guideline angle="90" x="174" y="0"/>
  <guideline angle="90" x="343" y="0"/>
</glyph>
<glyph name="y" format="2">
  <advance width="540"/>
  <unicode hex="0079"/>
  <anchor x="272" y="530" name="top"/>
  <anchor x="465" y="-40" name="bottom"/>
  <outline>
    <contour>
      <point x="69" y="-190" type="line"/>
      <point x="100" y="-198"/>
      <point x="108" y="-200"/>
      <point x="133" y="-200" type="curve" smooth="yes"/>
      <point x="245" y="-200"/>
      <point x="325" y="-146"/>
      <point x="358" y="-49" type="curve" smooth="yes"/>
      <point x="530" y="460" type="line"/>
      <point x="354" y="460" type="line"/>
      <point x="192" y="-25" type="line" smooth="yes"/>
      <point x="185" y="-47"/>
      <point x="156" y="-74"/>
      <point x="116" y="-74" type="curve" smooth="yes"/>
      <point x="94" y="-74"/>
      <point x="81" y="-71"/>
      <point x="69" y="-67" type="curve"/>
    </contour>
    <contour>
      <point x="10" y="460" type="line"/>
      <point x="218" y="-73" type="line"/>
      <point x="329" y="68" type="line"/>
      <point x="190" y="460" type="line"/>
    </contour>
  </outline>
  <guideline angle="90" x="272" y="0"/>
</glyph>
<glyph name="z" format="2">
  <advance width="450"/>
  <unicode hex="007A"/>
  <outline>
    <contour>
      <point x="40" y="0" type="line"/>
      <point x="40" y="125" type="line"/>
      <point x="268" y="404" type="line"/>
      <point x="272" y="304" type="line"/>
      <point x="40" y="304" type="line"/>
      <point x="40" y="460" type="line"/>
      <point x="410" y="460" type="line"/>
      <point x="410" y="335" type="line"/>
      <point x="193" y="56" type="line"/>
      <point x="188" y="156" type="line"/>
      <point x="410" y="156" type="line"/>
      <point x="410" y="0" type="line"/>
    </contour>
  </outline>
</glyph>
<glyph name="bar" format="2">
  <advance width="220"/>
  <unicode hex="007C"/>
  <outline>
    <contour>
      <point x="20" y="-80" type="line"/>
      <point x="20" y="780" type="line"/>
      <point x="200" y="780" type="line"/>
      <point x="200" y="-80" type="line"/>
    </contour>
  </outline>
</glyph>
<glyph name="asciitilde" format="2">
  <advance width="510"/>
  <unicode hex="007E"/>
  <outline>
    <contour>
      <point x="50" y="183" type="line"/>
      <point x="74" y="270"/>
      <point x="133" y="303"/>
      <point x="180" y="303" type="curve" smooth="yes"/>
      <point x="237" y="303"/>
      <point x="289" y="263"/>
      <point x="340" y="263" type="curve" smooth="yes"/>
      <point x="369" y="263"/>
      <point x="400" y="271"/>
      <point x="410" y="303" type="curve"/>
      <point x="460" y="303" type="line"/>
      <point x="436" y="207"/>
      <point x="387" y="183"/>
      <point x="340" y="183" type="curve" smooth="yes"/>
      <point x="286" y="183"/>
      <point x="233" y="223"/>
      <point x="180" y="223" type="curve" smooth="yes"/>
      <point x="153" y="223"/>
      <point x="110" y="211"/>
      <point x="100" y="183" type="curve"/>
    </contour>
  </outline>
</glyph>
<glyph name="exclamdown" format="2">
  <advance width="190"/>
  <unicode hex="00A1"/>
  <outline>
    <contour>
      <point x="5" y="-30" type="line"/>
      <point x="5" y="-240" type="line"/>
      <point x="185" y="-240" type="line"/>
      <point x="185" y="-30" type="line"/>
      <point x="140" y="230" type="line"/>
      <point x="50" y="230" type="line"/>
    </contour>
    <contour>
      <point x="20" y="460" type="line"/>
      <point x="20" y="300" type="line"/>
      <point x="180" y="300" type="line"/>
      <point x="180" y="460" type="line"/>
    </contour>
  </outline>
</glyph>
<glyph name="sterling" format="2">
  <advance width="495"/>
  <unicode hex="00A3"/>
  <outline>
    <contour>
      <point x="13" y="116" type="line"/>
      <point x="86" y="148"/>
      <point x="120" y="197"/>
      <point x="120" y="250" type="curve" smooth="yes"/>
      <point x="120" y="278"/>
      <point x="117" y="304"/>
      <point x="109" y="330" type="curve" smooth="yes"/>
      <point x="100" y="359" type="line" smooth="yes"/>
      <point x="86" y="405"/>
      <point x="70" y="431"/>
      <point x="70" y="481" type="curve" smooth="yes"/>
      <point x="70" y="609"/>
      <point x="156" y="696"/>
      <point x="282" y="696" type="curve" smooth="yes"/>
      <point x="398" y="696"/>
      <point x="480" y="614"/>
      <point x="490" y="487" type="curve"/>
      <point x="330" y="487" type="line"/>
      <point x="325" y="507"/>
      <point x="308" y="536"/>
      <point x="284" y="536" type="curve" smooth="yes"/>
      <point x="245" y="536"/>
      <point x="230" y="516"/>
      <point x="230" y="492" type="curve" smooth="yes"/>
      <point x="230" y="442"/>
      <point x="252" y="407"/>
      <point x="268" y="361" type="curve" smooth="yes"/>
      <point x="280" y="327" type="line" smooth="yes"/>
      <point x="288" y="305"/>
      <point x="291" y="290"/>
      <point x="291" y="267" type="curve" smooth="yes"/>
      <point x="291" y="231"/>
      <point x="278" y="175"/>
      <point x="261" y="152" type="curve"/>
      <point x="263" y="150" type="line"/>
      <point x="479" y="150" type="line"/>
      <point x="479" y="0" type="line"/>
      <point x="13" y="0" type="line"/>
    </contour>
    <contour>
      <point x="160" y="283" type="line"/>
      <point x="160" y="403" type="line"/>
      <point x="333" y="403" type="line"/>
      <point x="333" y="283" type="line"/>
    </contour>
    <contour>
      <point x="139" y="403" type="line"/>
      <point x="139" y="283" type="line"/>
      <point x="22" y="283" type="line"/>
      <point x="22" y="403" type="line"/>
    </contour>
  </outline>
</glyph>
<glyph name="currency" format="2">
  <advance width="495"/>
  <unicode hex="00A4"/>
  <outline>
    <contour>
      <point x="34" y="154" type="line"/>
      <point x="94" y="213" type="line"/>
      <point x="68" y="255"/>
      <point x="63" y="285"/>
      <point x="63" y="315" type="curve" smooth="yes"/>
      <point x="63" y="345"/>
      <point x="68" y="376"/>
      <point x="94" y="417" type="curve"/>
      <point x="34" y="477" type="line"/>
      <point x="84" y="529" type="line"/>
      <point x="144" y="468" type="line"/>
      <point x="177" y="490"/>
      <point x="217" y="500"/>
      <point x="247" y="500" type="curve" smooth="yes"/>
      <point x="277" y="500"/>
      <point x="318" y="490"/>
      <point x="351" y="468" type="curve"/>
      <point x="411" y="529" type="line"/>
      <point x="461" y="477" type="line"/>
      <point x="400" y="417" type="line"/>
      <point x="427" y="376"/>
      <point x="432" y="345"/>
      <point x="432" y="315" type="curve" smooth="yes"/>
      <point x="432" y="285"/>
      <point x="427" y="255"/>
      <point x="400" y="213" type="curve"/>
      <point x="461" y="154" type="line"/>
      <point x="411" y="102" type="line"/>
      <point x="351" y="163" type="line"/>
      <point x="318" y="141"/>
      <point x="277" y="132"/>
      <point x="247" y="132" type="curve" smooth="yes"/>
      <point x="217" y="132"/>
      <point x="177" y="141"/>
      <point x="144" y="163" type="curve"/>
      <point x="84" y="102" type="line"/>
    </contour>
    <contour>
      <point x="134" y="316" type="curve" smooth="yes"/>
      <point x="134" y="256"/>
      <point x="187" y="203"/>
      <point x="247" y="203" type="curve" smooth="yes"/>
      <point x="307" y="203"/>
      <point x="360" y="256"/>
      <point x="360" y="316" type="curve" smooth="yes"/>
      <point x="360" y="376"/>
      <point x="307" y="429"/>
      <point x="247" y="429" type="curve" smooth="yes"/>
      <point x="187" y="429"/>
      <point x="134" y="376"/>
    </contour>
  </outline>
</glyph>
<glyph name="yen" format="2">
  <advance width="495"/>
  <unicode hex="00A5"/>
  <outline>
    <contour>
      <point x="1" y="637" type="line"/>
      <point x="88" y="637" type="line"/>
      <point x="214" y="413" type="line" smooth="yes"/>
      <point x="226" y="392"/>
      <point x="238" y="369"/>
      <point x="247" y="346" type="curve"/>
      <point x="256" y="369"/>
      <point x="266" y="386"/>
      <point x="282" y="417" type="curve" smooth="yes"/>
      <point x="401" y="637" type="line"/>
      <point x="494" y="637" type="line"/>
      <point x="328" y="346" type="line"/>
      <point x="466" y="346" type="line"/>
      <point x="466" y="286" type="line"/>
      <point x="287" y="286" type="line"/>
      <point x="287" y="207" type="line"/>
      <point x="466" y="207" type="line"/>
      <point x="466" y="147" type="line"/>
      <point x="287" y="147" type="line"/>
      <point x="287" y="0" type="line"/>
      <point x="209" y="0" type="line"/>
      <point x="209" y="147" type="line"/>
      <point x="28" y="147" type="line"/>
      <point x="28" y="207" type="line"/>
      <point x="209" y="207" type="line"/>
      <point x="209" y="286" type="line"/>
      <point x="28" y="286" type="line"/>
      <point x="28" y="346" type="line"/>
      <point x="167" y="346" type="line"/>
    </contour>
  </outline>
</glyph>
<glyph name="brokenbar" format="2">
  <advance width="280"/>
  <unicode hex="00A6"/>
  <outline>
    <contour>
      <point x="50" y="-156" type="line"/>
      <point x="50" y="156" type="line"/>
      <point x="230" y="156" type="line"/>
      <point x="230" y="-156" type="line"/>
    </contour>
    <contour>
      <point x="50" y="289" type="line"/>
      <point x="50" y="601" type="line"/>
      <point x="230" y="601" type="line"/>
      <point x="230" y="289" type="line"/>
    </contour>
  </outline>
</glyph>
<glyph name="section" format="2">
  <advance width="465"/>
  <unicode hex="00A7"/>
  <outline>
    <contour>
      <point x="40" y="400" type="curve" smooth="yes"/>
      <point x="40" y="457"/>
      <point x="77" y="498"/>
      <point x="123" y="515" type="curve"/>
      <point x="99" y="537"/>
      <point x="85" y="557"/>
      <point x="85" y="585" type="curve" smooth="yes"/>
      <point x="85" y="652"/>
      <point x="153" y="696"/>
      <point x="229" y="696" type="curve" smooth="yes"/>
      <point x="320" y="696"/>
      <point x="375" y="647"/>
      <point x="375" y="554" type="curve"/>
      <point x="295" y="554" type="line"/>
      <point x="295" y="604"/>
      <point x="278" y="631"/>
      <point x="229" y="631" type="curve" smooth="yes"/>
      <point x="200" y="631"/>
      <point x="165" y="613"/>
      <point x="165" y="577" type="curve" smooth="yes"/>
      <point x="165" y="546"/>
      <point x="204" y="534"/>
      <point x="239" y="511" type="curve" smooth="yes"/>
      <point x="360" y="432" type="line" smooth="yes"/>
      <point x="398" y="407"/>
      <point x="425" y="378"/>
      <point x="425" y="319" type="curve" smooth="yes"/>
      <point x="425" y="264"/>
      <point x="382" y="234"/>
      <point x="341" y="215" type="curve"/>
      <point x="366" y="199"/>
      <point x="387" y="157"/>
      <point x="387" y="116" type="curve" smooth="yes"/>
      <point x="387" y="40"/>
      <point x="322" y="-16"/>
      <point x="235" y="-16" type="curve" smooth="yes"/>
      <point x="136" y="-16"/>
      <point x="62" y="56"/>
      <point x="62" y="151" type="curve"/>
      <point x="182" y="151" type="line"/>
      <point x="182" y="121"/>
      <point x="203" y="104"/>
      <point x="222" y="104" type="curve" smooth="yes"/>
      <point x="264" y="104"/>
      <point x="267" y="124"/>
      <point x="267" y="146" type="curve" smooth="yes"/>
      <point x="267" y="164"/>
      <point x="238" y="181"/>
      <point x="226" y="188" type="curve" smooth="yes"/>
      <point x="115" y="254" type="line" smooth="yes"/>
      <point x="48" y="294"/>
      <point x="40" y="349"/>
    </contour>
    <contour>
      <point x="120" y="402" type="curve" smooth="yes"/>
      <point x="120" y="360"/>
      <point x="150" y="368"/>
      <point x="179" y="350" type="curve" smooth="yes"/>
      <point x="277" y="291" type="line" smooth="yes"/>
      <point x="284" y="287"/>
      <point x="298" y="280"/>
      <point x="303" y="280" type="curve" smooth="yes"/>
      <point x="331" y="280"/>
      <point x="345" y="295"/>
      <point x="345" y="314" type="curve" smooth="yes"/>
      <point x="345" y="344"/>
      <point x="341" y="377"/>
      <point x="280" y="413" type="curve" smooth="yes"/>
      <point x="173" y="476" type="line"/>
      <point x="140" y="469"/>
      <point x="120" y="434"/>
    </contour>
  </outline>
  <guideline angle="149.511" x="247" y="176"/>
  <guideline angle="328.95" x="173" y="354"/>
</glyph>
<glyph name="dieresis" format="2">
  <advance width="520"/>
  <unicode hex="00A8"/>
  <outline>
    <contour>
      <point x="40" y="530" type="line"/>
      <point x="220" y="530" type="line"/>
      <point x="220" y="710" type="line"/>
      <point x="40" y="710" type="line"/>
    </contour>
    <contour>
      <point x="300" y="530" type="line"/>
      <point x="480" y="530" type="line"/>
      <point x="480" y="710" type="line"/>
      <point x="300" y="710" type="line"/>
    </contour>
  </outline>
</glyph>
<glyph name="ordfeminine" format="2">
  <advance width="402"/>
  <unicode hex="00AA"/>
  <outline>
    <contour>
      <point x="45" y="620" type="curve"/>
      <point x="157" y="620" type="line"/>
      <point x="161.645" y="646.4"/>
      <point x="180.198" y="664"/>
      <point x="203.382" y="664" type="curve" smooth="yes"/>
      <point x="228.953" y="664"/>
      <point x="246" y="642.991"/>
      <point x="246" y="611.478" type="curve" smooth="yes"/>
      <point x="246" y="464.227" type="line"/>
      <point x="261" y="414" type="line"/>
      <point x="362" y="414" type="line"/>
      <point x="362" y="631.677" type="line" smooth="yes"/>
      <point x="362" y="696.671"/>
      <point x="301.2" y="740"/>
      <point x="210" y="740" type="curve" smooth="yes"/>
      <point x="121.787" y="740"/>
      <point x="55.7866" y="692"/>
    </contour>
    <contour>
      <point x="30" y="493" type="curve" smooth="yes"/>
      <point x="30" y="439"/>
      <point x="68.6281" y="406"/>
      <point x="134.702" y="406" type="curve" smooth="yes"/>
      <point x="189.595" y="406"/>
      <point x="242.964" y="435.78"/>
      <point x="276" y="483.189" type="curve"/>
      <point x="270" y="545" type="line"/>
      <point x="249.649" y="515.169"/>
      <point x="218.07" y="490"/>
      <point x="182.982" y="490" type="curve" smooth="yes"/>
      <point x="165.439" y="490"/>
      <point x="150" y="498.474"/>
      <point x="150" y="513.727" type="curve" smooth="yes"/>
      <point x="150" y="543"/>
      <point x="184.538" y="557"/>
      <point x="257" y="557" type="curve"/>
      <point x="257" y="612" type="line"/>
      <point x="114.489" y="612"/>
      <point x="30" y="568"/>
    </contour>
  </outline>
</glyph>
<glyph name="logicalnot" format="2">
  <advance width="520"/>
  <unicode hex="00AC"/>
  <outline>
    <contour>
      <point x="49" y="375" type="line"/>
      <point x="49" y="440" type="line"/>
      <point x="471" y="440" type="line"/>
      <point x="471" y="181" type="line"/>
      <point x="397" y="181" type="line"/>
      <point x="397" y="375" type="line"/>
    </contour>
  </outline>
</glyph>
<glyph name="registered" format="2">
  <advance width="415"/>
  <unicode hex="00AE"/>
  <outline>
    <contour>
      <point x="30" y="505.829" type="curve" smooth="yes"/>
      <point x="30" y="400.441"/>
      <point x="100.868" y="330.182"/>
      <point x="207.171" y="330.182" type="curve" smooth="yes"/>
      <point x="313.474" y="330.182"/>
      <point x="384.342" y="399.85"/>
      <point x="384.342" y="504.353" type="curve" smooth="yes"/>
      <point x="384.342" y="609.741"/>
      <point x="313.474" y="680"/>
      <point x="207.171" y="680" type="curve" smooth="yes"/>
      <point x="100.868" y="680"/>
      <point x="30" y="610.332"/>
    </contour>
    <contour>
      <point x="102.078" y="505.681" type="curve" smooth="yes"/>
      <point x="102.078" y="568.737"/>
      <point x="144.115" y="610.774"/>
      <point x="207.171" y="610.774" type="curve" smooth="yes"/>
      <point x="270.227" y="610.774"/>
      <point x="312.264" y="568.265"/>
      <point x="312.264" y="504.5" type="curve" smooth="yes"/>
      <point x="312.264" y="441.445"/>
      <point x="270.227" y="399.407"/>
      <point x="207.171" y="399.407" type="curve" smooth="yes"/>
      <point x="144.115" y="399.407"/>
      <point x="102.078" y="441.917"/>
    </contour>
    <contour>
      <point x="181.142" y="479.498" type="line"/>
      <point x="227.19" y="479.498" type="line" smooth="yes"/>
      <point x="256.928" y="479.498"/>
      <point x="263.079" y="505.881"/>
      <point x="263.079" y="525.983" type="curve" smooth="yes"/>
      <point x="263.079" y="559.904"/>
      <point x="244.687" y="576.236"/>
      <point x="220.959" y="576.236" type="curve" smooth="yes"/>
      <point x="181.142" y="576.236" type="line"/>
      <point x="181.142" y="533.62" type="line"/>
      <point x="210.951" y="533.62" type="line" smooth="yes"/>
      <point x="220.42" y="533.62"/>
      <point x="223.463" y="531.767"/>
      <point x="223.463" y="527.135" type="curve" smooth="yes"/>
      <point x="223.463" y="522.504"/>
      <point x="221.772" y="521.114"/>
      <point x="210.952" y="521.114" type="curve" smooth="yes"/>
      <point x="181.142" y="521.114" type="line"/>
    </contour>
    <contour>
      <point x="143.337" y="442.486" type="line"/>
      <point x="192.953" y="442.486" type="line"/>
      <point x="192.953" y="576.266" type="line"/>
      <point x="143.337" y="576.236" type="line"/>
    </contour>
    <contour>
      <point x="193.345" y="483.849" type="line"/>
      <point x="226.157" y="442.486" type="line"/>
      <point x="279.552" y="442.486" type="line"/>
      <point x="245.222" y="483.849" type="line"/>
    </contour>
  </outline>
</glyph>
<glyph name="macron" format="2">
  <advance width="370"/>
  <unicode hex="00AF"/>
  <anchor x="200" y="490" name="_aboveUC"/>
  <anchor x="185" y="470" name="_aboveLC"/>
  <outline>
    <contour>
      <point x="20" y="470" type="line"/>
      <point x="20" y="620" type="line"/>
      <point x="350" y="620" type="line"/>
      <point x="350" y="470" type="line"/>
    </contour>
  </outline>
</glyph>
<glyph name="degree" format="2">
  <advance width="356"/>
  <unicode hex="00B0"/>
  <outline>
    <contour>
      <point x="34" y="525" type="curve" smooth="yes"/>
      <point x="34" y="605"/>
      <point x="98" y="669"/>
      <point x="178" y="669" type="curve" smooth="yes"/>
      <point x="258" y="669"/>
      <point x="322" y="605"/>
      <point x="322" y="525" type="curve" smooth="yes"/>
      <point x="322" y="446"/>
      <point x="258" y="381"/>
      <point x="178" y="381" type="curve" smooth="yes"/>
      <point x="99" y="381"/>
      <point x="34" y="446"/>
    </contour>
    <contour>
      <point x="146" y="525" type="curve" smooth="yes"/>
      <point x="146" y="506"/>
      <point x="159" y="493"/>
      <point x="178" y="493" type="curve" smooth="yes"/>
      <point x="197" y="493"/>
      <point x="211" y="507"/>
      <point x="211" y="525" type="curve" smooth="yes"/>
      <point x="211" y="544"/>
      <point x="197" y="558"/>
      <point x="178" y="558" type="curve" smooth="yes"/>
      <point x="159" y="558"/>
      <point x="146" y="544"/>
    </contour>
  </outline>
</glyph>
<glyph name="plusminus" format="2">
  <advance width="445"/>
  <unicode hex="00B1"/>
  <outline>
    <contour>
      <point x="30" y="237" type="line"/>
      <point x="30" y="397" type="line"/>
      <point x="143" y="397" type="line"/>
      <point x="143" y="509" type="line"/>
      <point x="303" y="509" type="line"/>
      <point x="303" y="397" type="line"/>
      <point x="415" y="397" type="line"/>
      <point x="415" y="237" type="line"/>
      <point x="303" y="237" type="line"/>
      <point x="303" y="119" type="line"/>
      <point x="143" y="119" type="line"/>
      <point x="143" y="237" type="line"/>
    </contour>
    <contour>
      <point x="30" y="-95" type="line"/>
      <point x="30" y="65" type="line"/>
      <point x="415" y="65" type="line"/>
      <point x="415" y="-95" type="line"/>
    </contour>
  </outline>
</glyph>
<glyph name="acute" format="2">
  <advance width="346"/>
  <unicode hex="00B4"/>
  <anchor x="137" y="490" name="_aboveUC"/>
  <outline>
    <contour>
      <point x="40" y="490" type="line"/>
      <point x="110" y="700" type="line"/>
      <point x="306" y="700" type="line"/>
      <point x="220" y="490" type="line"/>
    </contour>
  </outline>
</glyph>
<glyph name="mu" format="2">
  <advance width="495"/>
  <unicode hex="00B5"/>
  <outline>
    <contour>
      <point x="60" y="-177" type="line"/>
      <point x="60" y="461" type="line"/>
      <point x="138" y="461" type="line"/>
      <point x="138" y="266" type="line" smooth="yes"/>
      <point x="138" y="126"/>
      <point x="157" y="60"/>
      <point x="246" y="60" type="curve" smooth="yes"/>
      <point x="270" y="60"/>
      <point x="311" y="69"/>
      <point x="338" y="112" type="curve" smooth="yes"/>
      <point x="356" y="142"/>
      <point x="356" y="186"/>
      <point x="356" y="265" type="curve" smooth="yes"/>
      <point x="356" y="461" type="line"/>
      <point x="434" y="461" type="line"/>
      <point x="434" y="0" type="line"/>
      <point x="365" y="0" type="line"/>
      <point x="365" y="54" type="line"/>
      <point x="364" y="54"/>
      <point x="364" y="54"/>
      <point x="363" y="54" type="curve"/>
      <point x="349" y="30"/>
      <point x="322" y="-11"/>
      <point x="249" y="-11" type="curve" smooth="yes"/>
      <point x="181" y="-11"/>
      <point x="156" y="46"/>
      <point x="139" y="46" type="curve"/>
      <point x="139" y="-177" type="line"/>
    </contour>
  </outline>
</glyph>
<glyph name="periodcentered" format="2">
  <advance width="180"/>
  <unicode hex="00B7"/>
  <outline>
    <contour>
      <point x="50" y="230" type="line"/>
      <point x="50" y="310" type="line"/>
      <point x="130" y="310" type="line"/>
      <point x="130" y="230" type="line"/>
    </contour>
  </outline>
</glyph>
<glyph name="cedilla" format="2">
  <advance width="452"/>
  <unicode hex="00B8"/>
  <outline>
    <contour>
      <point x="127" y="-191" type="line"/>
      <point x="152" y="-209"/>
      <point x="180" y="-220"/>
      <point x="211" y="-220" type="curve" smooth="yes"/>
      <point x="279" y="-220"/>
      <point x="327" y="-175"/>
      <point x="327" y="-118" type="curve" smooth="yes"/>
      <point x="327" y="-67"/>
      <point x="299" y="-39"/>
      <point x="242" y="-33" type="curve"/>
      <point x="245" y="-59" type="line"/>
      <point x="272" y="0" type="line"/>
      <point x="206" y="0" type="line"/>
      <point x="166" y="-85" type="line"/>
      <point x="170" y="-88" type="line"/>
      <point x="203" y="-91"/>
      <point x="223" y="-102"/>
      <point x="223" y="-122" type="curve" smooth="yes"/>
      <point x="223" y="-134"/>
      <point x="215" y="-143"/>
      <point x="202" y="-143" type="curve" smooth="yes"/>
      <point x="186" y="-143"/>
      <point x="168" y="-133"/>
      <point x="160" y="-121" type="curve"/>
      <point x="158" y="-121" type="line"/>
      <point x="127" y="-189" type="line"/>
    </contour>
  </outline>
</glyph>
<glyph name="uni00B9" format="2">
  <advance width="296"/>
  <unicode hex="00B9"/>
  <outline>
    <contour>
      <point x="46" y="510" type="curve"/>
      <point x="46" y="564" type="line"/>
      <point x="69" y="572"/>
      <point x="91" y="584"/>
      <point x="115" y="602" type="curve" smooth="yes"/>
      <point x="131" y="614"/>
      <point x="147" y="629"/>
      <point x="159" y="645" type="curve"/>
      <point x="206" y="645" type="line"/>
      <point x="206" y="319" type="line"/>
      <point x="143" y="319" type="line"/>
      <point x="143" y="560" type="line"/>
      <point x="118" y="539"/>
      <point x="79" y="518"/>
    </contour>
  </outline>
</glyph>
<glyph name="ordmasculine" format="2">
  <advance width="415"/>
  <unicode hex="00BA"/>
  <outline>
    <contour>
      <point x="30" y="570.446" type="curve" smooth="yes"/>
      <point x="30" y="458.09"/>
      <point x="100.83" y="406"/>
      <point x="208.123" y="406" type="curve" smooth="yes"/>
      <point x="312.139" y="406"/>
      <point x="385" y="465.699"/>
      <point x="385" y="573.511" type="curve" smooth="yes"/>
      <point x="385" y="681.323"/>
      <point x="311.524" y="740"/>
      <point x="206.877" y="740" type="curve" smooth="yes"/>
      <point x="100.1" y="740"/>
      <point x="30" y="682.803"/>
    </contour>
    <contour>
      <point x="150" y="572.569" type="curve" smooth="yes"/>
      <point x="150" y="639.442"/>
      <point x="171.593" y="664"/>
      <point x="207.129" y="664" type="curve" smooth="yes"/>
      <point x="240.278" y="664"/>
      <point x="265" y="636.047"/>
      <point x="265" y="575.156" type="curve" smooth="yes"/>
      <point x="265" y="514.265"/>
      <point x="243.03" y="482"/>
      <point x="207.129" y="482" type="curve" smooth="yes"/>
      <point x="172.363" y="482"/>
      <point x="150" y="505.696"/>
    </contour>
  </outline>
</glyph>
<glyph name="onehalf" format="2">
  <advance width="742"/>
  <unicode hex="00BD"/>
  <outline>
    <contour>
      <point x="447" y="-13" type="line"/>
      <point x="448" y="-3"/>
      <point x="451" y="6"/>
      <point x="455" y="15" type="curve" smooth="yes"/>
      <point x="472" y="52"/>
      <point x="513" y="86"/>
      <point x="559" y="120" type="curve" smooth="yes"/>
      <point x="626" y="168"/>
      <point x="647" y="184"/>
      <point x="647" y="214" type="curve" smooth="yes"/>
      <point x="647" y="245"/>
      <point x="624" y="262"/>
      <point x="587" y="262" type="curve" smooth="yes"/>
      <point x="539" y="262"/>
      <point x="533" y="242"/>
      <point x="522" y="213" type="curve"/>
      <point x="456" y="219" type="line"/>
      <point x="463" y="240" type="line"/>
      <point x="475" y="272"/>
      <point x="502" y="313"/>
      <point x="588" y="313" type="curve" smooth="yes"/>
      <point x="611" y="313"/>
      <point x="716" y="310"/>
      <point x="716" y="225" type="curve" smooth="yes"/>
      <point x="716" y="146"/>
      <point x="602" y="92"/>
      <point x="549" y="39" type="curve"/>
      <point x="717" y="39" type="line"/>
      <point x="717" y="-13" type="line"/>
    </contour>
    <contour>
      <point x="99" y="-22" type="line"/>
      <point x="578" y="651" type="line"/>
      <point x="645" y="651" type="line"/>
      <point x="167" y="-22" type="line"/>
    </contour>
    <contour>
      <point x="55" y="510" type="curve"/>
      <point x="55" y="564" type="line"/>
      <point x="76" y="569"/>
      <point x="114" y="592"/>
      <point x="142" y="617" type="curve" smooth="yes"/>
      <point x="152" y="626"/>
      <point x="160" y="635"/>
      <point x="168" y="645" type="curve"/>
      <point x="215" y="645" type="line"/>
      <point x="215" y="319" type="line"/>
      <point x="152" y="319" type="line"/>
      <point x="152" y="560" type="line"/>
      <point x="125" y="538"/>
      <point x="89" y="519"/>
    </contour>
  </outline>
</glyph>
<glyph name="threequarters" format="2">
  <advance width="742"/>
  <unicode hex="00BE"/>
  <outline>
    <contour>
      <point x="23" y="404" type="curve"/>
      <point x="86" y="410" type="line"/>
      <point x="93" y="392"/>
      <point x="104" y="361"/>
      <point x="153" y="361" type="curve" smooth="yes"/>
      <point x="191" y="361"/>
      <point x="222" y="384"/>
      <point x="222" y="419" type="curve" smooth="yes"/>
      <point x="222" y="454"/>
      <point x="195" y="464"/>
      <point x="169" y="466" type="curve" smooth="yes"/>
      <point x="163" y="467"/>
      <point x="158" y="467"/>
      <point x="153" y="467" type="curve" smooth="yes"/>
      <point x="145" y="467"/>
      <point x="141" y="467"/>
      <point x="129" y="466" type="curve"/>
      <point x="138" y="514" type="line"/>
      <point x="165" y="514"/>
      <point x="206" y="523"/>
      <point x="206" y="558" type="curve" smooth="yes"/>
      <point x="206" y="568"/>
      <point x="202" y="577"/>
      <point x="194" y="584" type="curve" smooth="yes"/>
      <point x="186" y="591"/>
      <point x="172" y="596"/>
      <point x="154" y="596" type="curve" smooth="yes"/>
      <point x="114" y="596"/>
      <point x="101" y="577"/>
      <point x="93" y="553" type="curve"/>
      <point x="30" y="562" type="line"/>
      <point x="47" y="612"/>
      <point x="77" y="645"/>
      <point x="155" y="645" type="curve" smooth="yes"/>
      <point x="159" y="645"/>
      <point x="169" y="645"/>
      <point x="181" y="644" type="curve" smooth="yes"/>
      <point x="217" y="640"/>
      <point x="274" y="625"/>
      <point x="274" y="564" type="curve" smooth="yes"/>
      <point x="274" y="534"/>
      <point x="256" y="506"/>
      <point x="214" y="495" type="curve"/>
      <point x="214" y="485"/>
      <point x="289" y="460"/>
      <point x="289" y="411" type="curve" smooth="yes"/>
      <point x="289" y="366"/>
      <point x="256" y="322"/>
      <point x="186" y="313" type="curve" smooth="yes"/>
      <point x="177" y="312"/>
      <point x="168" y="311"/>
      <point x="158" y="311" type="curve" smooth="yes"/>
      <point x="71" y="311"/>
      <point x="31" y="351"/>
    </contour>
    <contour>
      <point x="109" y="-22" type="line"/>
      <point x="589" y="651" type="line"/>
      <point x="657" y="651" type="line"/>
      <point x="178" y="-22" type="line"/>
    </contour>
    <contour>
      <point x="495" y="101" type="line"/>
      <point x="595" y="101" type="line"/>
      <point x="595" y="214" type="line"/>
    </contour>
    <contour>
      <point x="428" y="53" type="line"/>
      <point x="428" y="107" type="line"/>
      <point x="603" y="312" type="line"/>
      <point x="657" y="312" type="line"/>
      <point x="657" y="101" type="line"/>
      <point x="702" y="101" type="line"/>
      <point x="702" y="53" type="line"/>
      <point x="657" y="53" type="line"/>
      <point x="657" y="-13" type="line"/>
      <point x="595" y="-13" type="line"/>
      <point x="595" y="53" type="line"/>
    </contour>
  </outline>
</glyph>
<glyph name="AE" format="2">
  <advance width="912"/>
  <unicode hex="00C6"/>
  <anchor x="542" y="740" name="top"/>
  <outline>
    <contour>
      <point x="10" y="0" type="line"/>
      <point x="198" y="0" type="line"/>
      <point x="453" y="612" type="line"/>
      <point x="301" y="520" type="line"/>
      <point x="452" y="520" type="line"/>
      <point x="452" y="0" type="line"/>
      <point x="862" y="0" type="line"/>
      <point x="862" y="160" type="line"/>
      <point x="632" y="160" type="line"/>
      <point x="632" y="265" type="line"/>
      <point x="822" y="265" type="line"/>
      <point x="822" y="425" type="line"/>
      <point x="632" y="425" type="line"/>
      <point x="632" y="520" type="line"/>
      <point x="862" y="520" type="line"/>
      <point x="862" y="680" type="line"/>
      <point x="286" y="680" type="line"/>
    </contour>
    <contour>
      <point x="217" y="212" type="line"/>
      <point x="517" y="212" type="line"/>
      <point x="517" y="372" type="line"/>
      <point x="237" y="372" type="line"/>
    </contour>
  </outline>
</glyph>
<glyph name="Eth" format="2">
  <advance width="640"/>
  <unicode hex="00D0"/>
  <outline>
    <component base="D"/>
    <contour>
      <point x="10" y="280" type="line"/>
      <point x="290" y="280" type="line"/>
      <point x="290" y="440" type="line"/>
      <point x="10" y="440" type="line"/>
    </contour>
  </outline>
</glyph>
<glyph name="multiply" format="2">
  <advance width="520"/>
  <unicode hex="00D7"/>
  <outline>
    <contour>
      <point x="397" y="125" type="line"/>
      <point x="449" y="179" type="line"/>
      <point x="124" y="505" type="line"/>
      <point x="71" y="451" type="line"/>
    </contour>
    <contour>
      <point x="70" y="178" type="line"/>
      <point x="123" y="125" type="line"/>
      <point x="449" y="451" type="line"/>
      <point x="397" y="504" type="line"/>
    </contour>
  </outline>
</glyph>
<glyph name="Oslash" format="2">
  <advance width="705"/>
  <unicode hex="00D8"/>
  <outline>
    <component base="O"/>
    <contour>
      <point x="14" y="-10" type="line"/>
      <point x="194" y="-10" type="line"/>
      <point x="656" y="690" type="line"/>
      <point x="476" y="690" type="line"/>
    </contour>
  </outline>
</glyph>
<glyph name="Thorn" format="2">
  <advance width="534"/>
  <unicode hex="00DE"/>
  <outline>
    <contour>
      <point x="50" y="0" type="line"/>
      <point x="230" y="0" type="line"/>
      <point x="230" y="690" type="line"/>
      <point x="50" y="690" type="line"/>
    </contour>
    <contour>
      <point x="170" y="112" type="line"/>
      <point x="222" y="112" type="line" smooth="yes"/>
      <point x="414" y="112"/>
      <point x="504" y="200"/>
      <point x="504" y="349" type="curve" smooth="yes"/>
      <point x="504" y="501"/>
      <point x="421" y="586"/>
      <point x="228" y="586" type="curve" smooth="yes"/>
      <point x="170" y="586" type="line"/>
      <point x="170" y="426" type="line"/>
      <point x="222" y="426" type="line" smooth="yes"/>
      <point x="287" y="426"/>
      <point x="320" y="402"/>
      <point x="320" y="348" type="curve" smooth="yes"/>
      <point x="320" y="287"/>
      <point x="281" y="272"/>
      <point x="222" y="272" type="curve" smooth="yes"/>
      <point x="170" y="272" type="line"/>
    </contour>
  </outline>
</glyph>
<glyph name="germandbls" format="2">
  <advance width="577"/>
  <unicode hex="00DF"/>
  <outline>
    <contour>
      <point x="40" y="0" type="line"/>
      <point x="216" y="0" type="line"/>
      <point x="216" y="480" type="line" smooth="yes"/>
      <point x="216" y="516"/>
      <point x="238" y="540"/>
      <point x="269" y="540" type="curve" smooth="yes"/>
      <point x="298" y="540"/>
      <point x="321" y="520"/>
      <point x="321" y="487" type="curve" smooth="yes"/>
      <point x="321" y="460"/>
      <point x="306" y="440"/>
      <point x="283" y="440" type="curve" smooth="yes"/>
      <point x="270" y="440" type="line"/>
      <point x="270" y="284" type="line"/>
      <point x="294" y="284" type="line" smooth="yes"/>
      <point x="339" y="284"/>
      <point x="367" y="254"/>
      <point x="367" y="208" type="curve" smooth="yes"/>
      <point x="367" y="167"/>
      <point x="345" y="140"/>
      <point x="312" y="140" type="curve" smooth="yes"/>
      <point x="300" y="140"/>
      <point x="286" y="143"/>
      <point x="260" y="151" type="curve"/>
      <point x="260" y="-4" type="line"/>
      <point x="291" y="-12"/>
      <point x="318" y="-16"/>
      <point x="344" y="-16" type="curve" smooth="yes"/>
      <point x="473" y="-16"/>
      <point x="547" y="69"/>
      <point x="547" y="216" type="curve" smooth="yes"/>
      <point x="547" y="325"/>
      <point x="486" y="387"/>
      <point x="395" y="398" type="curve"/>
      <point x="400" y="367" type="line"/>
      <point x="466" y="391"/>
      <point x="501" y="443"/>
      <point x="501" y="518" type="curve" smooth="yes"/>
      <point x="501" y="627"/>
      <point x="410" y="696"/>
      <point x="268" y="696" type="curve" smooth="yes"/>
      <point x="132" y="696"/>
      <point x="40" y="614"/>
      <point x="40" y="492" type="curve" smooth="yes"/>
    </contour>
  </outline>
</glyph>
<glyph name="ae" format="2">
  <advance width="847"/>
  <unicode hex="00E6"/>
  <outline>
    <contour>
      <point x="327" y="240" type="curve" smooth="yes"/>
      <point x="327" y="83"/>
      <point x="420" y="-16"/>
      <point x="572" y="-16" type="curve" smooth="yes"/>
      <point x="688" y="-16"/>
      <point x="789" y="49"/>
      <point x="814" y="164" type="curve"/>
      <point x="620" y="164" type="line"/>
      <point x="608" y="148"/>
      <point x="594" y="140"/>
      <point x="572" y="140" type="curve" smooth="yes"/>
      <point x="535" y="140"/>
      <point x="507" y="169"/>
      <point x="507" y="232" type="curve" smooth="yes"/>
      <point x="507" y="303"/>
      <point x="544" y="320"/>
      <point x="572" y="320" type="curve" smooth="yes"/>
      <point x="596" y="320"/>
      <point x="616" y="307"/>
      <point x="627" y="283" type="curve"/>
      <point x="418" y="283" type="line"/>
      <point x="418" y="193" type="line"/>
      <point x="817" y="193" type="line"/>
      <point x="817" y="231" type="line" smooth="yes"/>
      <point x="817" y="382"/>
      <point x="708" y="476"/>
      <point x="572" y="476" type="curve" smooth="yes"/>
      <point x="435" y="476"/>
      <point x="327" y="383"/>
    </contour>
    <contour>
      <point x="55" y="300" type="curve"/>
      <point x="221" y="300" type="line"/>
      <point x="227" y="335"/>
      <point x="244" y="355"/>
      <point x="278" y="355" type="curve" smooth="yes"/>
      <point x="308" y="355"/>
      <point x="327" y="338"/>
      <point x="327" y="310" type="curve" smooth="yes"/>
      <point x="327" y="87" type="line"/>
      <point x="503" y="87" type="line"/>
      <point x="503" y="301" type="line" smooth="yes"/>
      <point x="503" y="417"/>
      <point x="428" y="476"/>
      <point x="285" y="476" type="curve" smooth="yes"/>
      <point x="145" y="476"/>
      <point x="65" y="413"/>
    </contour>
    <contour>
      <point x="30" y="123" type="curve" smooth="yes"/>
      <point x="30" y="40"/>
      <point x="91" y="-16"/>
      <point x="181" y="-16" type="curve" smooth="yes"/>
      <point x="281" y="-16"/>
      <point x="347" y="20"/>
      <point x="407" y="105" type="curve"/>
      <point x="335" y="163" type="line"/>
      <point x="321" y="141"/>
      <point x="286" y="100"/>
      <point x="249" y="100" type="curve" smooth="yes"/>
      <point x="226" y="100"/>
      <point x="210" y="118"/>
      <point x="210" y="141" type="curve" smooth="yes"/>
      <point x="210" y="167"/>
      <point x="227" y="183"/>
      <point x="260" y="188" type="curve" smooth="yes"/>
      <point x="342" y="201" type="line"/>
      <point x="342" y="289" type="line"/>
      <point x="256" y="281" type="line" smooth="yes"/>
      <point x="112" y="268"/>
      <point x="30" y="211"/>
    </contour>
  </outline>
</glyph>
<glyph name="iacute" format="2">
  <advance width="280"/>
  <unicode hex="00ED"/>
  <outline>
    <component base="dotlessi" xOffset="40"/>
    <contour>
      <point x="108" y="520" type="line"/>
      <point x="158" y="680" type="line"/>
      <point x="238" y="680" type="line"/>
      <point x="172" y="520" type="line"/>
    </contour>
  </outline>
</glyph>
<glyph name="eth" format="2">
  <advance width="528"/>
  <unicode hex="00F0"/>
  <outline>
    <contour>
      <point x="113" y="605" type="line"/>
      <point x="280" y="531"/>
      <point x="340" y="407"/>
      <point x="340" y="219" type="curve"/>
      <point x="520" y="219" type="line"/>
      <point x="520" y="441"/>
      <point x="379" y="621"/>
      <point x="191" y="699" type="curve"/>
    </contour>
    <contour>
      <point x="173" y="474" type="line"/>
      <point x="447" y="589" type="line"/>
      <point x="399" y="651" type="line"/>
      <point x="125" y="536" type="line"/>
    </contour>
    <contour>
      <point x="30" y="215" type="curve" smooth="yes"/>
      <point x="30" y="78"/>
      <point x="129" y="-16"/>
      <point x="275" y="-16" type="curve" smooth="yes"/>
      <point x="419" y="-16"/>
      <point x="520" y="80"/>
      <point x="520" y="215" type="curve" smooth="yes"/>
      <point x="520" y="355"/>
      <point x="417" y="446"/>
      <point x="275" y="446" type="curve" smooth="yes"/>
      <point x="135" y="446"/>
      <point x="30" y="353"/>
    </contour>
    <contour>
      <point x="210" y="215" type="curve" smooth="yes"/>
      <point x="210" y="262"/>
      <point x="239" y="290"/>
      <point x="275" y="290" type="curve" smooth="yes"/>
      <point x="310" y="290"/>
      <point x="340" y="260"/>
      <point x="340" y="215" type="curve" smooth="yes"/>
      <point x="340" y="171"/>
      <point x="313" y="140"/>
      <point x="275" y="140" type="curve" smooth="yes"/>
      <point x="237" y="140"/>
      <point x="210" y="173"/>
    </contour>
  </outline>
</glyph>
<glyph name="ntilde" format="2">
  <advance width="478"/>
  <unicode hex="00F1"/>
  <outline>
    <component base="tilde" xOffset="36"/>
    <contour>
      <point x="45" y="0" type="line"/>
      <point x="45" y="460" type="line"/>
      <point x="205" y="460" type="line"/>
      <point x="225" y="360" type="line"/>
      <point x="225" y="0" type="line"/>
    </contour>
  </outline>
</glyph>
<glyph name="divide" format="2">
  <advance width="502"/>
  <unicode hex="00F7"/>
  <outline>
    <contour>
      <point x="171" y="-30" type="line"/>
      <point x="331" y="-30" type="line"/>
      <point x="331" y="130" type="line"/>
      <point x="171" y="130" type="line"/>
    </contour>
    <contour>
      <point x="40" y="163" type="line"/>
      <point x="462" y="163" type="line"/>
      <point x="462" y="323" type="line"/>
      <point x="40" y="323" type="line"/>
    </contour>
    <contour>
      <point x="171" y="356" type="line"/>
      <point x="331" y="356" type="line"/>
      <point x="331" y="516" type="line"/>
      <point x="171" y="516" type="line"/>
    </contour>
  </outline>
  <guideline angle="90" x="251" y="0"/>
</glyph>
<glyph name="oslash" format="2">
  <advance width="553"/>
  <unicode hex="00F8"/>
  <outline>
    <component base="o" xOffset="3"/>
    <contour>
      <point x="30" y="0" type="line"/>
      <point x="90" y="0" type="line"/>
      <point x="514" y="460" type="line"/>
      <point x="454" y="460" type="line"/>
    </contour>
  </outline>
</glyph>
<glyph name="thorn" format="2">
  <advance width="562"/>
  <unicode hex="00FE"/>
  <outline>
    <component base="p"/>
    <contour>
      <point x="40" y="0" type="line"/>
      <point x="216" y="0" type="line"/>
      <point x="216" y="6" type="line"/>
      <point x="196" y="53" type="line"/>
      <point x="196" y="326" type="line"/>
      <point x="216" y="356" type="line"/>
      <point x="216" y="700" type="line"/>
      <point x="40" y="700" type="line"/>
    </contour>
  </outline>
</glyph>
<glyph name="ydieresis" format="2">
  <advance width="460"/>
  <unicode hex="00FF"/>
  <outline>
    <contour>
      <point x="30" y="460" type="curve"/>
      <point x="110" y="460" type="line"/>
      <point x="137" y="398"/>
      <point x="216" y="219"/>
      <point x="239" y="98" type="curve"/>
      <point x="354" y="460" type="line"/>
      <point x="430" y="460" type="line"/>
      <point x="258" y="-49" type="line" smooth="yes"/>
      <point x="252" y="-67"/>
      <point x="225" y="-200"/>
      <point x="150" y="-200" type="curve" smooth="yes"/>
      <point x="108" y="-200"/>
      <point x="89" y="-198"/>
      <point x="58" y="-190" type="curve"/>
      <point x="58" y="-120" type="line"/>
      <point x="78" y="-129"/>
      <point x="94" y="-135"/>
      <point x="116" y="-135" type="curve" smooth="yes"/>
      <point x="122" y="-135" type="line" smooth="yes"/>
      <point x="163" y="-135"/>
      <point x="187" y="-54"/>
      <point x="198" y="-12" type="curve"/>
      <point x="172" y="145"/>
      <point x="70" y="374"/>
    </contour>
    <contour>
      <point x="111" y="520" type="line"/>
      <point x="111" y="600" type="line"/>
      <point x="191" y="600" type="line"/>
      <point x="191" y="520" type="line"/>
    </contour>
    <contour>
      <point x="268" y="520" type="line"/>
      <point x="268" y="600" type="line"/>
      <point x="348" y="600" type="line"/>
      <point x="348" y="520" type="line"/>
    </contour>
  </outline>
</glyph>
<glyph name="dcaron" format="2">
  <advance width="491"/>
  <unicode hex="010F"/>
  <outline>
    <contour>
      <point x="536" y="490" type="line"/>
      <point x="558" y="620" type="line"/>
      <point x="536" y="620" type="line"/>
      <point x="536" y="700" type="line"/>
      <point x="616" y="700" type="line"/>
      <point x="616" y="620" type="line"/>
      <point x="570" y="490" type="line"/>
    </contour>
    <contour>
      <point x="35" y="230" type="curve"/>
      <point x="35" y="230"/>
      <point x="36" y="231"/>
      <point x="36" y="231" type="curve"/>
      <point x="36" y="345"/>
      <point x="92" y="471"/>
      <point x="226" y="471" type="curve" smooth="yes"/>
      <point x="286" y="471"/>
      <point x="338" y="437"/>
      <point x="366" y="381" type="curve"/>
      <point x="366" y="700" type="line"/>
      <point x="446" y="700" type="line"/>
      <point x="446" y="0" type="line"/>
      <point x="366" y="0" type="line"/>
      <point x="366" y="72" type="line"/>
      <point x="343" y="21"/>
      <point x="283" y="-10"/>
      <point x="225" y="-10" type="curve" smooth="yes"/>
      <point x="96" y="-10"/>
      <point x="35" y="100"/>
    </contour>
    <contour>
      <point x="115" y="230" type="curve" smooth="yes"/>
      <point x="115" y="123"/>
      <point x="156" y="55"/>
      <point x="245" y="55" type="curve" smooth="yes"/>
      <point x="324" y="55"/>
      <point x="365" y="123"/>
      <point x="365" y="230" type="curve" smooth="yes"/>
      <point x="365" y="321"/>
      <point x="330" y="405"/>
      <point x="245" y="405" type="curve" smooth="yes"/>
      <point x="135" y="405"/>
      <point x="115" y="305"/>
    </contour>
  </outline>
</glyph>
<glyph name="dcroat" format="2">
  <advance width="562"/>
  <unicode hex="0111"/>
  <outline>
    <component base="d"/>
    <contour>
      <point x="235" y="510" type="line"/>
      <point x="562" y="510" type="line"/>
      <point x="562" y="630" type="line"/>
      <point x="235" y="630" type="line"/>
    </contour>
  </outline>
</glyph>
<glyph name="Eogonek" format="2">
  <advance width="510"/>
  <unicode hex="0118"/>
  <outline>
    <contour>
      <point x="184" y="-120" type="curve" smooth="yes"/>
      <point x="184" y="-66"/>
      <point x="222" y="-21"/>
      <point x="255" y="4" type="curve"/>
      <point x="313" y="4" type="line"/>
      <point x="270" y="-28"/>
      <point x="245" y="-65"/>
      <point x="245" y="-104" type="curve" smooth="yes"/>
      <point x="245" y="-135"/>
      <point x="267" y="-150"/>
      <point x="291" y="-150" type="curve" smooth="yes"/>
      <point x="307" y="-150"/>
      <point x="320" y="-145"/>
      <point x="331" y="-137" type="curve"/>
      <point x="353" y="-178" type="line"/>
      <point x="334" y="-193"/>
      <point x="299" y="-205"/>
      <point x="274" y="-205" type="curve" smooth="yes"/>
      <point x="224" y="-205"/>
      <point x="184" y="-176"/>
    </contour>
    <contour>
      <point x="50" y="0" type="line"/>
      <point x="50" y="212" type="line"/>
      <point x="50" y="700" type="line"/>
      <point x="460" y="700" type="line"/>
      <point x="460" y="620" type="line"/>
      <point x="140" y="620" type="line"/>
      <point x="140" y="397" type="line"/>
      <point x="420" y="397" type="line"/>
      <point x="420" y="317" type="line"/>
      <point x="140" y="317" type="line"/>
      <point x="140" y="80" type="line"/>
      <point x="460" y="80" type="line"/>
      <point x="460" y="0" type="line"/>
    </contour>
  </outline>
</glyph>
<glyph name="eogonek" format="2">
  <advance width="471"/>
  <unicode hex="0119"/>
  <outline>
    <contour>
      <point x="141" y="-130" type="curve" smooth="yes"/>
      <point x="141" y="-76"/>
      <point x="179" y="-31"/>
      <point x="212" y="-6" type="curve"/>
      <point x="270" y="-6" type="line"/>
      <point x="227" y="-38"/>
      <point x="202" y="-75"/>
      <point x="202" y="-114" type="curve" smooth="yes"/>
      <point x="202" y="-145"/>
      <point x="224" y="-160"/>
      <point x="248" y="-160" type="curve" smooth="yes"/>
      <point x="264" y="-160"/>
      <point x="277" y="-155"/>
      <point x="288" y="-147" type="curve"/>
      <point x="310" y="-188" type="line"/>
      <point x="291" y="-203"/>
      <point x="256" y="-215"/>
      <point x="231" y="-215" type="curve" smooth="yes"/>
      <point x="181" y="-215"/>
      <point x="141" y="-186"/>
    </contour>
    <contour>
      <point x="34" y="240" type="curve" smooth="yes"/>
      <point x="34" y="348"/>
      <point x="95" y="470"/>
      <point x="240" y="470" type="curve" smooth="yes"/>
      <point x="379" y="470"/>
      <point x="435" y="350"/>
      <point x="435" y="210" type="curve"/>
      <point x="119" y="210" type="line"/>
      <point x="126" y="141"/>
      <point x="157" y="70"/>
      <point x="241" y="70" type="curve" smooth="yes"/>
      <point x="285" y="70"/>
      <point x="332" y="88"/>
      <point x="355" y="114" type="curve"/>
      <point x="416" y="98" type="line"/>
      <point x="400" y="58"/>
      <point x="342" y="-10"/>
      <point x="240" y="-10" type="curve" smooth="yes"/>
      <point x="84" y="-10"/>
      <point x="34" y="122"/>
    </contour>
    <contour>
      <point x="119" y="290" type="curve"/>
      <point x="358" y="290" type="line"/>
      <point x="345" y="358"/>
      <point x="310" y="390"/>
      <point x="240" y="390" type="curve" smooth="yes"/>
      <point x="181" y="390"/>
      <point x="129" y="353"/>
    </contour>
  </outline>
</glyph>
<glyph name="Hbar" format="2">
  <advance width="660"/>
  <unicode hex="0126"/>
  <anchor x="330" y="-40" name="bottom"/>
  <anchor x="498" y="0" name="b.cedilla"/>
  <outline>
    <component base="H"/>
    <contour>
      <point x="20" y="470" type="line"/>
      <point x="640" y="470" type="line"/>
      <point x="640" y="620" type="line"/>
      <point x="20" y="620" type="line"/>
    </contour>
  </outline>
</glyph>
<glyph name="hbar" format="2">
  <advance width="571"/>
  <unicode hex="0127"/>
  <outline>
    <component base="h"/>
    <contour>
      <point x="0" y="528" type="line"/>
      <point x="355" y="528" type="line"/>
      <point x="355" y="648" type="line"/>
      <point x="0" y="648" type="line"/>
    </contour>
  </outline>
</glyph>
<glyph name="dotlessi" format="2">
  <advance width="296"/>
  <unicode hex="0131"/>
  <outline>
    <contour>
      <point x="60" y="0" type="line"/>
      <point x="236" y="0" type="line"/>
      <point x="236" y="460" type="line"/>
      <point x="60" y="460" type="line"/>
    </contour>
  </outline>
</glyph>
<glyph name="IJ" format="2">
  <advance width="418"/>
  <unicode hex="0132"/>
  <outline>
    <contour>
      <point x="180" y="0" type="line"/>
      <point x="180" y="90" type="line"/>
      <point x="206" y="90" type="line" smooth="yes"/>
      <point x="246" y="90"/>
      <point x="278" y="106"/>
      <point x="278" y="170" type="curve" smooth="yes"/>
      <point x="278" y="700" type="line"/>
      <point x="368" y="700" type="line"/>
      <point x="368" y="174" type="line" smooth="yes"/>
      <point x="368" y="70"/>
      <point x="326" y="0"/>
      <point x="204" y="0" type="curve" smooth="yes"/>
    </contour>
    <contour>
      <point x="50" y="0" type="line"/>
      <point x="50" y="700" type="line"/>
      <point x="140" y="700" type="line"/>
      <point x="140" y="0" type="line"/>
    </contour>
  </outline>
</glyph>
<glyph name="ij" format="2">
  <advance width="330"/>
  <unicode hex="0133"/>
  <outline>
    <contour>
      <point x="180" y="530" type="line"/>
      <point x="180" y="610" type="line"/>
      <point x="260" y="610" type="line"/>
      <point x="260" y="530" type="line"/>
    </contour>
    <contour>
      <point x="32" y="-100" type="curve"/>
      <point x="97" y="-100" type="line"/>
      <point x="97" y="-132"/>
      <point x="124" y="-135"/>
      <point x="140" y="-135" type="curve"/>
      <point x="140" y="-135"/>
      <point x="140" y="-135"/>
      <point x="140" y="-135" type="curve"/>
      <point x="167" y="-135"/>
      <point x="180" y="-109"/>
      <point x="180" y="-15" type="curve" smooth="yes"/>
      <point x="180" y="143"/>
      <point x="180" y="302"/>
      <point x="180" y="460" type="curve"/>
      <point x="260" y="460" type="line"/>
      <point x="260" y="9" type="line" smooth="yes"/>
      <point x="260" y="-171"/>
      <point x="203" y="-200"/>
      <point x="138" y="-200" type="curve" smooth="yes"/>
      <point x="97" y="-200"/>
      <point x="58" y="-178"/>
      <point x="41" y="-141" type="curve" smooth="yes"/>
      <point x="35" y="-129"/>
      <point x="32" y="-115"/>
    </contour>
    <contour>
      <point x="20" y="530" type="line"/>
      <point x="20" y="610" type="line"/>
      <point x="100" y="610" type="line"/>
      <point x="100" y="530" type="line"/>
    </contour>
    <contour>
      <point x="20" y="0" type="line"/>
      <point x="20" y="460" type="line"/>
      <point x="100" y="460" type="line"/>
      <point x="100" y="0" type="line"/>
    </contour>
  </outline>
</glyph>
<glyph name="kgreenlandic" format="2">
  <advance width="587"/>
  <unicode hex="0138"/>
  <outline>
    <contour>
      <point x="40" y="0" type="line"/>
      <point x="216" y="0" type="line"/>
      <point x="216" y="460" type="line"/>
      <point x="40" y="420" type="line"/>
    </contour>
    <contour>
      <point x="175" y="57" type="line"/>
      <point x="533" y="460" type="line"/>
      <point x="313" y="460" type="line"/>
      <point x="175" y="305" type="line"/>
    </contour>
    <contour>
      <point x="221" y="183" type="line"/>
      <point x="357" y="0" type="line"/>
      <point x="577" y="0" type="line"/>
      <point x="341" y="317" type="line"/>
    </contour>
  </outline>
</glyph>
<glyph name="Lcommaaccent" format="2">
  <advance width="510"/>
  <unicode hex="013B"/>
  <outline>
    <contour>
      <point x="215" y="-60" type="line"/>
      <point x="295" y="-60" type="line"/>
      <point x="295" y="-140" type="line"/>
      <point x="249" y="-270" type="line"/>
      <point x="215" y="-270" type="line"/>
      <point x="237" y="-140" type="line"/>
      <point x="215" y="-140" type="line"/>
    </contour>
    <contour>
      <point x="50" y="0" type="line"/>
      <point x="50" y="700" type="line"/>
      <point x="140" y="700" type="line"/>
      <point x="140" y="80" type="line"/>
      <point x="460" y="80" type="line"/>
      <point x="460" y="0" type="line"/>
    </contour>
  </outline>
</glyph>
<glyph name="Lcaron" format="2">
  <advance width="510"/>
  <unicode hex="013D"/>
  <outline>
    <contour>
      <point x="270" y="490" type="line"/>
      <point x="292" y="620" type="line"/>
      <point x="270" y="620" type="line"/>
      <point x="270" y="700" type="line"/>
      <point x="350" y="700" type="line"/>
      <point x="350" y="620" type="line"/>
      <point x="304" y="490" type="line"/>
    </contour>
    <contour>
      <point x="50" y="0" type="line"/>
      <point x="50" y="700" type="line"/>
      <point x="140" y="700" type="line"/>
      <point x="140" y="80" type="line"/>
      <point x="460" y="80" type="line"/>
      <point x="460" y="0" type="line"/>
    </contour>
  </outline>
</glyph>
<glyph name="lcaron" format="2">
  <advance width="220"/>
  <unicode hex="013E"/>
  <outline>
    <contour>
      <point x="170" y="490" type="line"/>
      <point x="192" y="620" type="line"/>
      <point x="170" y="620" type="line"/>
      <point x="170" y="700" type="line"/>
      <point x="250" y="700" type="line"/>
      <point x="250" y="620" type="line"/>
      <point x="204" y="490" type="line"/>
    </contour>
    <contour>
      <point x="70" y="0" type="line"/>
      <point x="70" y="700" type="line"/>
      <point x="150" y="700" type="line"/>
      <point x="150" y="0" type="line"/>
    </contour>
  </outline>
</glyph>
<glyph name="ldot" format="2">
  <advance width="370"/>
  <unicode hex="0140"/>
  <outline>
    <contour>
      <point x="220" y="230" type="line"/>
      <point x="220" y="310" type="line"/>
      <point x="300" y="310" type="line"/>
      <point x="300" y="230" type="line"/>
    </contour>
    <contour>
      <point x="70" y="0" type="line"/>
      <point x="70" y="700" type="line"/>
      <point x="150" y="700" type="line"/>
      <point x="150" y="0" type="line"/>
    </contour>
  </outline>
</glyph>
<glyph name="Lslash" format="2">
  <advance width="561"/>
  <unicode hex="0141"/>
  <outline>
    <contour>
      <point x="20" y="87" type="line"/>
      <point x="20" y="267" type="line"/>
      <point x="370" y="571" type="line"/>
      <point x="370" y="391" type="line"/>
    </contour>
    <contour>
      <point x="230" y="160" type="line"/>
      <point x="480" y="160" type="line"/>
      <point x="480" y="0" type="line"/>
      <point x="230" y="0" type="line"/>
    </contour>
    <contour>
      <point x="90" y="0" type="line"/>
      <point x="90" y="680" type="line"/>
      <point x="270" y="680" type="line"/>
      <point x="270" y="0" type="line"/>
    </contour>
  </outline>
  <guideline angle="90" x="429" y="0"/>
  <guideline angle="220.941" x="370" y="521"/>
  <guideline angle="40.9407" x="121" y="217"/>
  <guideline angle="90" x="20" y="0"/>
</glyph>
<glyph name="lslash" format="2">
  <advance width="448"/>
  <unicode hex="0142"/>
  <outline>
    <contour>
      <point x="15" y="151" type="line"/>
      <point x="172" y="338" type="line"/>
      <point x="172" y="700" type="line"/>
      <point x="252" y="700" type="line"/>
      <point x="252" y="434" type="line"/>
      <point x="330" y="527" type="line"/>
      <point x="433" y="527" type="line"/>
      <point x="252" y="309" type="line"/>
      <point x="252" y="0" type="line"/>
      <point x="172" y="0" type="line"/>
      <point x="172" y="214" type="line"/>
      <point x="119" y="151" type="line"/>
    </contour>
  </outline>
</glyph>
<glyph name="ncommaaccent" format="2">
  <advance width="478"/>
  <unicode hex="0146"/>
  <outline>
    <contour>
      <point x="199" y="-60" type="curve"/>
      <point x="279" y="-60" type="line"/>
      <point x="279" y="-140" type="line"/>
      <point x="233" y="-270" type="line"/>
      <point x="199" y="-270" type="line"/>
      <point x="221" y="-140" type="line"/>
      <point x="199" y="-140" type="line"/>
      <point x="199" y="-113"/>
      <point x="199" y="-87"/>
    </contour>
    <contour>
      <point x="46" y="0" type="line"/>
      <point x="46" y="460" type="line"/>
      <point x="126" y="460" type="line"/>
      <point x="126" y="370" type="line"/>
      <point x="167" y="417"/>
      <point x="237" y="470"/>
      <point x="307" y="470" type="curve" smooth="yes"/>
      <point x="428" y="470"/>
      <point x="433" y="382"/>
      <point x="433" y="300" type="curve" smooth="yes"/>
      <point x="433" y="0" type="line"/>
      <point x="353" y="0" type="line"/>
      <point x="353" y="270" type="line" smooth="yes"/>
      <point x="353" y="325"/>
      <point x="354" y="365"/>
      <point x="333" y="388" type="curve" smooth="yes"/>
      <point x="323" y="399"/>
      <point x="309" y="405"/>
      <point x="287" y="405" type="curve" smooth="yes"/>
      <point x="223" y="405"/>
      <point x="125" y="343"/>
      <point x="125" y="230" type="curve" smooth="yes"/>
      <point x="125" y="0" type="line"/>
    </contour>
  </outline>
</glyph>
<glyph name="ncaron" format="2">
  <advance width="478"/>
  <unicode hex="0148"/>
  <outline>
    <component base="caron" xOffset="69"/>
    <contour>
      <point x="45" y="0" type="line"/>
      <point x="45" y="460" type="line"/>
      <point x="205" y="460" type="line"/>
      <point x="225" y="360" type="line"/>
      <point x="225" y="0" type="line"/>
    </contour>
  </outline>
</glyph>
<glyph name="eng" format="2">
  <advance width="571"/>
  <unicode hex="014B"/>
  <outline>
    <component base="n"/>
    <contour>
      <point x="281" y="-200" type="line"/>
      <point x="379" y="-200" type="line" smooth="yes"/>
      <point x="464" y="-200"/>
      <point x="531" y="-139"/>
      <point x="531" y="-62" type="curve" smooth="yes"/>
      <point x="531" y="92" type="line"/>
      <point x="355" y="92" type="line"/>
      <point x="355" y="-4" type="line" smooth="yes"/>
      <point x="355" y="-27"/>
      <point x="324" y="-44"/>
      <point x="281" y="-44" type="curve"/>
    </contour>
  </outline>
</glyph>
<glyph name="OE" format="2">
  <advance width="950"/>
  <unicode hex="0152"/>
  <outline>
    <contour>
      <point x="30" y="340" type="curve" smooth="yes"/>
      <point x="30" y="123"/>
      <point x="155" y="-16"/>
      <point x="352" y="-16" type="curve" smooth="yes"/>
      <point x="404" y="-16"/>
      <point x="450" y="0"/>
      <point x="490" y="20" type="curve"/>
      <point x="490" y="0" type="line"/>
      <point x="900" y="0" type="line"/>
      <point x="900" y="160" type="line"/>
      <point x="670" y="160" type="line"/>
      <point x="670" y="265" type="line"/>
      <point x="860" y="265" type="line"/>
      <point x="860" y="425" type="line"/>
      <point x="670" y="425" type="line"/>
      <point x="670" y="520" type="line"/>
      <point x="900" y="520" type="line"/>
      <point x="900" y="680" type="line"/>
      <point x="490" y="680" type="line"/>
      <point x="490" y="660" type="line"/>
      <point x="450" y="680"/>
      <point x="404" y="696"/>
      <point x="352" y="696" type="curve" smooth="yes"/>
      <point x="155" y="696"/>
      <point x="30" y="557"/>
    </contour>
    <contour>
      <point x="214" y="340" type="curve" smooth="yes"/>
      <point x="214" y="459"/>
      <point x="268" y="536"/>
      <point x="352" y="536" type="curve" smooth="yes"/>
      <point x="436" y="536"/>
      <point x="490" y="457"/>
      <point x="490" y="342" type="curve" smooth="yes"/>
      <point x="490" y="330" type="line" smooth="yes"/>
      <point x="490" y="221"/>
      <point x="433" y="144"/>
      <point x="352" y="144" type="curve" smooth="yes"/>
      <point x="268" y="144"/>
      <point x="214" y="221"/>
    </contour>
  </outline>
</glyph>
<glyph name="oe" format="2">
  <advance width="844"/>
  <unicode hex="0153"/>
  <outline>
    <component base="e" xOffset="386"/>
    <contour>
      <point x="255" y="-16" type="line"/>
      <point x="115" y="-16"/>
      <point x="20" y="84"/>
      <point x="20" y="230" type="curve" smooth="yes"/>
      <point x="20" y="375"/>
      <point x="118" y="476"/>
      <point x="255" y="476" type="curve"/>
      <point x="255" y="320" type="line"/>
      <point x="216" y="320"/>
      <point x="200" y="294"/>
      <point x="200" y="230" type="curve" smooth="yes"/>
      <point x="200" y="168"/>
      <point x="217" y="140"/>
      <point x="255" y="140" type="curve"/>
    </contour>
    <contour>
      <point x="255" y="476" type="line"/>
      <point x="395" y="476"/>
      <point x="490" y="376"/>
      <point x="490" y="230" type="curve" smooth="yes"/>
      <point x="490" y="85"/>
      <point x="392" y="-16"/>
      <point x="255" y="-16" type="curve"/>
      <point x="255" y="140" type="line"/>
      <point x="294" y="140"/>
      <point x="310" y="166"/>
      <point x="310" y="230" type="curve" smooth="yes"/>
      <point x="310" y="292"/>
      <point x="293" y="320"/>
      <point x="255" y="320" type="curve"/>
    </contour>
  </outline>
</glyph>
<glyph name="Racute" format="2">
  <advance width="580"/>
  <unicode hex="0154"/>
  <outline>
    <contour>
      <point x="228" y="750" type="line"/>
      <point x="278" y="910" type="line"/>
      <point x="358" y="910" type="line"/>
      <point x="292" y="750" type="line"/>
    </contour>
    <contour>
      <point x="412" y="300" type="line"/>
      <point x="530" y="0" type="line"/>
      <point x="340" y="0" type="line"/>
      <point x="222" y="300" type="line"/>
    </contour>
  </outline>
</glyph>
<glyph name="racute" format="2">
  <advance width="370"/>
  <unicode hex="0155"/>
  <outline>
    <contour>
      <point x="45" y="0" type="line"/>
      <point x="45" y="460" type="line"/>
      <point x="125" y="460" type="line"/>
      <point x="125" y="370" type="line"/>
      <point x="148" y="421"/>
      <point x="212" y="470"/>
      <point x="272" y="470" type="curve"/>
      <point x="272" y="470"/>
      <point x="272" y="470"/>
      <point x="272" y="470" type="curve"/>
      <point x="295" y="470"/>
      <point x="317" y="466"/>
      <point x="335" y="460" type="curve"/>
      <point x="335" y="359" type="line"/>
      <point x="312" y="379"/>
      <point x="278" y="390"/>
      <point x="246" y="390" type="curve" smooth="yes"/>
      <point x="237" y="390"/>
      <point x="228" y="388"/>
      <point x="219" y="385" type="curve" smooth="yes"/>
      <point x="174" y="368"/>
      <point x="137" y="312"/>
      <point x="125" y="233" type="curve"/>
      <point x="125" y="0" type="line"/>
    </contour>
    <contour>
      <point x="120" y="520" type="line"/>
      <point x="170" y="700" type="line"/>
      <point x="250" y="700" type="line"/>
      <point x="184" y="520" type="line"/>
    </contour>
  </outline>
</glyph>
<glyph name="rcommaaccent" format="2">
  <advance width="370"/>
  <unicode hex="0157"/>
  <outline>
    <contour>
      <point x="45" y="-60" type="curve"/>
      <point x="125" y="-60" type="line"/>
      <point x="125" y="-140" type="line"/>
      <point x="79" y="-270" type="line"/>
      <point x="45" y="-270" type="line"/>
      <point x="67" y="-140" type="line"/>
      <point x="45" y="-140" type="line"/>
      <point x="45" y="-113"/>
      <point x="45" y="-87"/>
    </contour>
    <contour>
      <point x="45" y="0" type="line"/>
      <point x="45" y="460" type="line"/>
      <point x="125" y="460" type="line"/>
      <point x="125" y="370" type="line"/>
      <point x="148" y="421"/>
      <point x="212" y="470"/>
      <point x="272" y="470" type="curve"/>
      <point x="272" y="470"/>
      <point x="272" y="470"/>
      <point x="272" y="470" type="curve"/>
      <point x="295" y="470"/>
      <point x="317" y="466"/>
      <point x="335" y="460" type="curve"/>
      <point x="335" y="359" type="line"/>
      <point x="312" y="379"/>
      <point x="278" y="390"/>
      <point x="246" y="390" type="curve" smooth="yes"/>
      <point x="237" y="390"/>
      <point x="228" y="388"/>
      <point x="219" y="385" type="curve" smooth="yes"/>
      <point x="174" y="368"/>
      <point x="137" y="312"/>
      <point x="125" y="233" type="curve"/>
      <point x="125" y="0" type="line"/>
    </contour>
  </outline>
</glyph>
<glyph name="Rcaron" format="2">
  <advance width="580"/>
  <unicode hex="0158"/>
  <outline>
    <component base="caron" xOffset="90" yOffset="230"/>
    <contour>
      <point x="222" y="300" type="line"/>
      <point x="340" y="0" type="line"/>
      <point x="530" y="0" type="line"/>
      <point x="412" y="300" type="line"/>
    </contour>
  </outline>
</glyph>
<glyph name="rcaron" format="2">
  <advance width="370"/>
  <unicode hex="0159"/>
  <outline>
    <contour>
      <point x="29" y="710" type="line"/>
      <point x="93" y="710" type="line"/>
      <point x="189" y="583" type="line"/>
      <point x="285" y="710" type="line"/>
      <point x="349" y="710" type="line"/>
      <point x="229" y="530" type="line"/>
      <point x="149" y="530" type="line"/>
    </contour>
    <contour>
      <point x="45" y="0" type="line"/>
      <point x="45" y="460" type="line"/>
      <point x="125" y="460" type="line"/>
      <point x="125" y="370" type="line"/>
      <point x="148" y="421"/>
      <point x="212" y="470"/>
      <point x="272" y="470" type="curve"/>
      <point x="272" y="470"/>
      <point x="272" y="470"/>
      <point x="272" y="470" type="curve"/>
      <point x="295" y="470"/>
      <point x="317" y="466"/>
      <point x="335" y="460" type="curve"/>
      <point x="335" y="359" type="line"/>
      <point x="312" y="379"/>
      <point x="278" y="390"/>
      <point x="246" y="390" type="curve" smooth="yes"/>
      <point x="237" y="390"/>
      <point x="228" y="388"/>
      <point x="219" y="385" type="curve" smooth="yes"/>
      <point x="174" y="368"/>
      <point x="137" y="312"/>
      <point x="125" y="233" type="curve"/>
      <point x="125" y="0" type="line"/>
    </contour>
  </outline>
</glyph>
<glyph name="Scedilla" format="2">
  <advance width="582"/>
  <unicode hex="015E"/>
  <outline>
    <contour>
      <point x="51" y="194" type="curve"/>
      <point x="65" y="194"/>
      <point x="80" y="193"/>
      <point x="95" y="193" type="curve" smooth="yes"/>
      <point x="139" y="193" type="line"/>
      <point x="139" y="86"/>
      <point x="246" y="79"/>
      <point x="303" y="79" type="curve" smooth="yes"/>
      <point x="333" y="79"/>
      <point x="440" y="99"/>
      <point x="440" y="205" type="curve" smooth="yes"/>
      <point x="440" y="368"/>
      <point x="69" y="290"/>
      <point x="69" y="527" type="curve" smooth="yes"/>
      <point x="69" y="620"/>
      <point x="140" y="709"/>
      <point x="299" y="709" type="curve" smooth="yes"/>
      <point x="408" y="709"/>
      <point x="489" y="643"/>
      <point x="518" y="573" type="curve" smooth="yes"/>
      <point x="525" y="556"/>
      <point x="530" y="538"/>
      <point x="530" y="521" type="curve"/>
      <point x="440" y="521" type="line"/>
      <point x="421" y="583"/>
      <point x="370" y="619"/>
      <point x="300" y="619" type="curve" smooth="yes"/>
      <point x="220" y="619"/>
      <point x="161" y="591"/>
      <point x="161" y="527" type="curve" smooth="yes"/>
      <point x="161" y="410"/>
      <point x="532" y="448"/>
      <point x="532" y="205" type="curve" smooth="yes"/>
      <point x="532" y="19"/>
      <point x="401" y="-11"/>
      <point x="304" y="-11" type="curve" smooth="yes"/>
      <point x="174" y="-11"/>
      <point x="51" y="76"/>
    </contour>
    <contour>
      <point x="206" y="-164" type="line"/>
      <point x="219" y="-167"/>
      <point x="240" y="-170"/>
      <point x="260" y="-170" type="curve" smooth="yes"/>
      <point x="301" y="-170"/>
      <point x="319" y="-148"/>
      <point x="319" y="-118" type="curve" smooth="yes"/>
      <point x="319" y="-82"/>
      <point x="270" y="-70"/>
      <point x="240" y="-67" type="curve"/>
      <point x="271" y="0" type="line"/>
      <point x="332" y="0" type="line"/>
      <point x="309" y="-46" type="line"/>
      <point x="332" y="-54"/>
      <point x="376" y="-70"/>
      <point x="376" y="-123" type="curve" smooth="yes"/>
      <point x="376" y="-177"/>
      <point x="331" y="-209"/>
      <point x="276" y="-209" type="curve" smooth="yes"/>
      <point x="243" y="-209"/>
      <point x="220" y="-200"/>
      <point x="206" y="-193" type="curve"/>
    </contour>
  </outline>
</glyph>
<glyph name="scedilla" format="2">
  <advance width="452"/>
  <unicode hex="015F"/>
  <outline>
    <contour>
      <point x="35" y="136" type="curve"/>
      <point x="74" y="136" type="line"/>
      <point x="114" y="136" type="line"/>
      <point x="114" y="62"/>
      <point x="192" y="55"/>
      <point x="237" y="55" type="curve" smooth="yes"/>
      <point x="261" y="55"/>
      <point x="335" y="67"/>
      <point x="335" y="130" type="curve" smooth="yes"/>
      <point x="335" y="236"/>
      <point x="55" y="185"/>
      <point x="55" y="340" type="curve" smooth="yes"/>
      <point x="55" y="407"/>
      <point x="105" y="470"/>
      <point x="215" y="470" type="curve" smooth="yes"/>
      <point x="301" y="470"/>
      <point x="365" y="423"/>
      <point x="388" y="373" type="curve" smooth="yes"/>
      <point x="394" y="361"/>
      <point x="397" y="348"/>
      <point x="397" y="336" type="curve"/>
      <point x="316" y="336" type="line"/>
      <point x="304" y="378"/>
      <point x="265" y="405"/>
      <point x="215" y="405" type="curve" smooth="yes"/>
      <point x="170" y="405"/>
      <point x="135" y="385"/>
      <point x="135" y="340" type="curve" smooth="yes"/>
      <point x="135" y="263"/>
      <point x="417" y="288"/>
      <point x="417" y="130" type="curve" smooth="yes"/>
      <point x="417" y="10"/>
      <point x="314" y="-10"/>
      <point x="237" y="-10" type="curve" smooth="yes"/>
      <point x="133" y="-10"/>
      <point x="35" y="52"/>
    </contour>
    <contour>
      <point x="141" y="-164" type="line"/>
      <point x="154" y="-167"/>
      <point x="175" y="-170"/>
      <point x="195" y="-170" type="curve" smooth="yes"/>
      <point x="236" y="-170"/>
      <point x="254" y="-148"/>
      <point x="254" y="-118" type="curve" smooth="yes"/>
      <point x="254" y="-82"/>
      <point x="205" y="-70"/>
      <point x="175" y="-67" type="curve"/>
      <point x="206" y="0" type="line"/>
      <point x="267" y="0" type="line"/>
      <point x="244" y="-46" type="line"/>
      <point x="267" y="-54"/>
      <point x="311" y="-70"/>
      <point x="311" y="-123" type="curve" smooth="yes"/>
      <point x="311" y="-177"/>
      <point x="266" y="-209"/>
      <point x="211" y="-209" type="curve" smooth="yes"/>
      <point x="178" y="-209"/>
      <point x="155" y="-200"/>
      <point x="141" y="-193" type="curve"/>
    </contour>
  </outline>
</glyph>
<glyph name="Tbar" format="2">
  <advance width="480"/>
  <unicode hex="0166"/>
  <outline>
    <component base="T"/>
    <contour>
      <point x="40" y="252" type="line"/>
      <point x="440" y="252" type="line"/>
      <point x="440" y="392" type="line"/>
      <point x="40" y="392" type="line"/>
    </contour>
  </outline>
  <guideline angle="90" x="10" y="0"/>
  <guideline angle="90" x="470" y="0"/>
  <guideline angle="90" x="235" y="0"/>
  <guideline angle="90" x="335" y="0"/>
</glyph>
<glyph name="tbar" format="2">
  <advance width="418"/>
  <unicode hex="0167"/>
  <outline>
    <contour>
      <point x="30" y="238" type="line"/>
      <point x="250" y="238" type="line"/>
      <point x="250" y="312" type="line"/>
      <point x="30" y="312" type="line"/>
    </contour>
    <contour>
      <point x="30" y="340" type="line"/>
      <point x="365" y="340" type="line"/>
      <point x="365" y="460" type="line"/>
      <point x="114" y="460" type="line"/>
      <point x="30" y="440" type="line"/>
    </contour>
    <contour>
      <point x="105" y="180" type="line" smooth="yes"/>
      <point x="105" y="44"/>
      <point x="213" y="-9"/>
      <point x="363" y="-9" type="curve" smooth="yes"/>
      <point x="396" y="-9" type="line"/>
      <point x="396" y="111" type="line"/>
      <point x="362" y="111" type="line" smooth="yes"/>
      <point x="293" y="111"/>
      <point x="281" y="138"/>
      <point x="281" y="236" type="curve" smooth="yes"/>
      <point x="281" y="610" type="line"/>
      <point x="125" y="610" type="line"/>
      <point x="112" y="443" type="line"/>
      <point x="105" y="443" type="line"/>
    </contour>
  </outline>
</glyph>
<glyph name="Uogonek" format="2">
  <advance width="560"/>
  <unicode hex="0172"/>
  <outline>
    <contour>
      <point x="50" y="224" type="curve" smooth="yes"/>
      <point x="50" y="700" type="line"/>
      <point x="140" y="700" type="line"/>
      <point x="140" y="274" type="line" smooth="yes"/>
      <point x="140" y="147"/>
      <point x="204" y="80"/>
      <point x="290" y="80" type="curve" smooth="yes"/>
      <point x="378" y="80"/>
      <point x="420" y="145"/>
      <point x="420" y="274" type="curve" smooth="yes"/>
      <point x="420" y="700" type="line"/>
      <point x="510" y="700" type="line"/>
      <point x="510" y="224" type="line" smooth="yes"/>
      <point x="510" y="100"/>
      <point x="465" y="-10"/>
      <point x="290" y="-10" type="curve" smooth="yes"/>
      <point x="92" y="-10"/>
      <point x="50" y="106"/>
    </contour>
    <contour>
      <point x="341" y="-124" type="curve" smooth="yes"/>
      <point x="341" y="-70"/>
      <point x="378" y="-25"/>
      <point x="412" y="0" type="curve"/>
      <point x="470" y="0" type="line"/>
      <point x="429" y="-31"/>
      <point x="402" y="-69"/>
      <point x="402" y="-108" type="curve" smooth="yes"/>
      <point x="402" y="-130"/>
      <point x="414" y="-145"/>
      <point x="431" y="-151" type="curve" smooth="yes"/>
      <point x="436" y="-153"/>
      <point x="442" y="-154"/>
      <point x="448" y="-154" type="curve" smooth="yes"/>
      <point x="462" y="-154"/>
      <point x="477" y="-149"/>
      <point x="488" y="-141" type="curve"/>
      <point x="510" y="-182" type="line"/>
      <point x="497" y="-191" type="line"/>
      <point x="478" y="-202"/>
      <point x="451" y="-209"/>
      <point x="431" y="-209" type="curve" smooth="yes"/>
      <point x="381" y="-209"/>
      <point x="341" y="-180"/>
    </contour>
  </outline>
</glyph>
<glyph name="wcircumflex" format="2">
  <advance width="724"/>
  <unicode hex="0175"/>
  <outline>
    <contour>
      <point x="35" y="460" type="line"/>
      <point x="115" y="460" type="line"/>
      <point x="215" y="65" type="line"/>
      <point x="322" y="460" type="line"/>
      <point x="402" y="460" type="line"/>
      <point x="502" y="65" type="line"/>
      <point x="609" y="460" type="line"/>
      <point x="689" y="460" type="line"/>
      <point x="553" y="0" type="line"/>
      <point x="443" y="0" type="line"/>
      <point x="360" y="317" type="line"/>
      <point x="266" y="0" type="line"/>
      <point x="156" y="0" type="line"/>
    </contour>
    <contour>
      <point x="202" y="520" type="line"/>
      <point x="322" y="700" type="line"/>
      <point x="402" y="700" type="line"/>
      <point x="522" y="520" type="line"/>
      <point x="458" y="520" type="line"/>
      <point x="362" y="647" type="line"/>
      <point x="266" y="520" type="line"/>
    </contour>
  </outline>
</glyph>
<glyph name="Ycircumflex" format="2">
  <advance width="594"/>
  <unicode hex="0176"/>
  <outline>
    <contour>
      <point x="40" y="700" type="line"/>
      <point x="147" y="700" type="line"/>
      <point x="297" y="388" type="line"/>
      <point x="447" y="700" type="line"/>
      <point x="554" y="700" type="line"/>
      <point x="342" y="310" type="line"/>
      <point x="342" y="0" type="line"/>
      <point x="252" y="0" type="line"/>
      <point x="252" y="310" type="line"/>
    </contour>
    <contour>
      <point x="137" y="760" type="line"/>
      <point x="257" y="940" type="line"/>
      <point x="337" y="940" type="line"/>
      <point x="457" y="760" type="line"/>
      <point x="393" y="760" type="line"/>
      <point x="297" y="887" type="line"/>
      <point x="201" y="760" type="line"/>
    </contour>
  </outline>
</glyph>
<glyph name="Ydieresis" format="2">
  <advance width="594"/>
  <unicode hex="0178"/>
  <outline>
    <contour>
      <point x="40" y="700" type="line"/>
      <point x="147" y="700" type="line"/>
      <point x="297" y="388" type="line"/>
      <point x="447" y="700" type="line"/>
      <point x="554" y="700" type="line"/>
      <point x="342" y="310" type="line"/>
      <point x="342" y="0" type="line"/>
      <point x="252" y="0" type="line"/>
      <point x="252" y="310" type="line"/>
    </contour>
    <contour>
      <point x="178" y="760" type="line"/>
      <point x="178" y="840" type="line"/>
      <point x="258" y="840" type="line"/>
      <point x="258" y="760" type="line"/>
    </contour>
    <contour>
      <point x="335" y="760" type="line"/>
      <point x="335" y="840" type="line"/>
      <point x="415" y="840" type="line"/>
      <point x="415" y="760" type="line"/>
    </contour>
  </outline>
</glyph>
<glyph name="zacute" format="2">
  <advance width="450"/>
  <unicode hex="017A"/>
  <outline>
    <contour>
      <point x="40" y="0" type="line"/>
      <point x="40" y="65" type="line"/>
      <point x="310" y="395" type="line"/>
      <point x="40" y="395" type="line"/>
      <point x="40" y="460" type="line"/>
      <point x="410" y="460" type="line"/>
      <point x="410" y="395" type="line"/>
      <point x="150" y="65" type="line"/>
      <point x="410" y="65" type="line"/>
      <point x="410" y="0" type="line"/>
    </contour>
    <contour>
      <point x="160" y="520" type="line"/>
      <point x="210" y="700" type="line"/>
      <point x="290" y="700" type="line"/>
      <point x="224" y="520" type="line"/>
    </contour>
  </outline>
</glyph>
<glyph name="Zdotaccent" format="2">
  <advance width="510"/>
  <unicode hex="017B"/>
  <outline>
    <contour>
      <point x="50" y="0" type="line"/>
      <point x="50" y="80" type="line"/>
      <point x="370" y="620" type="line"/>
      <point x="50" y="620" type="line"/>
      <point x="50" y="700" type="line"/>
      <point x="460" y="700" type="line"/>
      <point x="460" y="620" type="line"/>
      <point x="140" y="80" type="line"/>
      <point x="460" y="80" type="line"/>
      <point x="460" y="0" type="line"/>
    </contour>
    <contour>
      <point x="215" y="760" type="line"/>
      <point x="215" y="840" type="line"/>
      <point x="295" y="840" type="line"/>
      <point x="295" y="760" type="line"/>
    </contour>
  </outline>
</glyph>
<glyph name="Zcaron" format="2">
  <advance width="510"/>
  <unicode hex="017D"/>
  <outline>
    <contour>
      <point x="50" y="0" type="line"/>
      <point x="50" y="80" type="line"/>
      <point x="370" y="620" type="line"/>
      <point x="50" y="620" type="line"/>
      <point x="50" y="700" type="line"/>
      <point x="460" y="700" type="line"/>
      <point x="460" y="620" type="line"/>
      <point x="140" y="80" type="line"/>
      <point x="460" y="80" type="line"/>
      <point x="460" y="0" type="line"/>
    </contour>
    <contour>
      <point x="95" y="940" type="line"/>
      <point x="159" y="940" type="line"/>
      <point x="255" y="813" type="line"/>
      <point x="351" y="940" type="line"/>
      <point x="415" y="940" type="line"/>
      <point x="295" y="760" type="line"/>
      <point x="215" y="760" type="line"/>
    </contour>
  </outline>
</glyph>
<glyph name="zcaron" format="2">
  <advance width="450"/>
  <unicode hex="017E"/>
  <outline>
    <contour>
      <point x="40" y="0" type="line"/>
      <point x="40" y="65" type="line"/>
      <point x="310" y="395" type="line"/>
      <point x="40" y="395" type="line"/>
      <point x="40" y="460" type="line"/>
      <point x="410" y="460" type="line"/>
      <point x="410" y="395" type="line"/>
      <point x="150" y="65" type="line"/>
      <point x="410" y="65" type="line"/>
      <point x="410" y="0" type="line"/>
    </contour>
    <contour>
      <point x="65" y="700" type="line"/>
      <point x="129" y="700" type="line"/>
      <point x="225" y="573" type="line"/>
      <point x="321" y="700" type="line"/>
      <point x="385" y="700" type="line"/>
      <point x="265" y="520" type="line"/>
      <point x="185" y="520" type="line"/>
    </contour>
  </outline>
</glyph>
<glyph name="longs" format="2">
  <advance width="368"/>
  <unicode hex="017F"/>
  <outline>
    <contour>
      <point x="110" y="0" type="line"/>
      <point x="286" y="0" type="line"/>
      <point x="286" y="500" type="line" smooth="yes"/>
      <point x="286" y="545"/>
      <point x="299" y="574"/>
      <point x="334" y="574" type="curve" smooth="yes"/>
      <point x="368" y="574" type="line"/>
      <point x="368" y="700" type="line"/>
      <point x="334" y="700" type="line" smooth="yes"/>
      <point x="217" y="700"/>
      <point x="110" y="642"/>
      <point x="110" y="500" type="curve" smooth="yes"/>
    </contour>
    <contour>
      <point x="35" y="340" type="line"/>
      <point x="190" y="340" type="line"/>
      <point x="190" y="460" type="line"/>
      <point x="35" y="460" type="line"/>
    </contour>
  </outline>
</glyph>
<glyph name="Schwa" format="2">
  <advance width="704"/>
  <unicode hex="018F"/>
  <outline>
    <contour>
      <point x="30" y="402" type="line"/>
      <point x="30" y="184"/>
      <point x="92" y="-16"/>
      <point x="352" y="-16" type="curve" smooth="yes"/>
      <point x="549" y="-16"/>
      <point x="674" y="123"/>
      <point x="674" y="340" type="curve" smooth="yes"/>
      <point x="674" y="557"/>
      <point x="549" y="696"/>
      <point x="352" y="696" type="curve" smooth="yes"/>
      <point x="194" y="696"/>
      <point x="82" y="607"/>
      <point x="44" y="460" type="curve"/>
      <point x="238" y="460" type="line"/>
      <point x="262" y="508"/>
      <point x="301" y="536"/>
      <point x="352" y="536" type="curve" smooth="yes"/>
      <point x="436" y="536"/>
      <point x="490" y="459"/>
      <point x="490" y="340" type="curve" smooth="yes"/>
      <point x="490" y="221"/>
      <point x="436" y="144"/>
      <point x="352" y="144" type="curve" smooth="yes"/>
      <point x="216" y="144"/>
      <point x="214" y="306"/>
      <point x="214" y="402" type="curve"/>
    </contour>
    <contour>
      <point x="97" y="252" type="line"/>
      <point x="550" y="252" type="line"/>
      <point x="550" y="402" type="line"/>
      <point x="97" y="402" type="line"/>
    </contour>
  </outline>
</glyph>
<glyph name="florin" format="2">
  <advance width="535"/>
  <unicode hex="0192"/>
  <outline>
    <contour>
      <point x="-79.3294" y="-168.005" type="line"/>
      <point x="-31.6695" y="-180.411"/>
      <point x="7.30173" y="-187"/>
      <point x="46.9534" y="-187" type="curve" smooth="yes"/>
      <point x="165.195" y="-187"/>
      <point x="218.151" y="-122.449"/>
      <point x="235" y="-43" type="curve" smooth="yes"/>
      <point x="349.732" y="498" type="line" smooth="yes"/>
      <point x="356.907" y="531.83"/>
      <point x="379.389" y="550"/>
      <point x="417.369" y="550" type="curve" smooth="yes"/>
      <point x="433.925" y="550"/>
      <point x="456.826" y="547.053"/>
      <point x="475.269" y="541.09" type="curve" smooth="yes"/>
      <point x="493.812" y="535.094" type="line"/>
      <point x="524.067" y="671.094" type="line"/>
      <point x="514.169" y="675.094" type="line" smooth="yes"/>
      <point x="476.047" y="690.501"/>
      <point x="435.027" y="700"/>
      <point x="388.254" y="700" type="curve" smooth="yes"/>
      <point x="282.077" y="700"/>
      <point x="198.851" y="641.716"/>
      <point x="180.034" y="554.323" type="curve" smooth="yes"/>
      <point x="73.668" y="60.3135" type="line" smooth="yes"/>
      <point x="56.2955" y="-20.3718"/>
      <point x="39.2247" y="-40.3388"/>
      <point x="5.11838" y="-40.3388" type="curve" smooth="yes"/>
      <point x="-8.25226" y="-40.3388"/>
      <point x="-30.8611" y="-36.6395"/>
      <point x="-38.964" y="-34.7413" type="curve" smooth="yes"/>
      <point x="-51.7703" y="-31.7413" type="line"/>
    </contour>
    <contour>
      <point x="48.5333" y="324" type="line"/>
      <point x="403.175" y="324" type="line"/>
      <point x="433.059" y="460" type="line"/>
      <point x="77.8955" y="460" type="line"/>
    </contour>
  </outline>
</glyph>
<glyph name="Obar" format="2">
  <advance width="704"/>
  <unicode hex="019F"/>
  <anchor x="354" y="740" name="top"/>
  <outline>
    <component base="O"/>
    <contour>
      <point x="145" y="282" type="line"/>
      <point x="550" y="282" type="line"/>
      <point x="550" y="432" type="line"/>
      <point x="145" y="432" type="line"/>
    </contour>
  </outline>
</glyph>
<glyph name="uni01C5" format="2">
  <advance width="1110"/>
  <unicode hex="01C5"/>
  <outline>
    <contour>
      <point x="730" y="710" type="line"/>
      <point x="794" y="710" type="line"/>
      <point x="890" y="583" type="line"/>
      <point x="986" y="710" type="line"/>
      <point x="1050" y="710" type="line"/>
      <point x="930" y="530" type="line"/>
      <point x="850" y="530" type="line"/>
    </contour>
    <contour>
      <point x="700" y="0" type="line"/>
      <point x="700" y="65" type="line"/>
      <point x="970" y="395" type="line"/>
      <point x="700" y="395" type="line"/>
      <point x="700" y="460" type="line"/>
      <point x="1070" y="460" type="line"/>
      <point x="1070" y="395" type="line"/>
      <point x="810" y="65" type="line"/>
      <point x="1070" y="65" type="line"/>
      <point x="1070" y="0" type="line"/>
    </contour>
    <contour>
      <point x="50" y="0" type="line"/>
      <point x="50" y="700" type="line"/>
      <point x="328" y="700" type="line" smooth="yes"/>
      <point x="518" y="700"/>
      <point x="610" y="550"/>
      <point x="610" y="350" type="curve" smooth="yes"/>
      <point x="610" y="147"/>
      <point x="519" y="0"/>
      <point x="328" y="0" type="curve" smooth="yes"/>
    </contour>
    <contour>
      <point x="140" y="80" type="line"/>
      <point x="328" y="80" type="line" smooth="yes"/>
      <point x="478" y="80"/>
      <point x="520" y="241"/>
      <point x="520" y="350" type="curve" smooth="yes"/>
      <point x="520" y="498"/>
      <point x="477" y="620"/>
      <point x="328" y="620" type="curve" smooth="yes"/>
      <point x="140" y="620" type="line"/>
    </contour>
  </outline>
</glyph>
<glyph name="uni01C6" format="2">
  <advance width="941"/>
  <unicode hex="01C6"/>
  <outline>
    <contour>
      <point x="561" y="710" type="line"/>
      <point x="625" y="710" type="line"/>
      <point x="721" y="583" type="line"/>
      <point x="817" y="710" type="line"/>
      <point x="881" y="710" type="line"/>
      <point x="761" y="530" type="line"/>
      <point x="681" y="530" type="line"/>
    </contour>
    <contour>
      <point x="531" y="0" type="line"/>
      <point x="531" y="65" type="line"/>
      <point x="801" y="395" type="line"/>
      <point x="531" y="395" type="line"/>
      <point x="531" y="460" type="line"/>
      <point x="901" y="460" type="line"/>
      <point x="901" y="395" type="line"/>
      <point x="641" y="65" type="line"/>
      <point x="901" y="65" type="line"/>
      <point x="901" y="0" type="line"/>
    </contour>
    <contour>
      <point x="35" y="230" type="curve"/>
      <point x="35" y="230"/>
      <point x="36" y="231"/>
      <point x="36" y="231" type="curve"/>
      <point x="36" y="345"/>
      <point x="92" y="471"/>
      <point x="226" y="471" type="curve" smooth="yes"/>
      <point x="286" y="471"/>
      <point x="338" y="437"/>
      <point x="366" y="381" type="curve"/>
      <point x="366" y="700" type="line"/>
      <point x="446" y="700" type="line"/>
      <point x="446" y="231" type="line" smooth="yes"/>
      <point x="446" y="154"/>
      <point x="446" y="77"/>
      <point x="446" y="0" type="curve"/>
      <point x="366" y="0" type="line"/>
      <point x="366" y="72" type="line"/>
      <point x="343" y="21"/>
      <point x="283" y="-10"/>
      <point x="225" y="-10" type="curve" smooth="yes"/>
      <point x="96" y="-10"/>
      <point x="35" y="100"/>
    </contour>
    <contour>
      <point x="115" y="230" type="curve" smooth="yes"/>
      <point x="115" y="123"/>
      <point x="156" y="55"/>
      <point x="245" y="55" type="curve" smooth="yes"/>
      <point x="324" y="55"/>
      <point x="365" y="123"/>
      <point x="365" y="230" type="curve" smooth="yes"/>
      <point x="365" y="321"/>
      <point x="330" y="405"/>
      <point x="245" y="405" type="curve" smooth="yes"/>
      <point x="135" y="405"/>
      <point x="115" y="305"/>
    </contour>
  </outline>
</glyph>
<glyph name="uni01C8" format="2">
  <advance width="740"/>
  <unicode hex="01C8"/>
  <outline>
    <component base="j" xOffset="510"/>
    <contour>
      <point x="190" y="160" type="line"/>
      <point x="500" y="160" type="line"/>
      <point x="500" y="0" type="line"/>
      <point x="190" y="0" type="line"/>
    </contour>
  </outline>
</glyph>
<glyph name="uni01CC" format="2">
  <advance width="708"/>
  <unicode hex="01CC"/>
  <outline>
    <component base="j" xOffset="478"/>
    <contour>
      <point x="45" y="0" type="line"/>
      <point x="45" y="460" type="line"/>
      <point x="205" y="460" type="line"/>
      <point x="225" y="360" type="line"/>
      <point x="225" y="0" type="line"/>
    </contour>
  </outline>
</glyph>
<glyph name="uni01DA" format="2">
  <advance width="478"/>
  <unicode hex="01DA"/>
  <outline>
    <contour>
      <point x="79" y="850" type="line"/>
      <point x="143" y="850" type="line"/>
      <point x="239" y="723" type="line"/>
      <point x="335" y="850" type="line"/>
      <point x="399" y="850" type="line"/>
      <point x="279" y="670" type="line"/>
      <point x="199" y="670" type="line"/>
    </contour>
    <contour>
      <point x="120" y="530" type="line"/>
      <point x="120" y="610" type="line"/>
      <point x="200" y="610" type="line"/>
      <point x="200" y="530" type="line"/>
    </contour>
    <contour>
      <point x="277" y="530" type="line"/>
      <point x="277" y="610" type="line"/>
      <point x="357" y="610" type="line"/>
      <point x="357" y="530" type="line"/>
    </contour>
    <contour>
      <point x="44" y="160" type="curve" smooth="yes"/>
      <point x="44" y="460" type="line"/>
      <point x="124" y="460" type="line"/>
      <point x="124" y="190" type="line" smooth="yes"/>
      <point x="124" y="137"/>
      <point x="124" y="94"/>
      <point x="144" y="72" type="curve" smooth="yes"/>
      <point x="154" y="61"/>
      <point x="169" y="55"/>
      <point x="192" y="55" type="curve" smooth="yes"/>
      <point x="256" y="55"/>
      <point x="352" y="116"/>
      <point x="352" y="230" type="curve" smooth="yes"/>
      <point x="352" y="307"/>
      <point x="352" y="383"/>
      <point x="352" y="460" type="curve"/>
      <point x="433" y="460" type="line"/>
      <point x="433" y="0" type="line"/>
      <point x="353" y="0" type="line"/>
      <point x="353" y="90" type="line"/>
      <point x="314" y="43"/>
      <point x="232" y="-10"/>
      <point x="166" y="-10" type="curve" smooth="yes"/>
      <point x="49" y="-10"/>
      <point x="44" y="78"/>
    </contour>
  </outline>
</glyph>
<glyph name="uni01DD" format="2">
  <advance width="471"/>
  <unicode hex="01DD"/>
  <outline>
    <contour>
      <point x="36" y="250" type="curve"/>
      <point x="352" y="250" type="line"/>
      <point x="344" y="322"/>
      <point x="314" y="390"/>
      <point x="230" y="390" type="curve" smooth="yes"/>
      <point x="186" y="390"/>
      <point x="139" y="372"/>
      <point x="116" y="346" type="curve"/>
      <point x="55" y="362" type="line"/>
      <point x="72" y="404"/>
      <point x="130" y="470"/>
      <point x="231" y="470" type="curve" smooth="yes"/>
      <point x="387" y="470"/>
      <point x="437" y="338"/>
      <point x="437" y="220" type="curve" smooth="yes"/>
      <point x="437" y="112"/>
      <point x="376" y="-10"/>
      <point x="231" y="-10" type="curve" smooth="yes"/>
      <point x="93" y="-10"/>
      <point x="36" y="112"/>
    </contour>
    <contour>
      <point x="113" y="170" type="line"/>
      <point x="126" y="102"/>
      <point x="161" y="70"/>
      <point x="231" y="70" type="curve" smooth="yes"/>
      <point x="290" y="70"/>
      <point x="342" y="107"/>
      <point x="352" y="170" type="curve"/>
    </contour>
  </outline>
</glyph>
<glyph name="uni01E0" format="2">
  <advance width="560"/>
  <unicode hex="01E0"/>
  <outline>
    <contour>
      <point x="145" y="910" type="line"/>
      <point x="145" y="990" type="line"/>
      <point x="415" y="990" type="line"/>
      <point x="415" y="910" type="line"/>
    </contour>
    <contour>
      <point x="240" y="770" type="line"/>
      <point x="240" y="850" type="line"/>
      <point x="320" y="850" type="line"/>
      <point x="320" y="770" type="line"/>
    </contour>
    <contour>
      <point x="20" y="0" type="line"/>
      <point x="230" y="700" type="line"/>
      <point x="330" y="700" type="line"/>
      <point x="540" y="0" type="line"/>
      <point x="450" y="0" type="line"/>
      <point x="370" y="282" type="line"/>
      <point x="190" y="282" type="line"/>
      <point x="110" y="0" type="line"/>
    </contour>
    <contour>
      <point x="210" y="372" type="line"/>
      <point x="350" y="372" type="line"/>
      <point x="280" y="610" type="line"/>
    </contour>
  </outline>
</glyph>
<glyph name="uni01F4" format="2">
  <advance width="647"/>
  <unicode hex="01F4"/>
  <outline>
    <contour>
      <point x="296" y="750" type="line"/>
      <point x="346" y="910" type="line"/>
      <point x="426" y="910" type="line"/>
      <point x="360" y="750" type="line"/>
    </contour>
    <contour>
      <point x="347" y="230" type="line"/>
      <point x="347" y="350" type="line"/>
      <point x="607" y="350" type="line"/>
      <point x="607" y="0" type="line"/>
      <point x="457" y="0" type="line"/>
      <point x="457" y="230" type="line"/>
    </contour>
    <contour>
      <point x="469" y="35" type="line"/>
      <point x="452" y="11"/>
      <point x="393" y="-10"/>
      <point x="348" y="-10" type="curve"/>
      <point x="348" y="150" type="line"/>
      <point x="410" y="150"/>
      <point x="457" y="185"/>
      <point x="469" y="247" type="curve"/>
    </contour>
  </outline>
</glyph>
<glyph name="uni01F9" format="2">
  <advance width="478"/>
  <unicode hex="01F9"/>
  <outline>
    <component base="gravecomb" xOffset="451"/>
    <contour>
      <point x="45" y="0" type="line"/>
      <point x="45" y="460" type="line"/>
      <point x="205" y="460" type="line"/>
      <point x="225" y="360" type="line"/>
      <point x="225" y="0" type="line"/>
    </contour>
  </outline>
</glyph>
<glyph name="uni0200" format="2">
  <advance width="560"/>
  <unicode hex="0200"/>
  <outline>
    <contour>
      <point x="234" y="950" type="line"/>
      <point x="314" y="950" type="line"/>
      <point x="359" y="770" type="line"/>
      <point x="295" y="770" type="line"/>
    </contour>
    <contour>
      <point x="124" y="950" type="line"/>
      <point x="204" y="950" type="line"/>
      <point x="264" y="770" type="line"/>
      <point x="200" y="770" type="line"/>
    </contour>
    <contour>
      <point x="19" y="0" type="line"/>
      <point x="229" y="700" type="line"/>
      <point x="329" y="700" type="line"/>
      <point x="539" y="0" type="line"/>
      <point x="449" y="0" type="line"/>
      <point x="369" y="282" type="line"/>
      <point x="189" y="282" type="line"/>
      <point x="109" y="0" type="line"/>
    </contour>
    <contour>
      <point x="209" y="372" type="line"/>
      <point x="349" y="372" type="line"/>
      <point x="279" y="610" type="line"/>
    </contour>
  </outline>
</glyph>
<glyph name="uni0209" format="2">
  <advance width="280"/>
  <unicode hex="0209"/>
  <outline>
    <contour>
      <point x="94" y="710" type="line"/>
      <point x="174" y="710" type="line"/>
      <point x="219" y="530" type="line"/>
      <point x="155" y="530" type="line"/>
    </contour>
    <contour>
      <point x="-16" y="710" type="line"/>
      <point x="64" y="710" type="line"/>
      <point x="124" y="530" type="line"/>
      <point x="60" y="530" type="line"/>
    </contour>
    <contour>
      <point x="99" y="0" type="line"/>
      <point x="99" y="460" type="line"/>
      <point x="179" y="460" type="line"/>
      <point x="179" y="0" type="line"/>
    </contour>
  </outline>
</glyph>
<glyph name="uni020D" format="2">
  <advance width="480"/>
  <unicode hex="020D"/>
  <outline>
    <contour>
      <point x="194" y="710" type="line"/>
      <point x="274" y="710" type="line"/>
      <point x="319" y="530" type="line"/>
      <point x="255" y="530" type="line"/>
    </contour>
    <contour>
      <point x="84" y="710" type="line"/>
      <point x="164" y="710" type="line"/>
      <point x="224" y="530" type="line"/>
      <point x="160" y="530" type="line"/>
    </contour>
    <contour>
      <point x="34" y="230" type="curve" smooth="yes"/>
      <point x="34" y="368"/>
      <point x="98" y="470"/>
      <point x="239" y="470" type="curve" smooth="yes"/>
      <point x="379" y="470"/>
      <point x="444" y="370"/>
      <point x="444" y="230" type="curve" smooth="yes"/>
      <point x="444" y="96"/>
      <point x="373" y="-10"/>
      <point x="239" y="-10" type="curve" smooth="yes"/>
      <point x="87" y="-10"/>
      <point x="34" y="102"/>
    </contour>
    <contour>
      <point x="114" y="230" type="curve" smooth="yes"/>
      <point x="114" y="109"/>
      <point x="169" y="55"/>
      <point x="239" y="55" type="curve" smooth="yes"/>
      <point x="312" y="55"/>
      <point x="364" y="105"/>
      <point x="364" y="230" type="curve" smooth="yes"/>
      <point x="364" y="357"/>
      <point x="310" y="405"/>
      <point x="239" y="405" type="curve" smooth="yes"/>
      <point x="168" y="405"/>
      <point x="114" y="357"/>
    </contour>
  </outline>
</glyph>
<glyph name="uni0211" format="2">
  <advance width="370"/>
  <unicode hex="0211"/>
  <outline>
    <contour>
      <point x="144" y="710" type="line"/>
      <point x="224" y="710" type="line"/>
      <point x="269" y="530" type="line"/>
      <point x="205" y="530" type="line"/>
    </contour>
    <contour>
      <point x="34" y="710" type="line"/>
      <point x="114" y="710" type="line"/>
      <point x="174" y="530" type="line"/>
      <point x="110" y="530" type="line"/>
    </contour>
    <contour>
      <point x="44" y="0" type="line"/>
      <point x="44" y="460" type="line"/>
      <point x="124" y="460" type="line"/>
      <point x="124" y="370" type="line"/>
      <point x="147" y="421"/>
      <point x="211" y="470"/>
      <point x="271" y="470" type="curve" smooth="yes"/>
      <point x="294" y="470"/>
      <point x="316" y="466"/>
      <point x="334" y="460" type="curve"/>
      <point x="334" y="359" type="line"/>
      <point x="311" y="379"/>
      <point x="280" y="390"/>
      <point x="245" y="390" type="curve" smooth="yes"/>
      <point x="189" y="390"/>
      <point x="139" y="331"/>
      <point x="124" y="233" type="curve"/>
      <point x="124" y="0" type="line"/>
    </contour>
  </outline>
</glyph>
<glyph name="uni0212" format="2">
  <advance width="580"/>
  <unicode hex="0212"/>
  <outline>
    <component base="uni0311" xOffset="460" yOffset="200"/>
    <contour>
      <point x="222" y="300" type="line"/>
      <point x="340" y="0" type="line"/>
      <point x="530" y="0" type="line"/>
      <point x="412" y="300" type="line"/>
    </contour>
  </outline>
</glyph>
<glyph name="uni021F" format="2">
  <advance width="478"/>
  <unicode hex="021F"/>
  <outline>
    <contour>
      <point x="79" y="940" type="line"/>
      <point x="143" y="940" type="line"/>
      <point x="239" y="813" type="line"/>
      <point x="335" y="940" type="line"/>
      <point x="399" y="940" type="line"/>
      <point x="279" y="760" type="line"/>
      <point x="199" y="760" type="line"/>
    </contour>
    <contour>
      <point x="45" y="0" type="line"/>
      <point x="45" y="700" type="line"/>
      <point x="125" y="700" type="line"/>
      <point x="125" y="380" type="line"/>
      <point x="163" y="422"/>
      <point x="230" y="470"/>
      <point x="295" y="470" type="curve" smooth="yes"/>
      <point x="413" y="470"/>
      <point x="433" y="384"/>
      <point x="433" y="304" type="curve" smooth="yes"/>
      <point x="433" y="0" type="line"/>
      <point x="353" y="0" type="line"/>
      <point x="353" y="271" type="line" smooth="yes"/>
      <point x="353" y="344"/>
      <point x="352" y="390"/>
      <point x="293" y="390" type="curve" smooth="yes"/>
      <point x="226" y="390"/>
      <point x="183" y="364"/>
      <point x="126" y="310" type="curve"/>
      <point x="126" y="207"/>
      <point x="125" y="103"/>
      <point x="125" y="0" type="curve"/>
    </contour>
  </outline>
</glyph>
<glyph name="uni022A" format="2">
  <advance width="660"/>
  <unicode hex="022A"/>
  <outline>
    <contour>
      <point x="193" y="910" type="line"/>
      <point x="193" y="990" type="line"/>
      <point x="463" y="990" type="line"/>
      <point x="463" y="910" type="line"/>
    </contour>
    <contour>
      <point x="209" y="770" type="line"/>
      <point x="209" y="850" type="line"/>
      <point x="289" y="850" type="line"/>
      <point x="289" y="770" type="line"/>
    </contour>
    <contour>
      <point x="366" y="770" type="line"/>
      <point x="366" y="850" type="line"/>
      <point x="446" y="850" type="line"/>
      <point x="446" y="770" type="line"/>
    </contour>
    <contour>
      <point x="49" y="350" type="curve" smooth="yes"/>
      <point x="49" y="560"/>
      <point x="145" y="710"/>
      <point x="327" y="710" type="curve" smooth="yes"/>
      <point x="518" y="710"/>
      <point x="609" y="555"/>
      <point x="609" y="350" type="curve" smooth="yes"/>
      <point x="609" y="141"/>
      <point x="520" y="-10"/>
      <point x="333" y="-10" type="curve" smooth="yes"/>
      <point x="140" y="-10"/>
      <point x="49" y="138"/>
    </contour>
    <contour>
      <point x="139" y="350" type="curve" smooth="yes"/>
      <point x="139" y="200"/>
      <point x="186" y="70"/>
      <point x="327" y="70" type="curve" smooth="yes"/>
      <point x="476" y="70"/>
      <point x="519" y="236"/>
      <point x="519" y="350" type="curve" smooth="yes"/>
      <point x="519" y="503"/>
      <point x="476" y="630"/>
      <point x="327" y="630" type="curve" smooth="yes"/>
      <point x="188" y="630"/>
      <point x="139" y="502"/>
    </contour>
  </outline>
</glyph>
<glyph name="uni022C" format="2">
  <advance width="660"/>
  <unicode hex="022C"/>
  <outline>
    <contour>
      <point x="243" y="950" type="line"/>
      <point x="243" y="1030" type="line"/>
      <point x="513" y="1030" type="line"/>
      <point x="513" y="950" type="line"/>
    </contour>
    <contour>
      <point x="153" y="770" type="line"/>
      <point x="175" y="857"/>
      <point x="214" y="890"/>
      <point x="253" y="890" type="curve" smooth="yes"/>
      <point x="309" y="890"/>
      <point x="365" y="850"/>
      <point x="413" y="850" type="curve" smooth="yes"/>
      <point x="431" y="850"/>
      <point x="447" y="858"/>
      <point x="453" y="890" type="curve"/>
      <point x="503" y="890" type="line"/>
      <point x="501" y="876"/>
      <point x="498" y="864"/>
      <point x="495" y="853" type="curve" smooth="yes"/>
      <point x="476" y="788"/>
      <point x="441" y="770"/>
      <point x="413" y="770" type="curve" smooth="yes"/>
      <point x="359" y="770"/>
      <point x="306" y="810"/>
      <point x="253" y="810" type="curve" smooth="yes"/>
      <point x="235" y="810"/>
      <point x="209" y="797"/>
      <point x="203" y="770" type="curve"/>
    </contour>
    <contour>
      <point x="50" y="350" type="curve" smooth="yes"/>
      <point x="50" y="560"/>
      <point x="146" y="710"/>
      <point x="328" y="710" type="curve" smooth="yes"/>
      <point x="519" y="710"/>
      <point x="610" y="555"/>
      <point x="610" y="350" type="curve" smooth="yes"/>
      <point x="610" y="141"/>
      <point x="521" y="-10"/>
      <point x="334" y="-10" type="curve" smooth="yes"/>
      <point x="141" y="-10"/>
      <point x="50" y="138"/>
    </contour>
    <contour>
      <point x="140" y="350" type="curve" smooth="yes"/>
      <point x="140" y="200"/>
      <point x="187" y="70"/>
      <point x="328" y="70" type="curve" smooth="yes"/>
      <point x="477" y="70"/>
      <point x="520" y="236"/>
      <point x="520" y="350" type="curve" smooth="yes"/>
      <point x="520" y="503"/>
      <point x="477" y="630"/>
      <point x="328" y="630" type="curve" smooth="yes"/>
      <point x="189" y="630"/>
      <point x="140" y="502"/>
    </contour>
  </outline>
</glyph>
<glyph name="uni0230" format="2">
  <advance width="660"/>
  <unicode hex="0230"/>
  <outline>
    <component base="uni022E"/>
    <contour>
      <point x="195" y="900" type="line"/>
      <point x="195" y="970" type="line"/>
      <point x="465" y="970" type="line"/>
      <point x="465" y="900" type="line"/>
    </contour>
  </outline>
</glyph>
